SplineFontDB: 3.0
FontName: KGaramond-Regular
FullName: Kabylian Garamond Regular
FamilyName: Kabyle Garamond
Weight: Regular
Copyright: Credits to Mestafa Kamal.  2019. Kabylian Garamond Font REgular is a free font.
Version: 001.003
ItalicAngle: 0
UnderlinePosition: -100
UnderlineWidth: 50
Ascent: 731
Descent: 269
InvalidEm: 0
sfntRevision: 0x00010000
LayerCount: 2
Layer: 0 1 "Back" 1
Layer: 1 1 "Fore" 0
XUID: [1021 471 -421050302 6987161]
UniqueID: 4222297
StyleMap: 0x0040
FSType: 4
OS2Version: 2
OS2_WeightWidthSlopeOnly: 0
OS2_UseTypoMetrics: 0
CreationTime: 939399295
ModificationTime: 1562434100
PfmFamily: 17
TTFWeight: 400
TTFWidth: 5
LineGap: 147
VLineGap: 0
Panose: 2 2 5 0 0 0 0 0 0 0
OS2TypoAscent: 731
OS2TypoAOffset: 0
OS2TypoDescent: -269
OS2TypoDOffset: 0
OS2TypoLinegap: 120
OS2WinAscent: 851
OS2WinAOffset: 0
OS2WinDescent: 269
OS2WinDOffset: 0
HheadAscent: 715
HheadAOffset: 0
HheadDescent: -258
HheadDOffset: 0
OS2SubXSize: 500
OS2SubYSize: 500
OS2SubXOff: 0
OS2SubYOff: 250
OS2SupXSize: 500
OS2SupYSize: 500
OS2SupXOff: 0
OS2SupYOff: 500
OS2StrikeYSize: 50
OS2StrikeYPos: 306
OS2CapHeight: 663
OS2XHeight: 397
OS2Vendor: 'ADBE'
OS2CodePages: 00000001.00000000
OS2UnicodeRanges: 800000af.4000004a.00000000.00000000
Lookup: 258 0 0 "'kern' Horizontal Kerning in Latin lookup 0" { "'kern' Horizontal Kerning in Latin lookup 0 subtable"  } ['kern' ('latn' <'dflt' > ) ]
MarkAttachClasses: 1
DEI: 91125
ShortTable: maxp 3
  0
  20480
  230
EndShort
LangName: 2143
LangName: 1033 "" "KGaramond" "" "" "KGaramond-Regular" "OTF 1.0;PS 001.003;Core 1.0.22" "" "Please refer to the Copyright section for the font trademark attribution notices." "" "" "" "" "" "" "" "" "Kabylian Garamond" "" "KGaramond"
Encoding: Custom
UnicodeInterp: none
NameList: AGL For New Fonts
DisplaySize: -48
AntiAlias: 1
FitToEm: 0
ExtremaBound: 10
WinInfo: 52 26 10
BeginPrivate: 8
BlueValues 39 [-16 0 660 676 394 408 626 640 715 715]
OtherBlues 19 [240 247 -269 -255]

StartChar: exclam
Encoding: 33 33 2
Width: 220
Flags: MW
HStem: -14 114<95.5 127>
VStem: 54 112<25 57 25 58> 61 98<609.5 629.5>
LayerCount: 2
Fore
SplineSet
110 -14 m 0,0,1
 87 -14 87 -14 70.5 1 c 128,-1,2
 54 16 54 16 54 41 c 128,-1,3
 54 66 54 66 70 83 c 128,-1,4
 86 100 86 100 110 100 c 0,5,6
 135 100 135 100 150.5 83 c 128,-1,7
 166 66 166 66 166 41 c 0,8,9
 166 17 166 17 150.5 1.5 c 128,-1,10
 135 -14 135 -14 110 -14 c 0,0,1
110 646 m 128,-1,12
 136 646 136 646 147.5 640.5 c 128,-1,13
 159 635 159 635 159 617 c 0,14,15
 159 602 159 602 152 528 c 2,16,-1
 123 205 l 1,17,18
 118 200 118 200 109.5 200 c 128,-1,19
 101 200 101 200 97 205 c 2,20,-1
 68 528 l 2,21,22
 61 602 61 602 61 617 c 0,23,24
 61 635 61 635 72.5 640.5 c 128,-1,11
 84 646 84 646 110 646 c 128,-1,12
EndSplineSet
Validated: 1
EndChar

StartChar: quotedbl
Encoding: 34 34 3
Width: 404
Flags: MW
HStem: 470 230
VStem: 79 86<672.5 687> 239 86<672.5 687>
LayerCount: 2
Fore
SplineSet
122 700 m 128,-1,1
 146 700 146 700 155.5 695.5 c 128,-1,2
 165 691 165 691 165 676 c 0,3,4
 165 672 165 672 160 637 c 2,5,-1
 134 476 l 1,6,7
 122 464 122 464 110 476 c 1,8,-1
 84 637 l 2,9,10
 79 672 79 672 79 676 c 0,11,12
 79 691 79 691 88.5 695.5 c 128,-1,0
 98 700 98 700 122 700 c 128,-1,1
282 700 m 128,-1,14
 306 700 306 700 315.5 695.5 c 128,-1,15
 325 691 325 691 325 676 c 0,16,17
 325 672 325 672 320 637 c 2,18,-1
 294 476 l 1,19,20
 282 464 282 464 270 476 c 1,21,-1
 244 637 l 2,22,23
 239 672 239 672 239 676 c 0,24,25
 239 691 239 691 248.5 695.5 c 128,-1,13
 258 700 258 700 282 700 c 128,-1,14
EndSplineSet
Validated: 1
EndChar

StartChar: numbersign
Encoding: 35 35 4
Width: 500
Flags: MW
HStem: 191 50<24 120 9 133 173 278 24 159 332 416> 403 50<80 176 64 189 231 334 80 217 390 478>
VStem: 9 482<191 453>
LayerCount: 2
Fore
SplineSet
334 403 m 1,0,-1
 217 403 l 1,1,-1
 173 241 l 1,2,-1
 291 241 l 1,3,-1
 334 403 l 1,0,-1
478 403 m 1,4,-1
 376 403 l 1,5,-1
 332 241 l 1,6,-1
 431 241 l 1,7,-1
 416 191 l 1,8,-1
 318 191 l 1,9,-1
 267 3 l 1,10,-1
 228 3 l 1,11,-1
 278 191 l 1,12,-1
 159 191 l 1,13,-1
 108 3 l 1,14,-1
 70 3 l 1,15,-1
 120 191 l 1,16,-1
 9 191 l 1,17,-1
 24 241 l 1,18,-1
 133 241 l 1,19,-1
 176 403 l 1,20,-1
 64 403 l 1,21,-1
 80 453 l 1,22,-1
 189 453 l 1,23,-1
 234 624 l 1,24,-1
 277 624 l 1,25,-1
 231 453 l 1,26,-1
 347 453 l 1,27,-1
 392 624 l 1,28,-1
 436 624 l 1,29,-1
 390 453 l 1,30,-1
 491 453 l 1,31,-1
 478 403 l 1,4,-1
EndSplineSet
Validated: 1
EndChar

StartChar: dollar
Encoding: 36 36 5
Width: 500
Flags: MW
HStem: 0 31<241 241 241 301> 611 28 611 111
VStem: 91 67<476 524> 199 32.5 286.5 33.5 371 73<123 161.5>
LayerCount: 2
Fore
SplineSet
251 383 m 1,0,-1
 278 611 l 1,1,2
 210 610 210 610 184 578 c 128,-1,3
 158 546 158 546 158 503 c 0,4,5
 158 434 158 434 251 383 c 1,0,-1
272 285 m 1,6,-1
 241 31 l 1,7,8
 297 30 297 30 334 56.5 c 128,-1,9
 371 83 371 83 371 139 c 0,10,11
 371 181 371 181 351.5 217 c 128,-1,12
 332 253 332 253 272 285 c 1,6,-1
325 717 m 1,13,-1
 315 639 l 1,14,15
 353 638 353 638 415 624 c 1,16,17
 434 577 434 577 436 511 c 0,18,19
 434 506 434 506 426.5 505 c 128,-1,20
 419 504 419 504 414 508 c 0,21,22
 405 531 405 531 397.5 545 c 128,-1,23
 390 559 390 559 367 580 c 128,-1,24
 344 601 344 601 312 608 c 1,25,-1
 282 366 l 1,26,-1
 324 344 l 2,27,28
 444 281 444 281 444 173 c 0,29,30
 444 97 444 97 388 48.5 c 128,-1,31
 332 0 332 0 237 0 c 1,32,-1
 226 -94 l 1,33,34
 220 -98 220 -98 209 -98 c 128,-1,35
 198 -98 198 -98 193 -94 c 1,36,-1
 205 2 l 1,37,38
 129 7 129 7 83 34 c 1,39,40
 55 67 55 67 55 165 c 0,41,42
 58 170 58 170 64.5 171.5 c 128,-1,43
 71 173 71 173 77 168 c 1,44,45
 111 55 111 55 208 34 c 1,46,-1
 241 301 l 1,47,-1
 203 320 l 2,48,49
 155 345 155 345 123 386.5 c 128,-1,50
 91 428 91 428 91 480 c 0,51,52
 91 548 91 548 142 593 c 128,-1,53
 193 638 193 638 282 640 c 1,54,-1
 291 717 l 2,55,56
 295 722 295 722 308 722 c 128,-1,57
 321 722 321 722 325 717 c 1,13,-1
EndSplineSet
Validated: 8388641
EndChar

StartChar: percent
Encoding: 37 37 6
Width: 844
Flags: MW
HStem: -14 28<611.5 683 611.5 700> 252 28<163.5 235 163.5 252> 346 28<611.5 683> 612 28<163.5 235> 615 20G<636 636>
VStem: 45 72<419 473 419 486> 279 72<420 472> 493 72<153 207 153 220> 727 72<154 206>
LayerCount: 2
Fore
SplineSet
799 180 m 0,0,1
 799 137 799 137 784 94.5 c 128,-1,2
 769 52 769 52 732.5 19 c 128,-1,3
 696 -14 696 -14 646 -14 c 128,-1,4
 596 -14 596 -14 559.5 19 c 128,-1,5
 523 52 523 52 508 94.5 c 128,-1,6
 493 137 493 137 493 180 c 0,7,8
 493 224 493 224 508 266.5 c 128,-1,9
 523 309 523 309 559 341.5 c 128,-1,10
 595 374 595 374 646 374 c 128,-1,11
 697 374 697 374 733 341.5 c 128,-1,12
 769 309 769 309 784 266.5 c 128,-1,13
 799 224 799 224 799 180 c 0,0,1
727 180 m 128,-1,15
 727 205 727 205 724.5 229 c 128,-1,16
 722 253 722 253 714.5 282 c 128,-1,17
 707 311 707 311 689.5 328.5 c 128,-1,18
 672 346 672 346 647 346 c 128,-1,19
 622 346 622 346 604.5 328.5 c 128,-1,20
 587 311 587 311 579 282.5 c 128,-1,21
 571 254 571 254 568 229.5 c 128,-1,22
 565 205 565 205 565 180 c 128,-1,23
 565 155 565 155 568 130.5 c 128,-1,24
 571 106 571 106 579 77.5 c 128,-1,25
 587 49 587 49 604.5 31.5 c 128,-1,26
 622 14 622 14 647 14 c 128,-1,27
 672 14 672 14 689.5 31.5 c 128,-1,28
 707 49 707 49 714.5 78 c 128,-1,29
 722 107 722 107 724.5 131 c 128,-1,14
 727 155 727 155 727 180 c 128,-1,15
351 446 m 0,30,31
 351 403 351 403 336 360.5 c 128,-1,32
 321 318 321 318 284.5 285 c 128,-1,33
 248 252 248 252 198 252 c 128,-1,34
 148 252 148 252 111.5 285 c 128,-1,35
 75 318 75 318 60 360.5 c 128,-1,36
 45 403 45 403 45 446 c 0,37,38
 45 490 45 490 60 532.5 c 128,-1,39
 75 575 75 575 111 607.5 c 128,-1,40
 147 640 147 640 198 640 c 128,-1,41
 249 640 249 640 285 607.5 c 128,-1,42
 321 575 321 575 336 532.5 c 128,-1,43
 351 490 351 490 351 446 c 0,30,31
279 446 m 128,-1,45
 279 471 279 471 276.5 495 c 128,-1,46
 274 519 274 519 266.5 548 c 128,-1,47
 259 577 259 577 241.5 594.5 c 128,-1,48
 224 612 224 612 199 612 c 128,-1,49
 174 612 174 612 156.5 594.5 c 128,-1,50
 139 577 139 577 131 548.5 c 128,-1,51
 123 520 123 520 120 495.5 c 128,-1,52
 117 471 117 471 117 446 c 128,-1,53
 117 421 117 421 120 396.5 c 128,-1,54
 123 372 123 372 131 343.5 c 128,-1,55
 139 315 139 315 156.5 297.5 c 128,-1,56
 174 280 174 280 199 280 c 128,-1,57
 224 280 224 280 241.5 297.5 c 128,-1,58
 259 315 259 315 266.5 344 c 128,-1,59
 274 373 274 373 276.5 397 c 128,-1,44
 279 421 279 421 279 446 c 128,-1,45
636 635 m 1,60,-1
 229 -40 l 1,61,62
 217 -40 217 -40 208 -34 c 128,-1,63
 199 -28 199 -28 199 -18 c 1,64,-1
 603 652 l 1,65,66
 604.80952381 652.19047619 604.80952381 652.19047619 606.573696145 652.19047619 c 0,67,68
 623.333333333 652.19047619 623.333333333 652.19047619 636 635 c 1,60,-1
EndSplineSet
Validated: 8912897
EndChar

StartChar: ampersand
Encoding: 38 38 7
Width: 818
Flags: MW
HStem: -14 49<622.5 718.5> -14 59<243 303.5> 381 20G 454.5 23.5 611 29<262 308>
VStem: 63 75<151.5 218> 148 64<508 544.5> 354 63<500 546>
LayerCount: 2
Fore
SplineSet
575 478 m 1,0,-1
 657 478 l 2,1,2
 744 478 744 478 798 482 c 1,3,4
 803 478 803 478 803.5 470 c 128,-1,5
 804 462 804 462 800 458 c 2,6,-1
 756 451 l 2,7,8
 730 447 730 447 707 427.5 c 128,-1,9
 684 408 684 408 673.5 393 c 128,-1,10
 663 378 663 378 641 342 c 0,11,12
 611 293 611 293 525 175 c 1,13,14
 531 166 531 166 558 125 c 0,15,16
 594 71 594 71 629 53 c 128,-1,17
 664 35 664 35 703 35 c 0,18,19
 758 35 758 35 793 71 c 1,20,21
 799 70 799 70 802.5 65 c 128,-1,22
 806 60 806 60 804 53 c 0,23,24
 750 -14 750 -14 645 -14 c 0,25,26
 570 -14 570 -14 538 15 c 0,27,28
 522 28 522 28 477 107 c 1,29,30
 369 -14 369 -14 259 -14 c 0,31,32
 162 -14 162 -14 112.5 41.5 c 128,-1,33
 63 97 63 97 63 166 c 0,34,35
 63 238 63 238 105 288 c 128,-1,36
 147 338 147 338 225 384 c 1,37,38
 148 437 148 437 148 505 c 0,39,40
 148 563 148 563 190 601.5 c 128,-1,41
 232 640 232 640 288 640 c 0,42,43
 345 640 345 640 381 606.5 c 128,-1,44
 417 573 417 573 417 521 c 0,45,46
 417 498 417 498 410 480 c 128,-1,47
 403 462 403 462 383.5 446 c 128,-1,48
 364 430 364 430 354.5 423.5 c 128,-1,49
 345 417 345 417 316 401 c 1,50,51
 415 340 415 340 507 205 c 1,52,53
 526 231 526 231 558.5 285 c 128,-1,54
 591 339 591 339 611 380 c 0,55,56
 633 424 633 424 633 435 c 0,57,58
 633 447 633 447 607 450 c 2,59,-1
 573 454 l 2,60,61
 568 458 568 458 568.5 466 c 128,-1,62
 569 474 569 474 575 478 c 1,0,-1
251 363 m 1,63,64
 207 341 207 341 172.5 296.5 c 128,-1,65
 138 252 138 252 138 196 c 0,66,67
 138 129 138 129 179.5 87 c 128,-1,68
 221 45 221 45 287 45 c 0,69,70
 381 45 381 45 459 137 c 1,71,72
 422 201 422 201 366 262.5 c 128,-1,73
 310 324 310 324 251 363 c 1,63,64
284 611 m 0,74,75
 252 611 252 611 232 586 c 128,-1,76
 212 561 212 561 212 529 c 0,77,78
 212 467 212 467 294 420 c 1,79,80
 354 461 354 461 354 524 c 0,81,82
 354 560 354 560 336 585.5 c 128,-1,83
 318 611 318 611 284 611 c 0,74,75
EndSplineSet
Validated: 1
EndChar

StartChar: quoteright
Encoding: 8217 8217 8
Width: 235
Flags: MW
HStem: 468 232
VStem: 132 48<569.5 594>
LayerCount: 2
Fore
SplineSet
103 700 m 0,0,1
 134 700 134 700 157 671.5 c 128,-1,2
 180 643 180 643 180 604 c 0,3,4
 180 555 180 555 147 519 c 128,-1,5
 114 483 114 483 63 468 c 1,6,7
 47 476 47 476 56 489 c 1,8,9
 132 524 132 524 132 575 c 0,10,11
 132 601 132 601 115.5 615.5 c 128,-1,12
 99 630 99 630 82 631 c 0,13,14
 55 633 55 633 55 659 c 0,15,16
 55 674 55 674 66 687 c 128,-1,17
 77 700 77 700 103 700 c 0,0,1
EndSplineSet
Validated: 1
EndChar

StartChar: parenleft
Encoding: 40 40 9
Width: 320
Flags: MW
HStem: -163 866<286 286>
VStem: 80 66<180 360 180 363.5>
LayerCount: 2
Fore
SplineSet
146 270 m 128,-1,1
 146 14 146 14 300 -148 c 1,2,3
 300 -162 300 -162 286 -163 c 1,4,5
 193 -101 193 -101 136.5 15 c 128,-1,6
 80 131 80 131 80 270 c 128,-1,7
 80 409 80 409 136.5 525 c 128,-1,8
 193 641 193 641 286 703 c 1,9,10
 300 702 300 702 300 688 c 1,11,0
 146 526 146 526 146 270 c 128,-1,1
EndSplineSet
Validated: 1
EndChar

StartChar: parenright
Encoding: 41 41 10
Width: 320
Flags: MW
HStem: -163 866<34 34>
VStem: 174 66<180 360>
LayerCount: 2
Fore
SplineSet
174 270 m 128,-1,1
 174 526 174 526 20 688 c 1,2,3
 20 702 20 702 34 703 c 1,4,5
 127 641 127 641 183.5 525 c 128,-1,6
 240 409 240 409 240 270 c 128,-1,7
 240 131 240 131 183.5 15 c 128,-1,8
 127 -101 127 -101 34 -163 c 1,9,10
 20 -162 20 -162 20 -148 c 1,11,0
 174 14 174 14 174 270 c 128,-1,1
EndSplineSet
Validated: 1
EndChar

StartChar: asterisk
Encoding: 42 42 11
Width: 394
Flags: MW
HStem: 656 20G<186 210 210 210>
VStem: 180.5 34.5
LayerCount: 2
Fore
SplineSet
210 676 m 1,0,-1
 220 546 l 1,1,-1
 345 609 l 1,2,3
 352 608 352 608 355.5 601.5 c 128,-1,4
 359 595 359 595 357 588 c 1,5,-1
 242 508 l 1,6,-1
 356 429 l 1,7,8
 358 422 358 422 354.5 415 c 128,-1,9
 351 408 351 408 344 407 c 1,10,-1
 220 472 l 1,11,-1
 210 342 l 1,12,13
 198 332 198 332 186 342 c 1,14,-1
 175 472 l 1,15,-1
 51 407 l 1,16,17
 44 408 44 408 40.5 415 c 128,-1,18
 37 422 37 422 39 429 c 1,19,-1
 153 508 l 1,20,-1
 38 588 l 1,21,22
 36 595 36 595 39.5 601.5 c 128,-1,23
 43 608 43 608 50 609 c 1,24,-1
 175 546 l 1,25,-1
 186 676 l 1,26,27
 197 685 197 685 210 676 c 1,0,-1
EndSplineSet
Validated: 1
EndChar

StartChar: plus
Encoding: 43 43 12
Width: 500
Flags: MW
HStem: 0 21G<221 280 221 221> 181 49<58 221 58 221 280 443> 374 20G<221 280 280 280>
VStem: 221 59<0 181 230 394>
LayerCount: 2
Fore
SplineSet
280 0 m 1,0,-1
 221 0 l 1,1,-1
 221 181 l 1,2,-1
 58 181 l 1,3,-1
 58 230 l 1,4,-1
 221 230 l 1,5,-1
 221 394 l 1,6,-1
 280 394 l 1,7,-1
 280 230 l 1,8,-1
 443 230 l 1,9,-1
 443 181 l 1,10,-1
 280 181 l 1,11,-1
 280 0 l 1,0,-1
EndSplineSet
Validated: 1
EndChar

StartChar: comma
Encoding: 44 44 13
Width: 250
Flags: MW
HStem: -121 243
VStem: 138 54<-15.5 11>
LayerCount: 2
Fore
SplineSet
113 122 m 0,0,1
 143 122 143 122 167.5 96 c 128,-1,2
 192 70 192 70 192 24 c 0,3,4
 192 -32 192 -32 156 -68 c 128,-1,5
 120 -104 120 -104 62 -121 c 0,6,7
 55 -119 55 -119 53 -110 c 128,-1,8
 51 -101 51 -101 56 -97 c 0,9,10
 138 -71 138 -71 138 -10 c 0,11,12
 138 2 138 2 133 11.5 c 128,-1,13
 128 21 128 21 120 27 c 128,-1,14
 112 33 112 33 105 37 c 128,-1,15
 98 41 98 41 90 44 c 128,-1,16
 82 47 82 47 81 48 c 0,17,18
 64 57 64 57 64 77 c 0,19,20
 64 95 64 95 77 108.5 c 128,-1,21
 90 122 90 122 113 122 c 0,0,1
EndSplineSet
Validated: 1
EndChar

StartChar: hyphen
Encoding: 173 45 14
AltUni2: 0000ad.ffffffff.0
Width: 320
Flags: MW
HStem: 168 79
VStem: 32 256<195 221.5>
LayerCount: 2
Fore
SplineSet
40 225 m 1,0,-1
 273 247 l 1,1,2
 288 237 288 237 288 215 c 0,3,4
 288 200 288 200 280 190 c 1,5,-1
 47 168 l 1,6,7
 32 180 32 180 32 200 c 0,8,9
 32 215 32 215 40 225 c 1,0,-1
EndSplineSet
Validated: 1
EndChar

StartChar: period
Encoding: 46 46 15
Width: 250
Flags: MW
HStem: -14 114<110.5 142>
VStem: 69 112<25 57 25 58>
LayerCount: 2
Fore
SplineSet
125 -14 m 0,0,1
 102 -14 102 -14 85.5 1 c 128,-1,2
 69 16 69 16 69 41 c 128,-1,3
 69 66 69 66 85 83 c 128,-1,4
 101 100 101 100 125 100 c 0,5,6
 150 100 150 100 165.5 83 c 128,-1,7
 181 66 181 66 181 41 c 0,8,9
 181 17 181 17 165.5 1.5 c 128,-1,10
 150 -14 150 -14 125 -14 c 0,0,1
EndSplineSet
Validated: 1
EndChar

StartChar: slash
Encoding: 47 47 16
Width: 327
Flags: MW
HStem: -16 21G<30 88 30 30>
VStem: 30 267
LayerCount: 2
Fore
SplineSet
297 686 m 1,0,-1
 88 -16 l 1,1,-1
 30 -16 l 1,2,-1
 239 686 l 1,3,-1
 297 686 l 1,0,-1
EndSplineSet
Validated: 1
EndChar

StartChar: zero
Encoding: 48 48 17
Width: 500
Flags: MW
HStem: -14 30<195 305 195 323> 610 30<195 305>
VStem: 43 89<266 360 266 388.5> 368 89<266 360>
LayerCount: 2
Fore
SplineSet
250 640 m 128,-1,1
 319 640 319 640 367.5 588.5 c 128,-1,2
 416 537 416 537 436.5 465.5 c 128,-1,3
 457 394 457 394 457 313 c 0,4,5
 457 252 457 252 445 195.5 c 128,-1,6
 433 139 433 139 409 91 c 128,-1,7
 385 43 385 43 344 14.5 c 128,-1,8
 303 -14 303 -14 250 -14 c 128,-1,9
 197 -14 197 -14 156 14.5 c 128,-1,10
 115 43 115 43 91 91 c 128,-1,11
 67 139 67 139 55 195.5 c 128,-1,12
 43 252 43 252 43 313 c 0,13,14
 43 394 43 394 63.5 465.5 c 128,-1,15
 84 537 84 537 132.5 588.5 c 128,-1,0
 181 640 181 640 250 640 c 128,-1,1
250 610 m 128,-1,17
 132 610 132 610 132 313 c 128,-1,18
 132 16 132 16 250 16 c 128,-1,19
 368 16 368 16 368 313 c 128,-1,16
 368 610 368 610 250 610 c 128,-1,17
EndSplineSet
Validated: 1
EndChar

StartChar: one
Encoding: 49 49 18
Width: 500
Flags: MW
HStem: -3 26.5 615 20G 620 20G<288 290>
VStem: 220 74<122 462 462 496>
LayerCount: 2
Fore
SplineSet
220 122 m 2,0,-1
 220 462 l 2,1,2
 220 517 220 517 212 535 c 128,-1,3
 204 553 204 553 172 556 c 2,4,-1
 124 560 l 2,5,6
 118 563 118 563 117.5 571 c 128,-1,7
 117 579 117 579 123 582 c 0,8,9
 228 601 228 601 288 640 c 0,10,11
 295 640 295 640 298 635 c 0,12,13
 294 599 294 599 294 510 c 2,14,-1
 294 122 l 2,15,16
 294 61 294 61 300.5 44 c 128,-1,17
 307 27 307 27 337 25 c 2,18,-1
 379 22 l 2,19,20
 384 18 384 18 383 8.5 c 128,-1,21
 382 -1 382 -1 377 -3 c 0,22,23
 318 0 318 0 258 0 c 0,24,25
 196 0 196 0 138 -3 c 0,26,27
 133 -1 133 -1 132 8.5 c 128,-1,28
 131 18 131 18 136 22 c 2,29,-1
 177 25 l 2,30,31
 207 27 207 27 213.5 44 c 128,-1,32
 220 61 220 61 220 122 c 2,0,-1
EndSplineSet
Validated: 1
EndChar

StartChar: two
Encoding: 50 50 19
Width: 500
Flags: MW
HStem: -3 21G 0 62<116 316 192 289> 586 54<210 248.5>
VStem: 333 87<446 485.5>
LayerCount: 2
Fore
SplineSet
192 62 m 2,0,-1
 316 62 l 2,1,2
 385 62 385 62 410 84 c 0,3,4
 429 101 429 101 442 125 c 1,5,6
 456 131 456 131 464 119 c 1,7,8
 440 26 440 26 418 -3 c 1,9,10
 378 -1 378 -1 355 -1 c 0,11,12
 334 0 334 0 289 0 c 2,13,-1
 144 0 l 2,14,15
 66 0 66 0 33 -3 c 0,16,17
 26 0 26 0 26 10 c 0,18,19
 26 14 26 14 37 21 c 0,20,21
 70 42 70 42 100 71 c 128,-1,22
 130 100 130 100 190 165 c 0,23,24
 333 319 333 319 333 440 c 0,25,26
 333 509 333 509 300.5 547.5 c 128,-1,27
 268 586 268 586 208 586 c 0,28,29
 124 586 124 586 78 486 c 1,30,31
 71 482 71 482 62.5 486 c 128,-1,32
 54 490 54 490 54 499 c 0,33,34
 78 564 78 564 132.5 602 c 128,-1,35
 187 640 187 640 255 640 c 0,36,37
 330 640 330 640 375 595 c 128,-1,38
 420 550 420 550 420 477 c 0,39,40
 420 380 420 380 313 257 c 2,41,-1
 252 187 l 2,42,43
 161 80 161 80 161 71 c 128,-1,44
 161 62 161 62 192 62 c 2,0,-1
EndSplineSet
Validated: 1
EndChar

StartChar: three
Encoding: 51 51 20
Width: 500
Flags: MW
HStem: -56 35<117.5 213.5> 593 47<218.5 254.5>
VStem: 314 82<504.5 533.5> 360 86<192 219>
LayerCount: 2
Fore
SplineSet
140 -56 m 4,0,1
 100 -56 100 -56 70.5 -41 c 132,-1,2
 41 -26 41 -26 41 6 c 4,3,4
 41 22 41 22 52 33.5 c 132,-1,5
 63 45 63 45 80 45 c 4,6,7
 103 45 103 45 128 9 c 4,8,9
 149 -21 149 -21 181 -21 c 4,10,11
 236 -21 236 -21 298 38.5 c 132,-1,12
 360 98 360 98 360 175 c 4,13,14
 360 245 360 245 326.5 291.5 c 132,-1,15
 293 338 293 338 231 338 c 4,16,17
 168 338 168 338 123 289 c 5,18,19
 110 291 110 291 103.5 300.5 c 132,-1,20
 97 310 97 310 101 324 c 5,21,22
 220 377 220 377 261 411 c 4,23,24
 314 454 314 454 314 507 c 4,25,26
 314 546 314 546 290.5 569.5 c 132,-1,27
 267 593 267 593 232 593 c 4,28,29
 150 593 150 593 97 505 c 5,30,31
 89 503 89 503 82.5 507.5 c 132,-1,32
 76 512 76 512 76 519 c 4,33,34
 99 572 99 572 149.5 606 c 132,-1,35
 200 640 200 640 257 640 c 4,36,37
 319 640 319 640 357.5 609 c 132,-1,38
 396 578 396 578 396 525 c 4,39,40
 396 490 396 490 374 460 c 132,-1,41
 352 430 352 430 289 397 c 5,42,43
 282 384 282 384 301 382 c 4,44,45
 362 377 362 377 404 336.5 c 132,-1,46
 446 296 446 296 446 228 c 4,47,48
 446 114 446 114 349 30 c 4,49,50
 298 -14 298 -14 241 -35 c 132,-1,51
 184 -56 184 -56 140 -56 c 4,0,1
EndSplineSet
Validated: 1
EndChar

StartChar: four
Encoding: 52 52 21
Width: 500
Flags: MW
HStem: -3 26.5 189 42<119 273 396 406 406 460>
VStem: 20 67 302 74<122 164 164 167 82.5 176 257 441 441 444.5>
LayerCount: 2
Fore
SplineSet
273 189 m 2,0,-1
 34 189 l 2,1,2
 20 189 20 189 20 206 c 0,3,4
 20 218 20 218 38 244 c 2,5,-1
 359 692 l 2,6,7
 370 706 370 706 382 706 c 2,8,-1
 399 706 l 2,9,10
 414 706 414 706 414 698 c 0,11,12
 414 694 414 694 409 687 c 2,13,-1
 91 247 l 2,14,15
 86 235 86 235 91 233 c 128,-1,16
 96 231 96 231 119 231 c 2,17,-1
 274 231 l 2,18,19
 292 231 292 231 297 235.5 c 128,-1,20
 302 240 302 240 302 257 c 2,21,-1
 302 441 l 2,22,23
 302 455 302 455 311 461 c 0,24,25
 334 476 334 476 362 478 c 0,26,27
 372 479 372 479 374 472 c 128,-1,28
 376 465 376 465 376 447 c 2,29,-1
 376 254 l 2,30,31
 376 240 376 240 379.5 235.5 c 128,-1,32
 383 231 383 231 396 231 c 2,33,-1
 460 231 l 1,34,35
 467 226 467 226 467 211 c 128,-1,36
 467 196 467 196 460 189 c 1,37,-1
 406 189 l 2,38,39
 386 189 386 189 381 185.5 c 128,-1,40
 376 182 376 182 376 167 c 2,41,-1
 376 122 l 2,42,43
 376 61 376 61 382.5 45 c 128,-1,44
 389 29 389 29 419 25 c 2,45,-1
 445 22 l 2,46,47
 450 18 450 18 449 8.5 c 128,-1,48
 448 -1 448 -1 443 -3 c 0,49,50
 389 0 389 0 339 0 c 0,51,52
 280 0 280 0 214 -3 c 0,53,54
 209 -1 209 -1 208 8.5 c 128,-1,55
 207 18 207 18 212 22 c 2,56,-1
 257 25 l 2,57,58
 287 27 287 27 294.5 44.5 c 128,-1,59
 302 62 302 62 302 122 c 2,60,-1
 302 164 l 2,61,62
 302 182 302 182 297.5 185.5 c 128,-1,63
 293 189 293 189 273 189 c 2,0,-1
EndSplineSet
Validated: 1
EndChar

StartChar: five
Encoding: 53 53 22
Width: 500
Flags: MW
HStem: -68 31 384 66
VStem: 74 56 356 74<143.5 275>
LayerCount: 2
Fore
SplineSet
78 415 m 2,0,-1
 131 593 l 2,1,2
 139 618 139 618 157 620 c 2,3,-1
 398 654 l 2,4,5
 402 655 402 655 404.5 652 c 128,-1,6
 407 649 407 649 407 645 c 0,7,8
 396 609 396 609 371 583 c 1,9,-1
 182 556 l 2,10,11
 165 554 165 554 159 549 c 128,-1,12
 153 544 153 544 148 529 c 2,13,-1
 130 469 l 2,14,15
 127 460 127 460 130 456.5 c 128,-1,16
 133 453 133 453 144 451 c 2,17,-1
 165 449 l 2,18,19
 216 444 216 444 260 430.5 c 128,-1,20
 304 417 304 417 344 392.5 c 128,-1,21
 384 368 384 368 407 326 c 128,-1,22
 430 284 430 284 430 230 c 0,23,24
 430 148 430 148 373 78.5 c 128,-1,25
 316 9 316 9 235 -28 c 128,-1,26
 154 -65 154 -65 72 -68 c 0,27,28
 64 -65 64 -65 63 -53.5 c 128,-1,29
 62 -42 62 -42 69 -37 c 1,30,31
 189 -30 189 -30 272.5 37 c 128,-1,32
 356 104 356 104 356 204 c 0,33,34
 356 255 356 255 331.5 291.5 c 128,-1,35
 307 328 307 328 265 347 c 128,-1,36
 223 366 223 366 179.5 374.5 c 128,-1,37
 136 383 136 383 87 384 c 0,38,39
 76 384 76 384 74 391 c 128,-1,40
 72 398 72 398 78 415 c 2,0,-1
EndSplineSet
Validated: 1
EndChar

StartChar: six
Encoding: 54 54 23
Width: 500
Flags: MW
HStem: -14 30<218.5 305.5 218.5 317.5> 336 38<287.5 300.5>
VStem: 40 89<181 278.5> 381 85<136.5 211.5>
LayerCount: 2
Fore
SplineSet
40 236 m 0,0,1
 40 312 40 312 71 395 c 128,-1,2
 102 478 102 478 174 549 c 0,3,4
 297 669 297 669 461 691 c 0,5,6
 466 689 466 689 467.5 681.5 c 128,-1,7
 469 674 469 674 465 670 c 0,8,9
 419 654 419 654 392.5 643.5 c 128,-1,10
 366 633 366 633 321 605.5 c 128,-1,11
 276 578 276 578 243 542 c 0,12,13
 129 421 129 421 129 239 c 0,14,15
 129 144 129 144 163.5 80 c 128,-1,16
 198 16 198 16 268 16 c 0,17,18
 322 16 322 16 351.5 59 c 128,-1,19
 381 102 381 102 381 169 c 0,20,21
 381 239 381 239 349.5 287.5 c 128,-1,22
 318 336 318 336 258 336 c 0,23,24
 239 336 239 336 212 328 c 1,25,26
 202 333 202 333 209 344 c 1,27,28
 257 374 257 374 307 374 c 0,29,30
 378 374 378 374 422 323.5 c 128,-1,31
 466 273 466 273 466 195 c 0,32,33
 466 106 466 106 407 46 c 128,-1,34
 348 -14 348 -14 255 -14 c 0,35,36
 150 -14 150 -14 95 57 c 128,-1,37
 40 128 40 128 40 236 c 0,0,1
EndSplineSet
Validated: 1
EndChar

StartChar: seven
Encoding: 55 55 24
Width: 500
Flags: MW
HStem: 564 62<129 338 169 338 338 357> 609 20G
VStem: 29 450
LayerCount: 2
Fore
SplineSet
357 564 m 2,0,-1
 157 564 l 2,1,2
 111 564 111 564 90.5 555.5 c 128,-1,3
 70 547 70 547 50 513 c 1,4,5
 35 507 35 507 29 521 c 1,6,7
 52 584 52 584 63 629 c 1,8,9
 79 627 79 627 101 627 c 0,10,11
 119 626 119 626 169 626 c 2,12,-1
 338 626 l 2,13,14
 460 626 460 626 472 629 c 0,15,16
 479 627 479 627 479 620 c 0,17,18
 439 559 439 559 385 449 c 2,19,-1
 130 -64 l 1,20,21
 118 -66 118 -66 108 -60.5 c 128,-1,22
 98 -55 98 -55 96 -45 c 1,23,-1
 379 527 l 2,24,25
 390 550 390 550 385.5 557 c 128,-1,26
 381 564 381 564 357 564 c 2,0,-1
EndSplineSet
Validated: 1
EndChar

StartChar: eight
Encoding: 56 56 25
Width: 500
Flags: MW
HStem: -14 30<216 288.5 216 303.5> 610 30<221.5 288>
VStem: 58 72<115 178.5 115 190.5> 79 72 362 67<461.5 522.5> 369 74<102 176.5>
LayerCount: 2
Fore
SplineSet
263 640 m 0,0,1
 334 640 334 640 381.5 601.5 c 128,-1,2
 429 563 429 563 429 494 c 0,3,4
 429 465 429 465 418.5 440.5 c 128,-1,5
 408 416 408 416 387.5 397 c 128,-1,6
 367 378 367 378 351.5 367.5 c 128,-1,7
 336 357 336 357 311 342 c 1,8,9
 372 307 372 307 407.5 263.5 c 128,-1,10
 443 220 443 220 443 154 c 0,11,12
 443 77 443 77 388 31.5 c 128,-1,13
 333 -14 333 -14 247 -14 c 0,14,15
 169 -14 169 -14 113.5 26 c 128,-1,16
 58 66 58 66 58 148 c 0,17,18
 58 256 58 256 193 321 c 1,19,20
 80 383 80 383 79 478 c 0,21,22
 78 552 78 552 131 596 c 128,-1,23
 184 640 184 640 263 640 c 0,0,1
253 16 m 0,24,25
 306 16 306 16 337.5 49 c 128,-1,26
 369 82 369 82 369 137 c 0,27,28
 369 237 369 237 221 304 c 1,29,30
 174 280 174 280 152 238.5 c 128,-1,31
 130 197 130 197 130 152 c 0,32,33
 130 95 130 95 164.5 55.5 c 128,-1,34
 199 16 199 16 253 16 c 0,24,25
256 610 m 0,35,36
 207 610 207 610 179 577.5 c 128,-1,37
 151 545 151 545 151 499 c 0,38,39
 151 452 151 452 187 419 c 128,-1,40
 223 386 223 386 282 357 c 1,41,42
 362 407 362 407 362 492 c 0,43,44
 362 540 362 540 332 575 c 128,-1,45
 302 610 302 610 256 610 c 0,35,36
EndSplineSet
Validated: 33
EndChar

StartChar: nine
Encoding: 57 57 26
Width: 500
Flags: MW
HStem: 267 37<204 218.5> 610 30<207 287.5>
VStem: 47 80<433 496> 362 89<330.5 438.5>
LayerCount: 2
Fore
SplineSet
239 610 m 0,0,1
 189 610 189 610 158 573.5 c 128,-1,2
 127 537 127 537 127 472 c 128,-1,3
 127 407 127 407 158 355.5 c 128,-1,4
 189 304 189 304 242 304 c 0,5,6
 270 304 270 304 286 308 c 1,7,8
 293 304 293 304 289 296 c 0,9,10
 255 267 255 267 199 267 c 0,11,12
 136 267 136 267 91.5 313.5 c 128,-1,13
 47 360 47 360 47 436 c 0,14,15
 47 525 47 525 106 582.5 c 128,-1,16
 165 640 165 640 252 640 c 0,17,18
 344 640 344 640 397.5 569 c 128,-1,19
 451 498 451 498 451 385 c 0,20,21
 451 298 451 298 414 209 c 128,-1,22
 377 120 377 120 304 55 c 0,23,24
 253 9 253 9 188 -20.5 c 128,-1,25
 123 -50 123 -50 66 -60 c 0,26,27
 60 -58 60 -58 58 -49.5 c 128,-1,28
 56 -41 56 -41 60 -37 c 0,29,30
 149 -10 149 -10 208 33 c 0,31,32
 282 88 282 88 322 173.5 c 128,-1,33
 362 259 362 259 362 393 c 0,34,35
 362 431 362 431 356 466 c 128,-1,36
 350 501 350 501 337 535 c 128,-1,37
 324 569 324 569 298.5 589.5 c 128,-1,38
 273 610 273 610 239 610 c 0,0,1
EndSplineSet
Validated: 1
EndChar

StartChar: colon
Encoding: 58 58 27
Width: 250
Flags: MW
HStem: -14 114<110.5 142> 280 114<110.5 142>
VStem: 69 112<25 57 25 58 319 351>
LayerCount: 2
Fore
SplineSet
125 280 m 0,0,1
 102 280 102 280 85.5 295 c 128,-1,2
 69 310 69 310 69 335 c 128,-1,3
 69 360 69 360 85 377 c 128,-1,4
 101 394 101 394 125 394 c 0,5,6
 150 394 150 394 165.5 377 c 128,-1,7
 181 360 181 360 181 335 c 0,8,9
 181 311 181 311 165.5 295.5 c 128,-1,10
 150 280 150 280 125 280 c 0,0,1
125 -14 m 0,11,12
 102 -14 102 -14 85.5 1 c 128,-1,13
 69 16 69 16 69 41 c 128,-1,14
 69 66 69 66 85 83 c 128,-1,15
 101 100 101 100 125 100 c 0,16,17
 150 100 150 100 165.5 83 c 128,-1,18
 181 66 181 66 181 41 c 0,19,20
 181 17 181 17 165.5 1.5 c 128,-1,21
 150 -14 150 -14 125 -14 c 0,11,12
EndSplineSet
Validated: 1
EndChar

StartChar: semicolon
Encoding: 59 59 28
Width: 250
Flags: MW
HStem: 280 114<110.5 142>
VStem: 69 112<319 351 319 352> 138 54<-15.5 11>
LayerCount: 2
Fore
SplineSet
113 122 m 0,0,1
 143 122 143 122 167.5 96 c 128,-1,2
 192 70 192 70 192 24 c 0,3,4
 192 -32 192 -32 156 -68 c 128,-1,5
 120 -104 120 -104 62 -121 c 0,6,7
 55 -119 55 -119 53 -110 c 128,-1,8
 51 -101 51 -101 56 -97 c 0,9,10
 138 -71 138 -71 138 -10 c 0,11,12
 138 2 138 2 133 11.5 c 128,-1,13
 128 21 128 21 120 27 c 128,-1,14
 112 33 112 33 105 37 c 128,-1,15
 98 41 98 41 90 44 c 128,-1,16
 82 47 82 47 81 48 c 0,17,18
 64 57 64 57 64 77 c 0,19,20
 64 95 64 95 77 108.5 c 128,-1,21
 90 122 90 122 113 122 c 0,0,1
125 280 m 0,22,23
 102 280 102 280 85.5 295 c 128,-1,24
 69 310 69 310 69 335 c 128,-1,25
 69 360 69 360 85 377 c 128,-1,26
 101 394 101 394 125 394 c 0,27,28
 150 394 150 394 165.5 377 c 128,-1,29
 181 360 181 360 181 335 c 0,30,31
 181 311 181 311 165.5 295.5 c 128,-1,32
 150 280 150 280 125 280 c 0,22,23
EndSplineSet
Validated: 1
EndChar

StartChar: less
Encoding: 60 60 29
Width: 500
Flags: MW
HStem: -1 21G<445 445>
VStem: 56 72<205 207 205 228 205 228> 56 389<-1 228 -1 228>
LayerCount: 2
Fore
SplineSet
56 228 m 1,0,-1
 445 413 l 1,1,-1
 445 355 l 1,2,-1
 128 207 l 1,3,-1
 128 205 l 1,4,-1
 445 56 l 1,5,-1
 445 -1 l 1,6,-1
 56 183 l 1,7,-1
 56 228 l 1,0,-1
EndSplineSet
Validated: 1
EndChar

StartChar: equal
Encoding: 61 61 30
Width: 500
Flags: MW
HStem: 106 49<58 443 58 443> 256 49<58 443 58 443>
VStem: 58 385<106 155 106 155 256 305 106 305>
LayerCount: 2
Fore
SplineSet
443 305 m 1,0,-1
 443 256 l 1,1,-1
 58 256 l 1,2,-1
 58 305 l 1,3,-1
 443 305 l 1,0,-1
443 155 m 1,4,-1
 443 106 l 1,5,-1
 58 106 l 1,6,-1
 58 155 l 1,7,-1
 443 155 l 1,4,-1
EndSplineSet
Validated: 1
EndChar

StartChar: greater
Encoding: 62 62 31
Width: 500
Flags: MW
HStem: -1 21G<55 55>
VStem: 55 389<-1 228 56 228 183 413 183 413> 372 72<205 207 207 207>
LayerCount: 2
Fore
SplineSet
55 413 m 1,0,-1
 444 228 l 1,1,-1
 444 183 l 1,2,-1
 55 -1 l 1,3,-1
 55 56 l 1,4,-1
 372 205 l 1,5,-1
 372 207 l 1,6,-1
 55 355 l 1,7,-1
 55 413 l 1,0,-1
EndSplineSet
Validated: 1
EndChar

StartChar: question
Encoding: 63 63 32
Width: 321
Flags: MW
HStem: -14 114<111.5 143> 566 80<92.5 123>
VStem: 70 112<25 57 25 58> 77 47<258 322.5> 235 41<460 483.5>
LayerCount: 2
Fore
SplineSet
104 646 m 0,0,1
 166 646 166 646 221 583 c 128,-1,2
 276 520 276 520 276 442 c 0,3,4
 276 405 276 405 264 382.5 c 128,-1,5
 252 360 252 360 238 352 c 2,6,-1
 159 310 l 2,7,8
 124 292 124 292 124 266 c 0,9,10
 124 248 124 248 134 208 c 1,11,12
 131 202 131 202 124 200.5 c 128,-1,13
 117 199 117 199 113 203 c 0,14,15
 77 262 77 262 77 302 c 0,16,17
 77 330 77 330 90 344.5 c 128,-1,18
 103 359 103 359 131 374 c 2,19,-1
 180 400 l 2,20,21
 235 429 235 429 235 473 c 0,22,23
 235 511 235 511 213 534 c 0,24,25
 180 566 180 566 97 566 c 0,26,27
 88 566 88 566 76 578.5 c 128,-1,28
 64 591 64 591 64 608 c 0,29,30
 64 624 64 624 74.5 635 c 128,-1,31
 85 646 85 646 104 646 c 0,0,1
126 -14 m 0,32,33
 103 -14 103 -14 86.5 1 c 128,-1,34
 70 16 70 16 70 41 c 128,-1,35
 70 66 70 66 86 83 c 128,-1,36
 102 100 102 100 126 100 c 0,37,38
 151 100 151 100 166.5 83 c 128,-1,39
 182 66 182 66 182 41 c 0,40,41
 182 17 182 17 166.5 1.5 c 128,-1,42
 151 -14 151 -14 126 -14 c 0,32,33
EndSplineSet
Validated: 1
EndChar

StartChar: at
Encoding: 64 64 33
Width: 765
Flags: MW
HStem: -16 35<299.5 410> 175 33 175 46<232 299> 465 35<441.5 463> 642 34<337 504.5>
VStem: 45 69<235 386 235 410.5> 205 79<208.5 261> 404 66 692 43<352 482.5>
LayerCount: 2
Fore
SplineSet
452 465 m 0,0,1
 428 465 428 465 389 435 c 0,2,3
 348 401 348 401 316 338.5 c 128,-1,4
 284 276 284 276 284 234 c 0,5,6
 284 221 284 221 296 221 c 0,7,8
 318 221 318 221 376 273 c 0,9,10
 410 303 410 303 447.5 356 c 128,-1,11
 485 409 485 409 495 436 c 1,12,13
 485 465 485 465 452 465 c 0,0,1
518 478 m 1,14,-1
 543 529 l 1,15,16
 554 533 554 533 569 529 c 128,-1,17
 584 525 584 525 591 517 c 1,18,19
 492 290 492 290 474 240 c 0,20,21
 467 223 467 223 472.5 215 c 128,-1,22
 478 207 478 207 497 208 c 0,23,24
 580 211 580 211 636 266 c 128,-1,25
 692 321 692 321 692 412 c 0,26,27
 692 516 692 516 618 579 c 128,-1,28
 544 642 544 642 431 642 c 0,29,30
 288 642 288 642 201 540 c 128,-1,31
 114 438 114 438 114 294 c 0,32,33
 114 246 114 246 129 200.5 c 128,-1,34
 144 155 144 155 176.5 113 c 128,-1,35
 209 71 209 71 269.5 45 c 128,-1,36
 330 19 330 19 412 19 c 0,37,38
 484 19 484 19 567 54 c 1,39,40
 580 48 580 48 575 35 c 1,41,42
 494 -16 494 -16 382 -16 c 0,43,44
 318 -16 318 -16 259.5 3 c 128,-1,45
 201 22 201 22 152 59 c 128,-1,46
 103 96 103 96 74 156.5 c 128,-1,47
 45 217 45 217 45 293 c 0,48,49
 45 463 45 463 162 569.5 c 128,-1,50
 279 676 279 676 440 676 c 0,51,52
 577 676 577 676 656 599.5 c 128,-1,53
 735 523 735 523 735 416 c 0,54,55
 735 316 735 316 664 245.5 c 128,-1,56
 593 175 593 175 476 175 c 0,57,58
 404 175 404 175 404 197 c 0,59,60
 404 207 404 207 412 228 c 2,61,-1
 437 291 l 1,62,-1
 435 292 l 1,63,64
 390 245 390 245 333.5 210 c 128,-1,65
 277 175 277 175 246 175 c 0,66,67
 226 175 226 175 215.5 188 c 128,-1,68
 205 201 205 201 205 220 c 0,69,70
 205 240 205 240 223.5 283.5 c 128,-1,71
 242 327 242 327 281 374 c 0,72,73
 384 500 384 500 481 500 c 0,74,75
 492 500 492 500 503 494 c 128,-1,76
 514 488 514 488 518 478 c 1,14,-1
EndSplineSet
Validated: 1
EndChar

StartChar: A
Encoding: 65 65 34
Width: 623
Flags: MW
HStem: -3 26.5 257 40<230 353 353 366> 656 20G<330 333>
VStem: -25 668
LayerCount: 2
Fore
SplineSet
451 96 m 2,0,-1
 407 232 l 2,1,2
 402 249 402 249 395 253 c 128,-1,3
 388 257 388 257 366 257 c 2,4,-1
 215 257 l 2,5,6
 196 257 196 257 189 253 c 128,-1,7
 182 249 182 249 177 233 c 2,8,-1
 142 128 l 2,9,10
 120 62 120 62 120 45 c 0,11,12
 120 27 120 27 149 25 c 2,13,-1
 182 22 l 2,14,15
 187 18 187 18 187 9 c 128,-1,16
 187 -0 187 -0 180 -3 c 0,17,18
 166 -2 166 -2 76 0 c 0,19,20
 61 0 61 0 -20 -3 c 0,21,22
 -25 0 -25 0 -25.5 9 c 128,-1,23
 -26 18 -26 18 -22 22 c 2,24,-1
 11 25 l 2,25,26
 53 29 53 29 71 74 c 0,27,28
 76 88 76 88 91 123.5 c 128,-1,29
 106 159 106 159 123 203 c 128,-1,30
 140 247 140 247 159 297 c 2,31,-1
 261 567 l 2,32,33
 281 620 281 620 278 638 c 1,34,35
 304 646 304 646 330 676 c 1,36,37
 342 676 342 676 345 667 c 0,38,39
 356 630 356 630 389 533 c 2,40,-1
 526 131 l 2,41,42
 548 67 548 67 563.5 48 c 128,-1,43
 579 29 579 29 611 25 c 2,44,-1
 638 22 l 2,45,46
 643 18 643 18 642.5 9 c 128,-1,47
 642 0 642 0 638 -3 c 0,48,49
 576 0 576 0 517 0 c 0,50,51
 489 0 489 0 402 -3 c 0,52,53
 396 -0 396 -0 395.5 9 c 128,-1,54
 395 18 395 18 400 22 c 2,55,-1
 429 25 l 2,56,57
 464 28 464 28 464 43 c 0,58,59
 464 57 464 57 451 96 c 2,0,-1
272 495 m 2,60,-1
 209 321 l 2,61,62
 203 304 203 304 206 300.5 c 128,-1,63
 209 297 209 297 230 297 c 2,64,-1
 353 297 l 2,65,66
 375 297 375 297 378.5 302.5 c 128,-1,67
 382 308 382 308 375 328 c 2,68,-1
 321 491 l 2,69,70
 304 542 304 542 298 554 c 1,71,-1
 296 554 l 1,72,73
 290 544 290 544 272 495 c 2,60,-1
EndSplineSet
Validated: 33
EndChar

StartChar: B
Encoding: 66 66 35
Width: 605
Flags: MW
HStem: -3 26.5 -3 31<295 354.5 295 382> 339 30 632 31<259 294.5 216.5 308>
VStem: 128 82<150 165 165 313 383 397 397 530 530 567> 419 88<474 542 474 546> 467 91<133 207.5>
LayerCount: 2
Fore
SplineSet
128 150 m 2,0,-1
 128 530 l 2,1,2
 128 588 128 588 120 605.5 c 128,-1,3
 112 623 112 623 79 627 c 2,4,-1
 47 630 l 1,5,6
 41 635 41 635 41.5 643.5 c 128,-1,7
 42 652 42 652 48 655 c 0,8,9
 134 663 134 663 263 663 c 0,10,11
 376 663 376 663 431 635 c 0,12,13
 507 598 507 598 507 510 c 0,14,15
 507 459 507 459 481 427.5 c 128,-1,16
 455 396 455 396 405 373 c 1,17,18
 405 361 405 361 424 358 c 0,19,20
 474 349 474 349 516 306 c 128,-1,21
 558 263 558 263 558 191 c 0,22,23
 558 101 558 101 490.5 49 c 128,-1,24
 423 -3 423 -3 292 -3 c 0,25,26
 279 -3 279 -3 237 -1.5 c 128,-1,27
 195 0 195 0 172 0 c 0,28,29
 168 0 168 0 57 -3 c 0,30,31
 52 -1 52 -1 51.5 8 c 128,-1,32
 51 17 51 17 55 22 c 1,33,-1
 73 25 l 2,34,35
 112 31 112 31 120 50 c 128,-1,36
 128 69 128 69 128 150 c 2,0,-1
210 313 m 2,37,-1
 210 165 l 2,38,39
 210 80 210 80 231 56 c 0,40,41
 254 28 254 28 310 28 c 0,42,43
 381 28 381 28 424 62.5 c 128,-1,44
 467 97 467 97 467 168 c 128,-1,45
 467 239 467 239 421.5 289 c 128,-1,46
 376 339 376 339 268 339 c 0,47,48
 229 339 229 339 219.5 334 c 128,-1,49
 210 329 210 329 210 313 c 2,37,-1
210 600 m 2,50,-1
 210 397 l 2,51,52
 210 376 210 376 217 372 c 128,-1,53
 224 368 224 368 262 369 c 0,54,55
 342 372 342 372 380.5 400.5 c 128,-1,56
 419 429 419 429 419 497 c 0,57,58
 419 566 419 566 376 599 c 128,-1,59
 333 632 333 632 270 632 c 0,60,61
 237 632 237 632 224 626 c 0,62,63
 210 622 210 622 210 600 c 2,50,-1
EndSplineSet
Validated: 33
EndChar

StartChar: C
Encoding: 67 67 36
Width: 696
Flags: MW
HStem: -16 31<390 467> 495 153 645 31<388 467 388 499.5>
VStem: 44 100<261.5 381.5>
LayerCount: 2
Fore
SplineSet
44 326 m 4,0,1
 44 407 44 407 78 476.5 c 132,-1,2
 112 546 112 546 170 591 c 4,3,4
 279 676 279 676 440 676 c 4,5,6
 530 676 530 676 617 652 c 4,7,8
 637 647 637 647 645 648 c 5,9,10
 648 588 648 588 659 501 c 5,11,12
 655 496 655 496 646 495 c 132,-1,13
 637 494 637 494 632 499 c 4,14,15
 600 645 600 645 427 645 c 4,16,17
 305 645 305 645 224.5 567 c 132,-1,18
 144 489 144 489 144 341 c 4,19,20
 144 189 144 189 228.5 102 c 132,-1,21
 313 15 313 15 441 15 c 4,22,23
 527 15 527 15 577.5 58 c 132,-1,24
 628 101 628 101 650 158 c 4,25,26
 655 162 655 162 664 160.5 c 132,-1,27
 673 159 673 159 676 154 c 4,28,29
 671 117 671 117 655.5 74.5 c 132,-1,30
 640 32 640 32 628 17 c 5,31,32
 614 15 614 15 593 7 c 4,33,34
 573 -0 573 -0 525.5 -8 c 132,-1,35
 478 -16 478 -16 435 -16 c 4,36,37
 286 -16 286 -16 186 51 c 4,38,39
 44 149 44 149 44 326 c 4,0,1
EndSplineSet
Validated: 1
EndChar

StartChar: D
Encoding: 68 68 37
Width: 780
Flags: MW
HStem: -8 31<321.5 373.5> -3 21G 0 23.5 632 31<289.5 353 268.5 450>
VStem: 128 82<150 173 173 530 530 542> 634 100<274.5 391>
LayerCount: 2
Fore
SplineSet
128 150 m 6,0,-1
 128 530 l 6,1,2
 128 585 128 585 119.5 604 c 132,-1,3
 111 623 111 623 81 627 c 6,4,-1
 59 630 l 6,5,6
 53 634 53 634 53 643 c 132,-1,7
 53 652 53 652 60 655 c 4,8,9
 196 663 196 663 311 663 c 4,10,11
 450 663 450 663 531 633 c 4,12,13
 630 597 630 597 682 518.5 c 132,-1,14
 734 440 734 440 734 338 c 4,15,16
 734 242 734 242 689 164 c 132,-1,17
 644 86 644 86 559 40 c 4,18,19
 470 -8 470 -8 335 -8 c 4,20,21
 299 -8 299 -8 243 -4 c 4,22,23
 185 0 185 0 172 0 c 4,24,25
 118 0 118 0 47 -3 c 4,26,27
 42 -1 42 -1 41.5 8 c 132,-1,28
 41 17 41 17 45 22 c 5,29,-1
 68 25 l 6,30,31
 111 31 111 31 119.5 50 c 132,-1,32
 128 69 128 69 128 150 c 6,0,-1
210 542 m 6,33,-1
 210 173 l 6,34,35
 210 92 210 92 230 64 c 4,36,37
 259 23 259 23 353 23 c 4,38,39
 494 23 494 23 564 107 c 132,-1,40
 634 191 634 191 634 336 c 4,41,42
 634 373 634 373 627 409.5 c 132,-1,43
 620 446 620 446 598.5 487.5 c 132,-1,44
 577 529 577 529 543.5 560 c 132,-1,45
 510 591 510 591 452 611.5 c 132,-1,46
 394 632 394 632 319 632 c 4,47,48
 239 632 239 632 220 618 c 4,49,50
 210 610 210 610 210 542 c 6,33,-1
EndSplineSet
Validated: 1
EndChar

StartChar: E
Encoding: 69 69 38
Width: 584
Flags: MW
HStem: -3 21G 0 23.5 0 31 240 21G 326 35<228 301 243 301> 629 31<225 240 240 312> 643 20G
VStem: 128 82<150 158 158 299 375 389 389 510 510 562>
LayerCount: 2
Fore
SplineSet
128 150 m 6,0,-1
 128 510 l 6,1,2
 128 591 128 591 119 611 c 132,-1,3
 110 631 110 631 67 636 c 6,4,-1
 51 638 l 6,5,6
 47 641 47 641 47.5 651 c 132,-1,7
 48 661 48 661 53 663 c 4,8,9
 97 661 97 661 113 661 c 4,10,11
 132 660 132 660 171 660 c 6,12,-1
 359 660 l 6,13,14
 482 660 482 660 494 663 c 5,15,16
 499 648 499 648 510 530 c 4,17,18
 507 525 507 525 498 524.5 c 132,-1,19
 489 524 489 524 485 528 c 4,20,21
 478 549 478 549 476 555.5 c 132,-1,22
 474 562 474 562 467 577 c 132,-1,23
 460 592 460 592 453.5 598 c 132,-1,24
 447 604 447 604 435.5 611.5 c 132,-1,25
 424 619 424 619 409 623 c 4,26,27
 384 629 384 629 312 629 c 6,28,-1
 240 629 l 6,29,30
 218 629 218 629 214 623.5 c 132,-1,31
 210 618 210 618 210 589 c 6,32,-1
 210 389 l 6,33,34
 210 369 210 369 215 365 c 132,-1,35
 220 361 220 361 243 361 c 6,36,-1
 301 361 l 6,37,38
 368 361 368 361 386 367 c 132,-1,39
 404 373 404 373 410 402 c 6,40,-1
 418 443 l 6,41,42
 422 448 422 448 431.5 447.5 c 132,-1,43
 441 447 441 447 444 442 c 4,44,45
 444 432 444 432 442 397 c 132,-1,46
 440 362 440 362 440 341 c 4,47,48
 440 321 440 321 442 287.5 c 132,-1,49
 444 254 444 254 444 245 c 4,50,51
 441 240 441 240 431.5 239.5 c 132,-1,52
 422 239 422 239 418 244 c 6,53,-1
 409 283 l 6,54,55
 402 315 402 315 378 321 c 4,56,57
 360 326 360 326 301 326 c 6,58,-1
 243 326 l 6,59,60
 220 326 220 326 215 322 c 132,-1,61
 210 318 210 318 210 299 c 6,62,-1
 210 158 l 6,63,64
 210 74 210 74 229 54 c 4,65,66
 252 31 252 31 350 31 c 132,-1,67
 448 31 448 31 478 46 c 4,68,69
 509 63 509 63 549 143 c 4,70,71
 554 147 554 147 562.5 145 c 132,-1,72
 571 143 571 143 574 136 c 5,73,74
 558 58 558 58 529 -3 c 5,75,76
 439 -1 439 -1 395 -1 c 4,77,78
 350 0 350 0 261 0 c 6,79,-1
 171 0 l 6,80,81
 124 0 124 0 35 -3 c 4,82,83
 30 -1 30 -1 29.5 8 c 132,-1,84
 29 17 29 17 33 22 c 5,85,-1
 66 25 l 6,86,87
 108 29 108 29 118 49.5 c 132,-1,88
 128 70 128 70 128 150 c 6,0,-1
EndSplineSet
Validated: 1
EndChar

StartChar: F
Encoding: 70 70 39
Width: 538
Flags: MW
HStem: -3 26.5 316 35<228 311 243 311> 629 31<225 240 240 301> 643 20G
VStem: 128 82<150 289 364.5 378 378 510 510 562.5> 468 21
LayerCount: 2
Fore
SplineSet
210 589 m 2,0,-1
 210 378 l 2,1,2
 210 358 210 358 215 354.5 c 128,-1,3
 220 351 220 351 243 351 c 2,4,-1
 311 351 l 2,5,6
 378 351 378 351 396 357 c 0,7,8
 402 359 402 359 406 362 c 128,-1,9
 410 365 410 365 414 372.5 c 128,-1,10
 418 380 418 380 421 392 c 2,11,-1
 430 432 l 2,12,13
 434 436 434 436 443.5 436 c 128,-1,14
 453 436 453 436 456 432 c 0,15,16
 456 422 456 422 454 386.5 c 128,-1,17
 452 351 452 351 452 331 c 128,-1,18
 452 311 452 311 454 277.5 c 128,-1,19
 456 244 456 244 456 234 c 0,20,21
 453 230 453 230 444 230 c 128,-1,22
 435 230 435 230 430 234 c 2,23,-1
 420 273 l 2,24,25
 413 303 413 303 388 311 c 0,26,27
 370 316 370 316 311 316 c 2,28,-1
 243 316 l 2,29,30
 220 316 220 316 215 312 c 128,-1,31
 210 308 210 308 210 289 c 2,32,-1
 210 150 l 2,33,34
 210 69 210 69 219 49 c 128,-1,35
 228 29 228 29 271 25 c 2,36,-1
 305 22 l 2,37,38
 309 19 309 19 308.5 9 c 128,-1,39
 308 -1 308 -1 303 -3 c 0,40,41
 214 0 214 0 170 0 c 0,42,43
 115 0 115 0 45 -3 c 0,44,45
 40 -1 40 -1 39.5 8 c 128,-1,46
 39 17 39 17 43 22 c 1,47,-1
 68 25 l 2,48,49
 110 30 110 30 119 49.5 c 128,-1,50
 128 69 128 69 128 150 c 2,51,-1
 128 510 l 2,52,53
 128 591 128 591 119 611 c 128,-1,54
 110 631 110 631 68 636 c 2,55,-1
 52 638 l 2,56,57
 48 641 48 641 48.5 651 c 128,-1,58
 49 661 49 661 54 663 c 0,59,60
 96 661 96 661 113 661 c 0,61,62
 132 660 132 660 170 660 c 2,63,-1
 354 660 l 2,64,65
 476 660 476 660 489 663 c 1,66,67
 489 588 489 588 492 531 c 0,68,69
 490 526 490 526 481.5 525 c 128,-1,70
 473 524 473 524 468 528 c 1,71,72
 461 568 461 568 446.5 590.5 c 128,-1,73
 432 613 432 613 398 623 c 0,74,75
 372 629 372 629 301 629 c 2,76,-1
 240 629 l 2,77,78
 218 629 218 629 214 623.5 c 128,-1,79
 210 618 210 618 210 589 c 2,0,-1
EndSplineSet
Validated: 1
EndChar

StartChar: G
Encoding: 71 71 40
Width: 747
Flags: MW
HStem: -16 31<383.5 470> 239 30 242 27 500 152 646 30<377.5 476>
VStem: 46 100<278 364.5> 566 82<102 142 142 158 82 184>
LayerCount: 2
Fore
SplineSet
648 158 m 6,0,-1
 648 102 l 6,1,2
 648 40 648 40 672 31 c 4,3,4
 678 25 678 25 671 19 c 5,5,6
 656 19 656 19 622 10 c 4,7,8
 524 -16 524 -16 443 -16 c 4,9,10
 248 -16 248 -16 138 95 c 4,11,12
 46 187 46 187 46 322 c 4,13,14
 46 463 46 463 136 559 c 4,15,16
 248 676 248 676 453 676 c 4,17,18
 516 676 516 676 580 661 c 4,19,20
 631 650 631 650 642 652 c 5,21,22
 642 607 642 607 657 507 c 4,23,24
 655 501 655 501 644.5 500 c 132,-1,25
 634 499 634 499 630 504 c 4,26,27
 610 581 610 581 558.5 613.5 c 132,-1,28
 507 646 507 646 425 646 c 4,29,30
 288 646 288 646 217 563 c 132,-1,31
 146 480 146 480 146 358 c 4,32,33
 146 207 146 207 223.5 111 c 132,-1,34
 301 15 301 15 446 15 c 4,35,36
 537 15 537 15 556 45 c 4,37,38
 566 59 566 59 566 102 c 6,39,-1
 566 142 l 6,40,41
 566 205 566 205 556.5 219.5 c 132,-1,42
 547 234 547 234 501 239 c 6,43,-1
 457 244 l 6,44,45
 451 247 451 247 451.5 257 c 132,-1,46
 452 267 452 267 457 269 c 4,47,48
 501 266 501 266 600 266 c 4,49,50
 656 266 656 266 706 269 c 4,51,52
 711 266 711 266 711.5 257.5 c 132,-1,53
 712 249 712 249 707 244 c 5,54,-1
 691 242 l 6,55,56
 662 239 662 239 655 221 c 132,-1,57
 648 203 648 203 648 158 c 6,0,-1
EndSplineSet
Validated: 33
EndChar

StartChar: H
Encoding: 72 72 41
Width: 806
Flags: MW
HStem: -3 26.5 323 40<236 546 260 546> 637 26
VStem: 128 82<150 291 379.5 395 395 510> 596 82<150 291 291 306 395 510>
LayerCount: 2
Fore
SplineSet
546 323 m 6,0,-1
 260 323 l 6,1,2
 224 323 224 323 217 318.5 c 132,-1,3
 210 314 210 314 210 291 c 6,4,-1
 210 150 l 6,5,6
 210 70 210 70 219.5 49.5 c 132,-1,7
 229 29 229 29 271 25 c 6,8,-1
 300 22 l 6,9,10
 304 19 304 19 303.5 9 c 132,-1,11
 303 -1 303 -1 298 -3 c 4,12,13
 217 0 217 0 171 0 c 4,14,15
 152 0 152 0 132.5 -0.5 c 132,-1,16
 113 -1 113 -1 90.5 -2 c 132,-1,17
 68 -3 68 -3 55 -3 c 4,18,19
 50 -1 50 -1 49.5 8 c 132,-1,20
 49 17 49 17 53 22 c 5,21,-1
 70 25 l 6,22,23
 111 32 111 32 119.5 51 c 132,-1,24
 128 70 128 70 128 150 c 6,25,-1
 128 510 l 6,26,27
 128 589 128 589 118 611 c 132,-1,28
 108 633 108 633 69 636 c 6,29,-1
 43 638 l 6,30,31
 39 641 39 641 39.5 651 c 132,-1,32
 40 661 40 661 45 663 c 4,33,34
 60 663 60 663 103 661.5 c 132,-1,35
 146 660 146 660 171 660 c 4,36,37
 223 660 223 660 287 663 c 4,38,39
 292 661 292 661 292.5 651 c 132,-1,40
 293 641 293 641 289 638 c 6,41,-1
 270 636 l 6,42,43
 228 632 228 632 219 611.5 c 132,-1,44
 210 591 210 591 210 510 c 6,45,-1
 210 395 l 6,46,47
 210 372 210 372 217 367.5 c 132,-1,48
 224 363 224 363 260 363 c 6,49,-1
 546 363 l 6,50,51
 582 363 582 363 589 367.5 c 132,-1,52
 596 372 596 372 596 395 c 6,53,-1
 596 510 l 6,54,55
 596 591 596 591 587 611.5 c 132,-1,56
 578 632 578 632 535 636 c 6,57,-1
 516 638 l 6,58,59
 512 641 512 641 512.5 651 c 132,-1,60
 513 661 513 661 518 663 c 4,61,62
 587 660 587 660 639 660 c 4,63,64
 690 660 690 660 757 663 c 4,65,66
 762 661 762 661 762.5 651 c 132,-1,67
 763 641 763 641 759 638 c 6,68,-1
 738 636 l 6,69,70
 696 632 696 632 687 611.5 c 132,-1,71
 678 591 678 591 678 510 c 6,72,-1
 678 150 l 6,73,74
 678 69 678 69 687 49.5 c 132,-1,75
 696 30 696 30 738 25 c 6,76,-1
 762 22 l 6,77,78
 766 19 766 19 765.5 9 c 132,-1,79
 765 -1 765 -1 760 -3 c 4,80,81
 688 0 688 0 639 0 c 4,82,83
 584 0 584 0 518 -3 c 4,84,85
 513 -1 513 -1 512.5 8 c 132,-1,86
 512 17 512 17 516 22 c 5,87,-1
 535 25 l 6,88,89
 579 31 579 31 586.5 49 c 132,-1,90
 594 67 594 67 596 150 c 6,91,-1
 596 291 l 6,92,93
 596 314 596 314 589 318.5 c 132,-1,94
 582 323 582 323 546 323 c 6,0,-1
EndSplineSet
Validated: 1
EndChar

StartChar: I
Encoding: 73 73 42
Width: 338
Flags: MW
HStem: -3 26.5 637 26
VStem: 128 82<152 508>
LayerCount: 2
Fore
SplineSet
128 152 m 2,0,-1
 128 508 l 2,1,2
 128 591 128 591 119 611.5 c 128,-1,3
 110 632 110 632 67 636 c 2,4,-1
 42 638 l 2,5,6
 38 641 38 641 38.5 651 c 128,-1,7
 39 661 39 661 44 663 c 0,8,9
 119 660 119 660 170 660 c 0,10,11
 219 660 219 660 294 663 c 0,12,13
 299 661 299 661 299.5 651 c 128,-1,14
 300 641 300 641 296 638 c 2,15,-1
 271 636 l 2,16,17
 228 632 228 632 219 611.5 c 128,-1,18
 210 591 210 591 210 508 c 2,19,-1
 210 152 l 2,20,21
 210 70 210 70 219 50 c 128,-1,22
 228 30 228 30 271 25 c 2,23,-1
 296 22 l 2,24,25
 300 19 300 19 299.5 9 c 128,-1,26
 299 -1 299 -1 294 -3 c 0,27,28
 219 0 219 0 170 0 c 0,29,30
 119 0 119 0 44 -3 c 0,31,32
 39 -1 39 -1 38.5 8 c 128,-1,33
 38 17 38 17 42 22 c 1,34,-1
 67 25 l 2,35,36
 110 30 110 30 119 50 c 128,-1,37
 128 70 128 70 128 152 c 2,0,-1
EndSplineSet
Validated: 1
EndChar

StartChar: J
Encoding: 74 74 43
Width: 345
Flags: MW
HStem: -201 67<-1 4 -12.5 51.5> 637 26
VStem: 143 82<130 137 137 508>
LayerCount: 2
Fore
SplineSet
143 130 m 2,0,-1
 143 508 l 2,1,2
 143 590 143 590 131 611 c 128,-1,3
 119 632 119 632 74 636 c 2,4,-1
 49 638 l 2,5,6
 45 641 45 641 45.5 651 c 128,-1,7
 46 661 46 661 51 663 c 0,8,9
 138 660 138 660 185 660 c 0,10,11
 239 660 239 660 299 663 c 0,12,13
 304 661 304 661 304.5 651 c 128,-1,14
 305 641 305 641 301 638 c 2,15,-1
 286 636 l 2,16,17
 243 630 243 630 234 610 c 128,-1,18
 225 590 225 590 225 508 c 2,19,-1
 225 137 l 2,20,21
 225 -1 225 -1 202 -57 c 0,22,23
 176 -120 176 -120 124 -160.5 c 128,-1,24
 72 -201 72 -201 5 -201 c 0,25,26
 -38 -201 -38 -201 -38 -180 c 0,27,28
 -38 -166 -38 -166 -27.5 -150 c 128,-1,29
 -17 -134 -17 -134 -2 -134 c 0,30,31
 16 -134 16 -134 35 -140 c 0,32,33
 60 -147 60 -147 77 -147 c 0,34,35
 104 -147 104 -147 117 -121 c 0,36,37
 143 -68 143 -68 143 130 c 2,0,-1
EndSplineSet
Validated: 1
EndChar

StartChar: K
Encoding: 75 75 44
Width: 675
Flags: MW
HStem: -3 26.5 327 30<219.5 227.5 217.5 239> 637 26
VStem: 128 82<150 279 385.5 395 395 510> 446 7
LayerCount: 2
Fore
SplineSet
128 150 m 2,0,-1
 128 510 l 2,1,2
 128 592 128 592 119 612 c 128,-1,3
 110 632 110 632 68 636 c 2,4,-1
 43 638 l 2,5,6
 39 641 39 641 39.5 651 c 128,-1,7
 40 661 40 661 45 663 c 0,8,9
 119 660 119 660 171 660 c 128,-1,10
 223 660 223 660 287 663 c 0,11,12
 292 661 292 661 292.5 651 c 128,-1,13
 293 641 293 641 289 638 c 2,14,-1
 270 636 l 2,15,16
 228 632 228 632 219 611.5 c 128,-1,17
 210 591 210 591 210 510 c 2,18,-1
 210 395 l 2,19,20
 210 357 210 357 223 357 c 128,-1,21
 236 357 236 357 251 368 c 0,22,23
 284 397 284 397 302 416 c 2,24,-1
 410 523 l 2,25,26
 468 578 468 578 488 606 c 0,27,28
 495 616 495 616 495 622 c 128,-1,29
 495 628 495 628 478 632 c 2,30,-1
 451 638 l 2,31,32
 446 643 446 643 446.5 651 c 128,-1,33
 447 659 447 659 453 663 c 1,34,35
 505 660 505 660 563 660 c 0,36,37
 617 660 617 660 662 663 c 1,38,39
 667 659 667 659 668 650.5 c 128,-1,40
 669 642 669 642 664 638 c 0,41,42
 613 634 613 634 571 610 c 0,43,44
 527 585 527 585 431 494 c 2,45,-1
 341 409 l 2,46,47
 318 386 318 386 318 378 c 128,-1,48
 318 370 318 370 337 347 c 0,49,50
 526 130 526 130 587 66 c 0,51,52
 623 30 623 30 667 25 c 2,53,-1
 694 22 l 2,54,55
 699 18 699 18 698 8.5 c 128,-1,56
 697 -1 697 -1 692 -3 c 0,57,58
 653 0 653 0 580 0 c 0,59,60
 527 0 527 0 458 -3 c 0,61,62
 453 -1 453 -1 451.5 8 c 128,-1,63
 450 17 450 17 454 22 c 1,64,-1
 477 26 l 2,65,66
 501 29 501 29 501 36 c 0,67,68
 501 41 501 41 487 59 c 0,69,70
 486 60 486 60 404 153 c 2,71,-1
 324 243 l 2,72,73
 264.056269613 310.305241136 264.056269613 310.305241136 249.89987323 319.608401914 c 0,74,75
 238.652255897 327 238.652255897 327 227 327 c 0,76,77
 216 327 216 327 213 317 c 128,-1,78
 210 307 210 307 210 279 c 2,79,-1
 210 150 l 2,80,81
 210 69 210 69 218.5 49 c 128,-1,82
 227 29 227 29 268 25 c 2,83,-1
 295 22 l 2,84,85
 299 19 299 19 298.5 9 c 128,-1,86
 298 -1 298 -1 293 -3 c 0,87,88
 219 0 219 0 171 0 c 0,89,90
 117 0 117 0 55 -3 c 0,91,92
 50 -1 50 -1 49.5 8 c 128,-1,93
 49 17 49 17 53 22 c 1,94,-1
 73 25 l 2,95,96
 112 31 112 31 120 50 c 128,-1,97
 128 69 128 69 128 150 c 2,0,-1
EndSplineSet
Validated: 1
EndChar

StartChar: L
Encoding: 76 76 45
Width: 553
Flags: MW
HStem: -3 21G 0 23.5 0 31 637 26
VStem: 128 82<150 162 162 510>
LayerCount: 2
Fore
SplineSet
128 150 m 6,0,-1
 128 510 l 6,1,2
 128 592 128 592 118.5 612 c 132,-1,3
 109 632 109 632 63 636 c 6,4,-1
 38 638 l 6,5,6
 34 641 34 641 34.5 651 c 132,-1,7
 35 661 35 661 40 663 c 4,8,9
 124 660 124 660 170 660 c 4,10,11
 218 660 218 660 293 663 c 4,12,13
 298 661 298 661 298.5 651 c 132,-1,14
 299 641 299 641 295 638 c 6,15,-1
 271 636 l 6,16,17
 228 632 228 632 219 612 c 132,-1,18
 210 592 210 592 210 510 c 6,19,-1
 210 162 l 6,20,21
 210 112 210 112 214 90 c 132,-1,22
 218 68 218 68 231 54 c 4,23,24
 254 31 254 31 340 31 c 4,25,26
 439 31 439 31 462 44 c 4,27,28
 498 65 498 65 528 143 c 4,29,30
 532 147 532 147 542.5 144.5 c 132,-1,31
 553 142 553 142 553 137 c 4,32,33
 553 127 553 127 537 71.5 c 132,-1,34
 521 16 521 16 511 -3 c 5,35,36
 461 -1 461 -1 406 -1 c 4,37,38
 363 0 363 0 262 0 c 6,39,-1
 170 0 l 6,40,41
 124 0 124 0 40 -3 c 4,42,43
 35 -1 35 -1 34.5 8 c 132,-1,44
 34 17 34 17 38 22 c 5,45,-1
 68 25 l 6,46,47
 110 29 110 29 119 49 c 132,-1,48
 128 69 128 69 128 150 c 6,0,-1
EndSplineSet
Validated: 1
EndChar

StartChar: M
Encoding: 77 77 46
Width: 912
Flags: MW
HStem: -6 21G -3 26.5 637 26
VStem: 25 136 140 38 708 84
LayerCount: 2
Fore
SplineSet
275 498 m 2,0,-1
 389 267 l 2,1,2
 439 165 439 165 458 130 c 1,3,-1
 460 130 l 1,4,5
 484 171 484 171 537 280 c 2,6,-1
 631 471 l 2,7,8
 660 528 660 528 672 553.5 c 128,-1,9
 684 579 684 579 695 610 c 128,-1,10
 706 641 706 641 707 663 c 1,11,12
 741 660 741 660 782 660 c 0,13,14
 824 660 824 660 871 663 c 0,15,16
 875 660 875 660 875.5 650.5 c 128,-1,17
 876 641 876 641 872 638 c 2,18,-1
 851 636 l 2,19,20
 805 631 805 631 792.5 613 c 128,-1,21
 780 595 780 595 781 541 c 0,22,23
 788 182 788 182 792 106 c 0,24,25
 793 83 793 83 793.5 78 c 128,-1,26
 794 73 794 73 797 58.5 c 128,-1,27
 800 44 800 44 804.5 40.5 c 128,-1,28
 809 37 809 37 818 31.5 c 128,-1,29
 827 26 827 26 841 25 c 2,30,-1
 873 22 l 2,31,32
 878 18 878 18 877 9 c 128,-1,33
 876 -0 876 -0 871 -3 c 0,34,35
 810 0 810 0 753 0 c 0,36,37
 694 0 694 0 632 -3 c 1,38,39
 627 1 627 1 626 9.5 c 128,-1,40
 625 18 625 18 630 22 c 2,41,-1
 659 25 l 2,42,43
 694 29 694 29 701 43.5 c 128,-1,44
 708 58 708 58 708 110 c 2,45,-1
 705 527 l 1,46,-1
 703 527 l 1,47,48
 700 522 700 522 688.5 498.5 c 128,-1,49
 677 475 677 475 661.5 443.5 c 128,-1,50
 646 412 646 412 638 397 c 2,51,-1
 549 222 l 2,52,53
 469 66 469 66 441 -6 c 0,54,55
 438 -10 438 -10 431 -10 c 0,56,57
 425 -10 425 -10 422 -6 c 0,58,59
 409 34 409 34 334 194 c 2,60,-1
 244 387 l 2,61,62
 236 405 236 405 214 455 c 128,-1,63
 192 505 192 505 180 531 c 1,64,-1
 178 531 l 1,65,66
 174 469 174 469 168 353 c 0,67,68
 161 211 161 211 161 118 c 0,69,70
 161 62 161 62 169 44.5 c 128,-1,71
 177 27 177 27 206 25 c 2,72,-1
 244 22 l 1,73,74
 249 17 249 17 248.5 8 c 128,-1,75
 248 -1 248 -1 243 -3 c 0,76,77
 192 0 192 0 132 0 c 0,78,79
 81 0 81 0 30 -3 c 1,80,81
 25 1 25 1 24.5 9.5 c 128,-1,82
 24 18 24 18 28 22 c 2,83,-1
 50 25 l 2,84,85
 84 29 84 29 96 43 c 128,-1,86
 108 57 108 57 112 107 c 0,87,88
 123 228 123 228 129 327 c 0,89,90
 136 448 136 448 140 550 c 0,91,92
 142 598 142 598 130 613.5 c 128,-1,93
 118 629 118 629 73 636 c 2,94,-1
 57 638 l 2,95,96
 53 642 53 642 54 651 c 128,-1,97
 55 660 55 660 61 663 c 0,98,99
 106 660 106 660 140 660 c 0,100,101
 190 660 190 660 223 663 c 1,102,103
 218 615 218 615 275 498 c 2,0,-1
EndSplineSet
Validated: 33
EndChar

StartChar: N
Encoding: 78 78 47
Width: 783
Flags: MW
HStem: -16 21G<650 655.5> -3 26.5 637 26
VStem: 126 41<251 469> 625 41<195 409>
LayerCount: 2
Fore
SplineSet
666 409 m 2,0,-1
 666 170 l 2,1,2
 666 21 666 21 669 -5 c 1,3,4
 665 -16 665 -16 650 -16 c 1,5,6
 631 11 631 11 522 135 c 2,7,-1
 290 399 l 2,8,9
 284 406 284 406 235 463.5 c 128,-1,10
 186 521 186 521 174 534 c 1,11,-1
 172 534 l 1,12,13
 167 519 167 519 167 469 c 2,14,-1
 167 251 l 2,15,16
 167 78 167 78 185 44 c 0,17,18
 195 28 195 28 236 25 c 2,19,-1
 267 22 l 1,20,21
 271 16 271 16 270.5 8.5 c 128,-1,22
 270 1 270 1 265 -3 c 1,23,24
 198 0 198 0 148 0 c 0,25,26
 96 0 96 0 44 -3 c 1,27,28
 39 1 39 1 38 9.5 c 128,-1,29
 37 18 37 18 42 22 c 2,30,-1
 69 25 l 2,31,32
 105 28 105 28 113 45 c 0,33,34
 126 78 126 78 126 251 c 2,35,-1
 126 540 l 2,36,37
 126 588 126 588 104 612 c 0,38,39
 85 631 85 631 42 636 c 2,40,-1
 25 638 l 2,41,42
 20 642 20 642 20.5 651 c 128,-1,43
 21 660 21 660 27 663 c 0,44,45
 69 660 69 660 140 660 c 0,46,47
 166 660 166 660 186 663 c 1,48,49
 191 651 191 651 204 631 c 128,-1,50
 217 611 217 611 231.5 592 c 128,-1,51
 246 573 246 573 267.5 547 c 128,-1,52
 289 521 289 521 302 506 c 128,-1,53
 315 491 315 491 335 468 c 128,-1,54
 355 445 355 445 357 443 c 2,55,-1
 454 334 l 2,56,57
 553 220 553 220 619 153 c 1,58,-1
 621 153 l 1,59,60
 625 158 625 158 625 195 c 2,61,-1
 625 409 l 2,62,63
 625 584 625 584 605 616 c 0,64,65
 596 629 596 629 543 636 c 2,66,-1
 526 638 l 2,67,68
 521 642 521 642 521.5 651.5 c 128,-1,69
 522 661 522 661 528 663 c 0,70,71
 597 660 597 660 646 660 c 0,72,73
 698 660 698 660 749 663 c 1,74,75
 755 659 755 659 755.5 650.5 c 128,-1,76
 756 642 756 642 751 638 c 2,77,-1
 737 636 l 2,78,79
 688 628 688 628 681 615 c 0,80,81
 666 583 666 583 666 409 c 2,0,-1
EndSplineSet
Validated: 1
EndChar

StartChar: O
Encoding: 79 79 48
Width: 795
Flags: MW
HStem: -16 31<316.5 475 316.5 498.5> 645 31<333 480.5>
VStem: 46 100<281 423> 649 100<232 384.5>
LayerCount: 2
Fore
SplineSet
402 -16 m 0,0,1
 241 -16 241 -16 143.5 83 c 128,-1,2
 46 182 46 182 46 323 c 0,3,4
 46 474 46 474 147 575 c 128,-1,5
 248 676 248 676 402 676 c 0,6,7
 566 676 566 676 657.5 575.5 c 128,-1,8
 749 475 749 475 749 333 c 0,9,10
 749 183 749 183 648.5 83.5 c 128,-1,11
 548 -16 548 -16 402 -16 c 0,0,1
415 15 m 0,12,13
 513 15 513 15 581 89 c 128,-1,14
 649 163 649 163 649 302 c 0,15,16
 649 367 649 367 634 426 c 128,-1,17
 619 485 619 485 589 535 c 128,-1,18
 559 585 559 585 506.5 615 c 128,-1,19
 454 645 454 645 385 645 c 0,20,21
 343 645 343 645 303.5 630 c 128,-1,22
 264 615 264 615 227 583 c 128,-1,23
 190 551 190 551 168 492 c 128,-1,24
 146 433 146 433 146 355 c 0,25,26
 146 309 146 309 155 263 c 128,-1,27
 164 217 164 217 184.5 171.5 c 128,-1,28
 205 126 205 126 235 92 c 128,-1,29
 265 58 265 58 311.5 36.5 c 128,-1,30
 358 15 358 15 415 15 c 0,12,13
EndSplineSet
Validated: 1
EndChar

StartChar: P
Encoding: 80 80 49
Width: 549
Flags: MW
HStem: -3 26.5 284 20<279 279> 632 31<237.5 286.5 203.5 316>
VStem: 128 82<150 519 519 561.5> 425 92<428.5 507.5 427 520.5>
LayerCount: 2
Fore
SplineSet
210 596 m 2,0,-1
 210 150 l 2,1,2
 210 69 210 69 219.5 49.5 c 128,-1,3
 229 30 229 30 276 25 c 2,4,-1
 303 22 l 2,5,6
 307 18 307 18 306.5 8.5 c 128,-1,7
 306 -1 306 -1 301 -3 c 0,8,9
 216 0 216 0 171 0 c 0,10,11
 115 0 115 0 49 -3 c 0,12,13
 44 -1 44 -1 43.5 8 c 128,-1,14
 43 17 43 17 47 22 c 1,15,-1
 68 25 l 2,16,17
 111 31 111 31 119.5 50 c 128,-1,18
 128 69 128 69 128 150 c 2,19,-1
 128 519 l 2,20,21
 128 586 128 586 120.5 604.5 c 128,-1,22
 113 623 113 623 81 626 c 2,23,-1
 45 630 l 2,24,25
 40 634 40 634 40.5 643 c 128,-1,26
 41 652 41 652 47 655 c 0,27,28
 108 663 108 663 245 663 c 0,29,30
 372 663 372 663 437 623 c 0,31,32
 517 573 517 573 517 473 c 0,33,34
 517 363 517 363 417 314 c 0,35,36
 354 284 354 284 279 284 c 0,37,38
 274 286 274 286 273.5 294.5 c 128,-1,39
 273 303 273 303 278 304 c 0,40,41
 425 331 425 331 425 472 c 0,42,43
 425 546 425 546 383 589 c 128,-1,44
 341 632 341 632 264 632 c 0,45,46
 225 632 225 632 217.5 626.5 c 128,-1,47
 210 621 210 621 210 596 c 2,0,-1
EndSplineSet
Validated: 1
EndChar

StartChar: Q
Encoding: 81 81 50
Width: 795
Flags: MW
HStem: -219 32<749 836> -1 21G 645 31<333 480.5>
VStem: 46 100<281 423> 649 100<250.5 384.5>
LayerCount: 2
Fore
SplineSet
402 676 m 0,0,1
 566 676 566 676 657.5 575.5 c 128,-1,2
 749 475 749 475 749 333 c 0,3,4
 749 212 749 212 681.5 121.5 c 128,-1,5
 614 31 614 31 507 -1 c 1,6,7
 505 -6 505 -6 515 -16 c 0,8,9
 648 -144 648 -144 738 -173 c 0,10,11
 781 -187 781 -187 831 -187 c 0,12,13
 858 -187 858 -187 879 -178 c 0,14,15
 883 -179 883 -179 884.5 -184 c 128,-1,16
 886 -189 886 -189 884 -193 c 0,17,18
 838 -219 838 -219 772 -219 c 0,19,20
 691 -219 691 -219 610 -182 c 0,21,22
 516 -138 516 -138 425 -50 c 0,23,24
 404 -29 404 -29 392.5 -23 c 128,-1,25
 381 -17 381 -17 358 -13 c 0,26,27
 303 -5 303 -5 260 11 c 0,28,29
 160 49 160 49 103 132.5 c 128,-1,30
 46 216 46 216 46 323 c 0,31,32
 46 474 46 474 147 575 c 128,-1,33
 248 676 248 676 402 676 c 0,0,1
415 15 m 0,34,35
 513 15 513 15 581 89 c 128,-1,36
 649 163 649 163 649 302 c 0,37,38
 649 367 649 367 634 426 c 128,-1,39
 619 485 619 485 589 535 c 128,-1,40
 559 585 559 585 506.5 615 c 128,-1,41
 454 645 454 645 385 645 c 0,42,43
 343 645 343 645 303.5 630 c 128,-1,44
 264 615 264 615 227 583 c 128,-1,45
 190 551 190 551 168 492 c 128,-1,46
 146 433 146 433 146 355 c 0,47,48
 146 309 146 309 155 263 c 128,-1,49
 164 217 164 217 184.5 171.5 c 128,-1,50
 205 126 205 126 235 92 c 128,-1,51
 265 58 265 58 311.5 36.5 c 128,-1,52
 358 15 358 15 415 15 c 0,34,35
EndSplineSet
Validated: 1
EndChar

StartChar: R
Encoding: 82 82 51
Width: 645
Flags: MW
HStem: -11 19 -3 26.5 298 30<256.5 277> 632 31<244 307 227 330.5>
VStem: 128 82<150 276 357 366 366 509 509 556.5> 435 91<445.5 517.5>
LayerCount: 2
Fore
SplineSet
128 150 m 6,0,-1
 128 509 l 6,1,2
 128 582 128 582 121 602 c 132,-1,3
 114 622 114 622 84 626 c 6,4,-1
 52 630 l 6,5,6
 47 634 47 634 47 643 c 132,-1,7
 47 652 47 652 53 655 c 4,8,9
 143 663 143 663 276 663 c 4,10,11
 388 663 388 663 443 633 c 4,12,13
 526 590 526 590 526 493 c 4,14,15
 526 429 526 429 487.5 387 c 132,-1,16
 449 345 449 345 401 326 c 5,17,18
 395 319 395 319 406 302 c 4,19,20
 474 193 474 193 517 134.5 c 132,-1,21
 560 76 560 76 607 36 c 4,22,23
 635 11 635 11 676 8 c 4,24,25
 680 6 680 6 680.5 1.5 c 132,-1,26
 681 -3 681 -3 677 -6 c 4,27,28
 662 -11 662 -11 633 -11 c 4,29,30
 567 -11 567 -11 522.5 15 c 132,-1,31
 478 41 478 41 426 115 c 4,32,33
 413 134 413 134 378 189 c 132,-1,34
 343 244 343 244 328 266 c 4,35,36
 316 283 316 283 301 290.5 c 132,-1,37
 286 298 286 298 257 298 c 4,38,39
 223 298 223 298 216.5 295 c 132,-1,40
 210 292 210 292 210 276 c 6,41,-1
 210 150 l 6,42,43
 210 69 210 69 218.5 50 c 132,-1,44
 227 31 227 31 270 25 c 6,45,-1
 291 22 l 6,46,47
 295 18 295 18 294.5 8.5 c 132,-1,48
 294 -1 294 -1 289 -3 c 4,49,50
 222 0 222 0 170 0 c 4,51,52
 115 0 115 0 45 -3 c 4,53,54
 40 -1 40 -1 39.5 8 c 132,-1,55
 39 17 39 17 43 22 c 5,56,-1
 68 25 l 6,57,58
 110 30 110 30 119 49.5 c 132,-1,59
 128 69 128 69 128 150 c 6,0,-1
210 600 m 6,60,-1
 210 366 l 6,61,62
 210 337 210 337 213 333 c 4,63,64
 218 328 218 328 282 328 c 4,65,66
 351 328 351 328 385 354 c 4,67,68
 435 393 435 393 435 478 c 4,69,70
 435 543 435 543 394 587.5 c 132,-1,71
 353 632 353 632 275 632 c 4,72,73
 230 632 230 632 220 627 c 132,-1,74
 210 622 210 622 210 600 c 6,60,-1
EndSplineSet
Validated: 1
EndChar

StartChar: S
Encoding: 83 83 52
Width: 489
Flags: MW
HStem: -16 31<182 279 179 289> 529 128 645 31<217 296.5 216 314>
VStem: 77 70<505 551.5> 362 75<114 152>
LayerCount: 2
Fore
SplineSet
437 169 m 4,0,1
 437 86 437 86 379 35 c 132,-1,2
 321 -16 321 -16 224 -16 c 4,3,4
 132 -16 132 -16 68 21 c 5,5,6
 59 37 59 37 51 81 c 132,-1,7
 43 125 43 125 41 161 c 5,8,9
 45 166 45 166 53.5 167 c 132,-1,10
 62 168 62 168 65 164 c 4,11,12
 109 15 109 15 237 15 c 4,13,14
 297 15 297 15 329.5 48.5 c 132,-1,15
 362 82 362 82 362 130 c 4,16,17
 362 171 362 171 345.5 204.5 c 132,-1,18
 329 238 329 238 280 270 c 6,19,-1
 185 332 l 6,20,21
 77 403 77 403 77 504 c 4,22,23
 77 578 77 578 131.5 627 c 132,-1,24
 186 676 186 676 281 676 c 4,25,26
 332 676 332 676 374 663 c 4,27,28
 400 657 400 657 409 657 c 5,29,30
 427 609 427 609 427 535 c 4,31,32
 424 530 424 530 415 529 c 132,-1,33
 406 528 406 528 402 532 c 4,34,35
 396 554 396 554 388 570.5 c 132,-1,36
 380 587 380 587 365.5 605.5 c 132,-1,37
 351 624 351 624 325.5 634.5 c 132,-1,38
 300 645 300 645 266 645 c 4,39,40
 200 645 200 645 173.5 611.5 c 132,-1,41
 147 578 147 578 147 534 c 4,42,43
 147 466 147 466 232 411 c 6,44,-1
 312 361 l 6,45,46
 437 284 437 284 437 169 c 4,0,1
EndSplineSet
Validated: 1
EndChar

StartChar: T
Encoding: 84 84 53
Width: 660
Flags: MW
HStem: -3 26.5 629 31<179.5 201 201 256 382 397 397 468>
VStem: 286 82<150 595> 609 26
LayerCount: 2
Fore
SplineSet
368 595 m 6,0,-1
 368 150 l 6,1,2
 368 69 368 69 377 49 c 132,-1,3
 386 29 386 29 428 25 c 6,4,-1
 460 22 l 6,5,6
 464 19 464 19 463.5 9 c 132,-1,7
 463 -1 463 -1 458 -3 c 4,8,9
 372 0 372 0 327 0 c 4,10,11
 284 0 284 0 188 -3 c 4,12,13
 183 -1 183 -1 182.5 8.5 c 132,-1,14
 182 18 182 18 188 22 c 6,15,-1
 224 25 l 6,16,17
 266 29 266 29 276 49.5 c 132,-1,18
 286 70 286 70 286 150 c 6,19,-1
 286 597 l 6,20,21
 286 620 286 620 282 624.5 c 132,-1,22
 278 629 278 629 256 629 c 6,23,-1
 201 629 l 6,24,25
 105 629 105 629 78 604 c 4,26,27
 53 582 53 582 33 535 c 4,28,29
 27 531 27 531 18.5 533.5 c 132,-1,30
 10 536 10 536 7 542 c 5,31,32
 30 608 30 608 45 691 c 4,33,34
 47 693 47 693 54.5 693 c 132,-1,35
 62 693 62 693 64 691 c 4,36,37
 66 679 66 679 72 672.5 c 132,-1,38
 78 666 78 666 92.5 663.5 c 132,-1,39
 107 661 107 661 116 660.5 c 132,-1,40
 125 660 125 660 149 660 c 6,41,-1
 554 660 l 6,42,43
 595 660 595 660 608 664.5 c 132,-1,44
 621 669 621 669 632 688 c 4,45,46
 636 690 636 690 642.5 689 c 132,-1,47
 649 688 649 688 650 685 c 4,48,49
 642 655 642 655 637.5 605.5 c 132,-1,50
 633 556 633 556 635 533 c 4,51,52
 632 527 632 527 622.5 526.5 c 132,-1,53
 613 526 613 526 609 531 c 4,54,55
 602 591 602 591 584 604 c 4,56,57
 550 629 550 629 468 629 c 6,58,-1
 397 629 l 6,59,60
 375 629 375 629 371.5 624.5 c 132,-1,61
 368 620 368 620 368 595 c 6,0,-1
EndSplineSet
Validated: 33
EndChar

StartChar: U
Encoding: 85 85 54
Width: 746
Flags: MW
HStem: -16 44<350.5 422> 638 25
VStem: 120 82<275 295 295 511> 605 41<294 296 296 409>
LayerCount: 2
Fore
SplineSet
605 294 m 2,0,-1
 605 409 l 2,1,2
 605 582 605 582 586 616 c 0,3,4
 576 634 576 634 536 637 c 2,5,-1
 511 639 l 1,6,7
 507 644 507 644 507.5 652 c 128,-1,8
 508 660 508 660 513 663 c 0,9,10
 570 660 570 660 627 660 c 0,11,12
 678 660 678 660 732 663 c 1,13,14
 738 659 738 659 738 651 c 128,-1,15
 738 643 738 643 734 639 c 2,16,-1
 710 637 l 2,17,18
 668 634 668 634 660 613 c 0,19,20
 646 582 646 582 646 409 c 2,21,-1
 646 296 l 2,22,23
 646 132 646 132 576 57 c 0,24,25
 544 22 544 22 493 3 c 128,-1,26
 442 -16 442 -16 385 -16 c 0,27,28
 262 -16 262 -16 198 39 c 0,29,30
 120 104 120 104 120 275 c 2,31,-1
 120 511 l 2,32,33
 120 592 120 592 111 612.5 c 128,-1,34
 102 633 102 633 60 637 c 2,35,-1
 35 639 l 2,36,37
 31 642 31 642 31.5 651.5 c 128,-1,38
 32 661 32 661 37 663 c 0,39,40
 112 660 112 660 161 660 c 128,-1,41
 210 660 210 660 284 663 c 0,42,43
 289 661 289 661 289.5 651.5 c 128,-1,44
 290 642 290 642 286 639 c 2,45,-1
 262 637 l 2,46,47
 220 633 220 633 211 612.5 c 128,-1,48
 202 592 202 592 202 511 c 2,49,-1
 202 295 l 2,50,51
 202 166 202 166 249 97 c 128,-1,52
 296 28 296 28 405 28 c 0,53,54
 508 28 508 28 556.5 100 c 128,-1,55
 605 172 605 172 605 294 c 2,0,-1
EndSplineSet
Validated: 1
EndChar

StartChar: V
Encoding: 86 86 55
Width: 676
Flags: MW
HStem: -13 21G 637 26
VStem: -4 7
LayerCount: 2
Fore
SplineSet
276 120 m 1,0,-1
 100 554 l 2,1,2
 82 598 82 598 66 615 c 128,-1,3
 50 632 50 632 19 636 c 2,4,-1
 1 638 l 2,5,6
 -4 642 -4 642 -3.5 650.5 c 128,-1,7
 -3 659 -3 659 3 663 c 1,8,9
 47 660 47 660 107 660 c 0,10,11
 165 660 165 660 228 663 c 0,12,13
 233 660 233 660 234 651.5 c 128,-1,14
 235 643 235 643 230 638 c 1,15,-1
 215 636 l 2,16,17
 170 630 170 630 168 617 c 1,18,19
 175 583 175 583 218 477 c 0,20,21
 306 255 306 255 360 132 c 1,22,23
 393 202 393 202 456 354 c 0,24,25
 499 451 499 451 549 578 c 0,26,27
 558 602 558 602 558 617 c 0,28,29
 558 631 558 631 513 636 c 2,30,-1
 495 638 l 1,31,32
 490 643 490 643 491 651.5 c 128,-1,33
 492 660 492 660 497 663 c 0,34,35
 539 660 539 660 601 660 c 0,36,37
 648 660 648 660 698 663 c 0,38,39
 703 660 703 660 703.5 651 c 128,-1,40
 704 642 704 642 700 638 c 2,41,-1
 670 636 l 2,42,43
 638 633 638 633 618 601 c 0,44,45
 577 533 577 533 506 371 c 2,46,-1
 452 248 l 2,47,48
 375 70 375 70 348 -13 c 0,49,50
 344 -16 344 -16 337 -16 c 0,51,52
 329.5 -16 329.5 -16 322 -13 c 1,53,54
 305 53 305 53 276 120 c 1,0,-1
EndSplineSet
Validated: 1
EndChar

StartChar: W
Encoding: 87 87 56
Width: 960
Flags: MW
HStem: -13 21G 388 20G 638 25
VStem: 270 167 610 142
LayerCount: 2
Fore
SplineSet
21 637 m 2,0,-1
 -3 639 l 2,1,2
 -8 643 -8 643 -7 651.5 c 128,-1,3
 -6 660 -6 660 0 663 c 0,4,5
 40 660 40 660 103 660 c 0,6,7
 164 660 164 660 217 663 c 0,8,9
 223 661 223 661 223.5 652.5 c 128,-1,10
 224 644 224 644 219 639 c 1,11,-1
 196 637 l 2,12,13
 163 634 163 634 163 620 c 0,14,15
 163 605 163 605 215 486 c 0,16,17
 270 363 270 363 388 113 c 1,18,19
 399 135 399 135 424.5 190 c 128,-1,20
 450 245 450 245 465 275 c 0,21,22
 481 313 481 313 481 316 c 0,23,24
 481 323 481 323 473 342 c 0,25,26
 426 449 426 449 363 582 c 0,27,28
 350 608 350 608 336.5 621.5 c 128,-1,29
 323 635 323 635 299 637 c 2,30,-1
 275 639 l 1,31,32
 270 645 270 645 270.5 652.5 c 128,-1,33
 271 660 271 660 277 663 c 0,34,35
 321 660 321 660 384 660 c 0,36,37
 459 660 459 660 494 663 c 0,38,39
 499 661 499 661 500 653 c 128,-1,40
 501 645 501 645 496 639 c 1,41,-1
 470 637 l 2,42,43
 441 635 441 635 437.5 625.5 c 128,-1,44
 434 616 434 616 449 582 c 0,45,46
 464 546 464 546 526 408 c 1,47,48
 560 479 560 479 585 539 c 0,49,50
 599 571 599 571 605 590 c 128,-1,51
 611 609 611 609 610 619.5 c 128,-1,52
 609 630 609 630 603 633 c 128,-1,53
 597 636 597 636 584 637 c 2,54,-1
 554 639 l 1,55,56
 542 657 542 657 556 663 c 1,57,58
 597 660 597 660 650 660 c 0,59,60
 711 660 711 660 746 663 c 0,61,62
 751 661 751 661 752 653 c 128,-1,63
 753 645 753 645 748 639 c 1,64,-1
 719 637 l 2,65,66
 710 636 710 636 702.5 633.5 c 128,-1,67
 695 631 695 631 688 625 c 128,-1,68
 681 619 681 619 676 614 c 128,-1,69
 671 609 671 609 665 598.5 c 128,-1,70
 659 588 659 588 656 583 c 128,-1,71
 653 578 653 578 646 565 c 128,-1,72
 639 552 639 552 637 548 c 0,73,74
 597 477 597 477 559 389 c 0,75,76
 550 371 550 371 550 365 c 0,77,78
 550 358 550 358 557 341 c 0,79,80
 571 309 571 309 606 232 c 128,-1,81
 641 155 641 155 659 113 c 1,82,83
 677 155 677 155 749 324 c 0,84,85
 759 350 759 350 792.5 432.5 c 128,-1,86
 826 515 826 515 829 523 c 0,87,88
 859 606 859 606 859 614 c 0,89,90
 859 635 859 635 826 637 c 2,91,-1
 797 639 l 1,92,93
 783 655 783 655 798 663 c 1,94,95
 855 660 855 660 894 660 c 0,96,97
 948 660 948 660 987 663 c 0,98,99
 993 661 993 661 993.5 653 c 128,-1,100
 994 645 994 645 989 639 c 1,101,-1
 970 637 l 2,102,103
 935 634 935 634 918 607 c 128,-1,104
 901 580 901 580 851 463 c 2,105,-1
 778 294 l 2,106,107
 697 102 697 102 653 -13 c 0,108,109
 648.5 -16 648.5 -16 641 -16 c 0,110,111
 633 -16 633 -16 627 -13 c 1,112,113
 606 44 606 44 506 271 c 1,114,115
 418 92 418 92 381 -13 c 0,116,117
 376.5 -16 376.5 -16 369 -16 c 128,-1,118
 361.5 -16 361.5 -16 354 -13 c 1,119,120
 324 60 324 60 285 148 c 0,121,122
 264 194 264 194 197.5 340 c 128,-1,123
 131 486 131 486 94 565 c 0,124,125
 82 591 82 591 75.5 602.5 c 128,-1,126
 69 614 69 614 55 624.5 c 128,-1,127
 41 635 41 635 21 637 c 2,0,-1
EndSplineSet
Validated: 33
EndChar

StartChar: X
Encoding: 88 88 57
Width: 643
Flags: MW
HStem: -3 26.5 637 26
VStem: -11 682
LayerCount: 2
Fore
SplineSet
631 25 m 2,0,-1
 666 22 l 1,1,2
 671 17 671 17 670.5 9 c 128,-1,3
 670 1 670 1 665 -3 c 1,4,5
 596 0 596 0 539 0 c 0,6,7
 464 0 464 0 410 -3 c 1,8,9
 398 9 398 9 408 22 c 1,10,-1
 437 25 l 2,11,12
 471 28 471 28 471 38 c 0,13,14
 471 50 471 50 449 82 c 0,15,16
 437 98 437 98 384.5 174 c 128,-1,17
 332 250 332 250 306 283 c 1,18,19
 284 255 284 255 238.5 187 c 128,-1,20
 193 119 193 119 165 70 c 0,21,22
 152 47 152 47 152 38 c 0,23,24
 152 28 152 28 181 25 c 2,25,-1
 208 22 l 1,26,27
 213 17 213 17 212.5 9 c 128,-1,28
 212 1 212 1 207 -3 c 1,29,30
 153 0 153 0 99 0 c 0,31,32
 44 0 44 0 -4 -3 c 0,33,34
 -11 -0 -11 -0 -11.5 9 c 128,-1,35
 -12 18 -12 18 -7 22 c 2,36,-1
 18 25 l 2,37,38
 54 29 54 29 81 52 c 128,-1,39
 108 75 108 75 137 114 c 0,40,41
 251 266 251 266 273 298 c 0,42,43
 282 311 282 311 282 318 c 0,44,45
 282 324 282 324 270 341 c 2,46,-1
 120 556 l 2,47,48
 93 594 93 594 75.5 610.5 c 128,-1,49
 58 627 58 627 33 631 c 2,50,-1
 1 638 l 2,51,52
 -3 642 -3 642 -2 651.5 c 128,-1,53
 -1 661 -1 661 3 663 c 0,54,55
 74 660 74 660 119 660 c 0,56,57
 188 660 188 660 232 663 c 0,58,59
 237 661 237 661 238 652 c 128,-1,60
 239 643 239 643 234 638 c 1,61,-1
 206 636 l 2,62,63
 176 634 176 634 176 623 c 0,64,65
 176 614 176 614 206 568 c 0,66,67
 210 563 210 563 261.5 487.5 c 128,-1,68
 313 412 313 412 334 385 c 1,69,70
 378 440 378 440 468 589 c 0,71,72
 482 612 482 612 482 622 c 0,73,74
 482 631 482 631 449 635 c 2,75,-1
 423 638 l 1,76,77
 418 643 418 643 418.5 651.5 c 128,-1,78
 419 660 419 660 425 663 c 0,79,80
 478 660 478 660 531 660 c 0,81,82
 580 660 580 660 627 663 c 1,83,84
 632 659 632 659 633 650.5 c 128,-1,85
 634 642 634 642 629 638 c 2,86,-1
 605 636 l 2,87,88
 562 632 562 632 498 551 c 0,89,90
 459 501 459 501 368 374 c 0,91,92
 358 359 358 359 358 355 c 0,93,94
 358 346 358 346 371 329 c 2,95,-1
 540 91 l 2,96,97
 584 30 584 30 631 25 c 2,0,-1
EndSplineSet
Validated: 1
EndChar

StartChar: Y
Encoding: 89 89 58
Width: 574
Flags: MW
HStem: -3 26.5 637 26
VStem: 254 82<152 203 203 204 98.5 230.5> 604 7
LayerCount: 2
Fore
SplineSet
336 204 m 2,0,-1
 336 152 l 2,1,2
 336 71 336 71 346 49.5 c 128,-1,3
 356 28 356 28 396 25 c 2,4,-1
 434 22 l 1,5,6
 438 17 438 17 437.5 8 c 128,-1,7
 437 -1 437 -1 432 -3 c 0,8,9
 339 0 339 0 296 0 c 0,10,11
 244 0 244 0 165 -3 c 0,12,13
 160 -1 160 -1 159.5 8 c 128,-1,14
 159 17 159 17 163 22 c 1,15,-1
 194 25 l 2,16,17
 236 29 236 29 245 49 c 128,-1,18
 254 69 254 69 254 152 c 2,19,-1
 254 203 l 2,20,21
 254 245 254 245 249 265 c 128,-1,22
 244 285 244 285 222 327 c 2,23,-1
 104 557 l 2,24,25
 80 603 80 603 65 616 c 128,-1,26
 50 629 50 629 25 633 c 2,27,-1
 -3 638 l 1,28,29
 -8 643 -8 643 -7 651.5 c 128,-1,30
 -6 660 -6 660 -1 663 c 0,31,32
 47 660 47 660 115 660 c 0,33,34
 185 660 185 660 222 663 c 0,35,36
 228 661 228 661 229 651.5 c 128,-1,37
 230 642 230 642 225 638 c 2,38,-1
 212 636 l 2,39,40
 170 629 170 629 170 618 c 0,41,42
 170 603 170 603 201 541 c 0,43,44
 297 350 297 350 314 319 c 1,45,46
 371 416 371 416 408 488 c 0,47,48
 473 609 473 609 473 620 c 128,-1,49
 473 631 473 631 431 636 c 2,50,-1
 413 638 l 1,51,52
 408 643 408 643 408.5 651.5 c 128,-1,53
 409 660 409 660 415 663 c 0,54,55
 469 660 469 660 511 660 c 128,-1,56
 553 660 553 660 604 663 c 1,57,58
 610 659 610 659 610.5 650.5 c 128,-1,59
 611 642 611 642 606 638 c 2,60,-1
 578 633 l 2,61,62
 567 631 567 631 557.5 627 c 128,-1,63
 548 623 548 623 537.5 612.5 c 128,-1,64
 527 602 527 602 520.5 595 c 128,-1,65
 514 588 514 588 502.5 570 c 128,-1,66
 491 552 491 552 485.5 543.5 c 128,-1,67
 480 535 480 535 466 510 c 128,-1,68
 452 485 452 485 446 475 c 2,69,-1
 383 366 l 2,70,71
 350 310 350 310 343 286 c 128,-1,72
 336 262 336 262 336 204 c 2,0,-1
EndSplineSet
Validated: 1
EndChar

StartChar: Z
Encoding: 90 90 59
Width: 641
Flags: MW
HStem: -3 21G 0 31<313 380 313 401> 629 31<236 276 276 425> 654 9
VStem: 27 601
LayerCount: 2
Fore
SplineSet
136 145 m 6,0,-1
 352 452 l 6,1,2
 370 478 370 478 394 512 c 132,-1,3
 418 546 418 546 430 563.5 c 132,-1,4
 442 581 442 581 449 594 c 4,5,6
 461 615 461 615 461 621 c 4,7,8
 461 629 461 629 425 629 c 6,9,-1
 276 629 l 6,10,11
 157 629 157 629 127 596 c 4,12,13
 102 569 102 569 83 528 c 5,14,15
 76 525 76 525 68.5 527 c 132,-1,16
 61 529 61 529 58 535 c 5,17,18
 81 601 81 601 99 685 c 5,19,20
 107 691 107 691 116 685 c 5,21,22
 118 668 118 668 135 664 c 132,-1,23
 152 660 152 660 215 660 c 6,24,-1
 479 660 l 6,25,26
 578 660 578 660 594 663 c 4,27,28
 600 662 600 662 600 654 c 5,29,30
 581 638 581 638 529.5 570 c 132,-1,31
 478 502 478 502 436 440 c 6,32,-1
 271 202 l 6,33,34
 172 58 172 58 172 47 c 132,-1,35
 172 36 172 36 200 33 c 4,36,37
 226 31 226 31 348 31 c 4,38,39
 491 31 491 31 533 54 c 4,40,41
 572 76 572 76 603 146 c 5,42,43
 623 153 623 153 628 139 c 5,44,45
 608 36 608 36 583 -3 c 5,46,47
 529 -1 529 -1 498 -1 c 4,48,49
 468 0 468 0 401 0 c 6,50,-1
 144 0 l 6,51,52
 101 0 101 0 32 -3 c 4,53,54
 27 -0 27 -0 27 9 c 5,55,56
 43 24 43 24 78 67.5 c 132,-1,57
 113 111 113 111 136 145 c 6,0,-1
EndSplineSet
Validated: 1
EndChar

StartChar: bracketleft
Encoding: 91 91 60
Width: 320
Flags: MW
HStem: -150 30 656 30
VStem: 117 53<14 51 51 485>
LayerCount: 2
Fore
SplineSet
117 -150 m 1,0,-1
 117 686 l 1,1,-1
 186 686 l 2,2,3
 202 686 202 686 220.5 685.5 c 128,-1,4
 239 685 239 685 261.5 684 c 128,-1,5
 284 683 284 683 296 683 c 1,6,7
 309 675 309 675 297 661 c 1,8,-1
 208 651 l 2,9,10
 192 650 192 650 183 641 c 0,11,12
 170 628 170 628 170 485 c 2,13,-1
 170 51 l 2,14,15
 170 -92 170 -92 183 -105 c 0,16,17
 192 -114 192 -114 208 -115 c 2,18,-1
 297 -125 l 1,19,20
 309 -139 309 -139 296 -147 c 1,21,22
 284 -147 284 -147 261.5 -148 c 128,-1,23
 239 -149 239 -149 220.5 -149.5 c 128,-1,24
 202 -150 202 -150 186 -150 c 2,25,-1
 117 -150 l 1,0,-1
EndSplineSet
Validated: 1
EndChar

StartChar: backslash
Encoding: 92 92 61
Width: 309
Flags: MW
HStem: -16 21G<221 279 221 221>
VStem: 30 249
LayerCount: 2
Fore
SplineSet
88 686 m 1,0,-1
 279 -16 l 1,1,-1
 221 -16 l 1,2,-1
 30 686 l 1,3,-1
 88 686 l 1,0,-1
EndSplineSet
Validated: 1
EndChar

StartChar: bracketright
Encoding: 93 93 62
Width: 320
Flags: MW
HStem: -150 30 656 30
VStem: 150 53<51 485 485 522>
LayerCount: 2
Fore
SplineSet
203 686 m 1,0,-1
 203 -150 l 1,1,-1
 134 -150 l 2,2,3
 118 -150 118 -150 99.5 -149.5 c 128,-1,4
 81 -149 81 -149 58.5 -148 c 128,-1,5
 36 -147 36 -147 24 -147 c 1,6,7
 11 -139 11 -139 23 -125 c 1,8,-1
 112 -115 l 2,9,10
 128 -114 128 -114 137 -105 c 0,11,12
 150 -92 150 -92 150 51 c 2,13,-1
 150 485 l 2,14,15
 150 628 150 628 137 641 c 0,16,17
 128 650 128 650 112 651 c 2,18,-1
 23 661 l 1,19,20
 11 675 11 675 24 683 c 1,21,22
 36 683 36 683 58.5 684 c 128,-1,23
 81 685 81 685 99.5 685.5 c 128,-1,24
 118 686 118 686 134 686 c 2,25,-1
 203 686 l 1,0,-1
EndSplineSet
Validated: 1
EndChar

StartChar: asciicircum
Encoding: 94 94 63
Width: 500
Flags: MW
HStem: 244 21G<49 112 49 49 388 450 388 388> 555 71<250 250> 606 20G<226 274 274 274>
VStem: 49 401<244 244>
LayerCount: 2
Fore
SplineSet
450 244 m 1,0,-1
 388 244 l 1,1,-1
 250 555 l 1,2,-1
 112 244 l 1,3,-1
 49 244 l 1,4,-1
 226 626 l 1,5,-1
 274 626 l 1,6,-1
 450 244 l 1,0,-1
EndSplineSet
Validated: 1
EndChar

StartChar: underscore
Encoding: 95 95 64
Width: 500
Flags: MW
HStem: -125 50<0 500 0 500>
VStem: 0 500<-125 -75 -125 -75>
LayerCount: 2
Fore
SplineSet
500 -75 m 1,0,-1
 500 -125 l 1,1,-1
 0 -125 l 1,2,-1
 0 -75 l 1,3,-1
 500 -75 l 1,0,-1
EndSplineSet
Validated: 1
EndChar

StartChar: quoteleft
Encoding: 8216 8216 65
Width: 235
Flags: MW
HStem: 473 232
VStem: 55 48<579 603.5>
LayerCount: 2
Fore
SplineSet
132 473 m 0,0,1
 101 473 101 473 78 501.5 c 128,-1,2
 55 530 55 530 55 569 c 0,3,4
 55 618 55 618 88 654 c 128,-1,5
 121 690 121 690 172 705 c 1,6,7
 188 697 188 697 179 684 c 1,8,9
 103 649 103 649 103 598 c 0,10,11
 103 572 103 572 119.5 557.5 c 128,-1,12
 136 543 136 543 153 542 c 0,13,14
 180 540 180 540 180 514 c 0,15,16
 180 499 180 499 169 486 c 128,-1,17
 158 473 158 473 132 473 c 0,0,1
EndSplineSet
Validated: 1
EndChar

StartChar: a
Encoding: 97 97 66
Width: 404
Flags: MW
HStem: -14 44<347.5 352.5> 369 39<186.5 213>
VStem: 35 77<82.5 98.5> 254.5 69.5
LayerCount: 2
Fore
SplineSet
118 164 m 2,0,-1
 237 207 l 2,1,2
 247 210 247 210 250 216.5 c 128,-1,3
 253 223 253 223 254 236 c 2,4,-1
 255 282 l 2,5,6
 257 369 257 369 182 369 c 0,7,8
 158 369 158 369 138.5 357.5 c 128,-1,9
 119 346 119 346 118 324 c 0,10,11
 116 296 116 296 108 290 c 0,12,13
 84 271 84 271 51 271 c 0,14,15
 37 271 37 271 37 285 c 0,16,17
 37 323 37 323 102 365.5 c 128,-1,18
 167 408 167 408 223 408 c 0,19,20
 277 408 277 408 303 378 c 128,-1,21
 329 348 329 348 327 291 c 2,22,-1
 321 117 l 2,23,24
 317 30 317 30 367 30 c 0,25,26
 380 30 380 30 392 36 c 0,27,28
 404 43 404 43 405 43 c 0,29,30
 412 43 412 43 412 30 c 0,31,32
 412 27 412 27 402 16.5 c 128,-1,33
 392 6 392 6 371 -4 c 128,-1,34
 350 -14 350 -14 328 -14 c 0,35,36
 287 -14 287 -14 263 17 c 0,37,38
 254 31 254 31 247 31 c 0,39,40
 244 31 244 31 208 11 c 0,41,42
 162 -14 162 -14 136 -14 c 0,43,44
 92 -14 92 -14 66 9 c 0,45,46
 35 37 35 37 35 79 c 0,47,48
 35 109 35 109 53 128 c 128,-1,49
 71 147 71 147 118 164 c 2,0,-1
112 91 m 0,50,51
 112 72 112 72 127 51.5 c 128,-1,52
 142 31 142 31 175 31 c 0,53,54
 189 31 189 31 208.5 39.5 c 128,-1,55
 228 48 228 48 236 56 c 0,56,57
 249 69 249 69 249 103 c 2,58,-1
 251 162 l 2,59,60
 251 175 251 175 241 175 c 0,61,62
 230 175 230 175 200 165 c 0,63,64
 152 149 152 149 132 133.5 c 128,-1,65
 112 118 112 118 112 91 c 0,50,51
EndSplineSet
Validated: 33
EndChar

StartChar: b
Encoding: 98 98 67
Width: 500
Flags: MW
HStem: -14 30<234 297 234 302> -4 20 365 43<249.5 278.5> 695 20G<143 145>
VStem: 75 74<118.5 136 136 292 387.5 396 396 564 564 585> 381 84<145.5 233.5>
LayerCount: 2
Fore
SplineSet
75 87 m 2,0,-1
 75 564 l 2,1,2
 75 609 75 609 70.5 621.5 c 128,-1,3
 66 634 66 634 44 647 c 2,4,-1
 34 653 l 2,5,6
 30 655 30 655 30 663 c 128,-1,7
 30 671 30 671 34 673 c 0,8,9
 41 676 41 676 62.5 683 c 128,-1,10
 84 690 84 690 105 698 c 128,-1,11
 126 706 126 706 143 715 c 0,12,13
 150 715 150 715 153 709 c 0,14,15
 149 639 149 639 149 585 c 2,16,-1
 149 396 l 2,17,18
 149 375 149 375 159 375 c 1,19,20
 216 408 216 408 274 408 c 0,21,22
 358 408 358 408 411.5 352 c 128,-1,23
 465 296 465 296 465 212 c 0,24,25
 465 112 465 112 400.5 49 c 128,-1,26
 336 -14 336 -14 235 -14 c 0,27,28
 187 -14 187 -14 150 -1 c 0,29,30
 142 1 142 1 132.5 4.5 c 128,-1,31
 123 8 123 8 117 10 c 128,-1,32
 111 12 111 12 108 12 c 0,33,34
 98 12 98 12 87 -3 c 0,35,36
 86 -4 86 -4 83 -4 c 0,37,38
 76 -4 76 -4 73 2 c 0,39,40
 75 30 75 30 75 87 c 2,0,-1
149 292 m 2,41,-1
 149 136 l 2,42,43
 149 80 149 80 174 49 c 0,44,45
 201 16 201 16 250 16 c 0,46,47
 316 16 316 16 348.5 63.5 c 128,-1,48
 381 111 381 111 381 182 c 0,49,50
 381 262 381 262 341 313.5 c 128,-1,51
 301 365 301 365 229 365 c 0,52,53
 186 365 186 365 161 349 c 0,54,55
 149 341 149 341 149 292 c 2,41,-1
EndSplineSet
Validated: 1
EndChar

StartChar: c
Encoding: 99 99 68
Width: 400
Flags: MW
HStem: -14 56<215.5 260> 374 34<211 266.5>
VStem: 36 72<174 239>
LayerCount: 2
Fore
SplineSet
278 408 m 4,0,1
 329 408 329 408 367 391 c 5,2,3
 382 378 382 378 382 351 c 4,4,5
 382 337 382 337 375.5 325.5 c 132,-1,6
 369 314 369 314 360 314 c 4,7,8
 352 314 352 314 346 321 c 4,9,10
 303 374 303 374 246 374 c 4,11,12
 190 374 190 374 149 331 c 132,-1,13
 108 288 108 288 108 213 c 4,14,15
 108 148 108 148 151 95 c 132,-1,16
 194 42 194 42 269 42 c 4,17,18
 339 42 339 42 380 102 c 4,19,20
 386 104 386 104 391.5 99.5 c 132,-1,21
 397 95 397 95 398 88 c 4,22,23
 374 37 374 37 327 11.5 c 132,-1,24
 280 -14 280 -14 231 -14 c 4,25,26
 146 -14 146 -14 94 37 c 4,27,28
 36 93 36 93 36 185 c 4,29,30
 36 275 36 275 99 341.5 c 132,-1,31
 162 408 162 408 278 408 c 4,0,1
EndSplineSet
Validated: 1
EndChar

StartChar: d
Encoding: 100 100 69
Width: 509
Flags: MW
HStem: -14 48<217 244> 8 22 377 31<209.5 274.5> 379 20G<344 346.5> 695 20G<417 419>
VStem: 35 82<165.5 248> 350 74<106.5 146 146 296 296 306 413 564 564 585>
LayerCount: 2
Fore
SplineSet
424 585 m 6,0,-1
 424 146 l 6,1,2
 424 79 424 79 429 54.5 c 132,-1,3
 434 30 434 30 453 30 c 4,4,5
 466 30 466 30 496 40 c 4,6,7
 502 38 502 38 502 25 c 132,-1,8
 502 12 502 12 495 8 c 4,9,10
 416 -3 416 -3 363 -24 c 5,11,12
 352 -24 352 -24 352 -16 c 6,13,-1
 352 1 l 6,14,15
 352 28 352 28 350 32 c 5,16,-1
 346 32 l 5,17,18
 279 -14 279 -14 220 -14 c 4,19,20
 138 -14 138 -14 86.5 41.5 c 132,-1,21
 35 97 35 97 35 178 c 4,22,23
 35 281 35 281 104 344.5 c 132,-1,24
 173 408 173 408 277 408 c 4,25,26
 319 408 319 408 344 399 c 4,27,28
 350 399 350 399 350 413 c 6,29,-1
 350 564 l 6,30,31
 350 609 350 609 345.5 621.5 c 132,-1,32
 341 634 341 634 319 647 c 6,33,-1
 309 653 l 6,34,35
 305 655 305 655 305 663 c 132,-1,36
 305 671 305 671 309 673 c 4,37,38
 381 696 381 696 417 715 c 4,39,40
 424 715 424 715 427 709 c 4,41,42
 424 619 424 619 424 585 c 6,0,-1
350 99 m 6,43,-1
 350 296 l 6,44,45
 350 319 350 319 339 335 c 4,46,47
 309 377 309 377 255 377 c 4,48,49
 190 377 190 377 153.5 328.5 c 132,-1,50
 117 280 117 280 117 211 c 4,51,52
 117 138 117 138 156.5 86 c 132,-1,53
 196 34 196 34 266 34 c 4,54,55
 315 34 315 34 343 62 c 4,56,57
 350 69 350 69 350 99 c 6,43,-1
EndSplineSet
Validated: 1
EndChar

StartChar: e
Encoding: 101 101 70
Width: 396
Flags: MW
HStem: -14 56<215.5 248> 256 30<121 130 130 192 192 229> 378 30<195.5 254>
VStem: 35 68<178.5 241.5 178.5 243.5> 302 76<308.5 319 282 329>
LayerCount: 2
Fore
SplineSet
315 256 m 2,0,-1
 130 256 l 2,1,2
 111 256 111 256 107 252 c 128,-1,3
 103 248 103 248 103 229 c 0,4,5
 103 150 103 150 147.5 96 c 128,-1,6
 192 42 192 42 269 42 c 0,7,8
 322 42 322 42 361 91 c 1,9,10
 377 96 377 96 379 79 c 1,11,12
 356 32 356 32 311.5 9 c 128,-1,13
 267 -14 267 -14 222 -14 c 0,14,15
 127 -14 127 -14 77 52 c 0,16,17
 35 107 35 107 35 182 c 0,18,19
 35 276 35 276 91.5 342 c 128,-1,20
 148 408 148 408 236 408 c 0,21,22
 298 408 298 408 338 372 c 128,-1,23
 378 336 378 336 378 289 c 0,24,25
 378 271 378 271 374 263 c 0,26,27
 370 256 370 256 315 256 c 2,0,-1
121 286 m 2,28,-1
 192 286 l 2,29,30
 283 286 283 286 296 296 c 0,31,32
 302 300 302 300 302 315 c 0,33,34
 302 340 302 340 283.5 359 c 128,-1,35
 265 378 265 378 225 378 c 0,36,37
 184 378 184 378 149.5 348 c 128,-1,38
 115 318 115 318 114 291 c 0,39,40
 114 286 114 286 121 286 c 2,28,-1
EndSplineSet
Validated: 1
EndChar

StartChar: f
Encoding: 102 102 71
Width: 290
Flags: MW
HStem: -3 26.5 352 42<177.5 300 186 293> 675 40<256.5 278.5>
VStem: 95 74<112 323 408.5 422 422 441>
LayerCount: 2
Fore
SplineSet
293 352 m 1,0,-1
 186 352 l 2,1,2
 174 352 174 352 171.5 348 c 128,-1,3
 169 344 169 344 169 323 c 2,4,-1
 169 112 l 2,5,6
 169 56 169 56 175 41.5 c 128,-1,7
 181 27 181 27 207 25 c 2,8,-1
 243 22 l 2,9,10
 248 18 248 18 247 8.5 c 128,-1,11
 246 -1 246 -1 241 -3 c 0,12,13
 174 0 174 0 132 0 c 0,14,15
 81 0 81 0 36 -3 c 0,16,17
 31 -1 31 -1 30 8.5 c 128,-1,18
 29 18 29 18 34 22 c 2,19,-1
 57 25 l 2,20,21
 84 29 84 29 89.5 42.5 c 128,-1,22
 95 56 95 56 95 112 c 2,23,-1
 95 323 l 2,24,25
 95 344 95 344 92.5 348 c 128,-1,26
 90 352 90 352 75 352 c 2,27,-1
 40 352 l 1,28,29
 29 359 29 359 37 371 c 1,30,-1
 80 392 l 2,31,32
 95 400 95 400 95 412 c 0,33,34
 95 516 95 516 126 588 c 0,35,36
 149 640 149 640 194 677.5 c 128,-1,37
 239 715 239 715 306 715 c 0,38,39
 347 715 347 715 375.5 698 c 128,-1,40
 404 681 404 681 404 655 c 0,41,42
 404 640 404 640 392.5 629.5 c 128,-1,43
 381 619 381 619 366 619 c 0,44,45
 352 619 352 619 342 631 c 0,46,47
 304 675 304 675 262 675 c 0,48,49
 214 675 214 675 191 620 c 0,50,51
 169 564 169 564 169 451 c 2,52,-1
 169 422 l 2,53,54
 169 402 169 402 171 398 c 128,-1,55
 173 394 173 394 186 394 c 2,56,-1
 300 394 l 1,57,58
 308 386 308 386 305 370.5 c 128,-1,59
 302 355 302 355 293 352 c 1,0,-1
EndSplineSet
Validated: 1
EndChar

StartChar: g
Encoding: 103 103 72
Width: 446
Flags: MW
HStem: -269 43<191.5 259> -32 62<221 331 237 331> 121 29<193 244 193 265.5> 331 41<368 440 368 368> 379 29<186 227 163.5 240.5>
VStem: 28 75<-154 -145> 42 72<36.5 83.5> 45 81<231.5 300> 299 71<245.5 288> 385 58<-134.5 -88.5>
LayerCount: 2
Fore
SplineSet
365 372 m 6,0,-1
 446 372 l 5,1,2
 455 368 455 368 453 350 c 132,-1,3
 451 332 451 332 440 331 c 6,4,-1
 368 331 l 5,5,6
 370 314 370 314 370 280 c 4,7,8
 370 252 370 252 361 225.5 c 132,-1,9
 352 199 352 199 334 175 c 132,-1,10
 316 151 316 151 281.5 136 c 132,-1,11
 247 121 247 121 202 121 c 4,12,13
 194 121 194 121 158 124 c 5,14,15
 114 98 114 98 114 69 c 4,16,17
 114 51 114 51 132 39 c 132,-1,18
 150 27 150 27 184 27 c 4,19,20
 200 27 200 27 240 28.5 c 132,-1,21
 280 30 280 30 303 30 c 4,22,23
 443 30 443 30 443 -80 c 4,24,25
 443 -160 443 -160 368.5 -214.5 c 132,-1,26
 294 -269 294 -269 194 -269 c 4,27,28
 110 -269 110 -269 69 -233.5 c 132,-1,29
 28 -198 28 -198 28 -153 c 4,30,31
 28 -129 28 -129 39 -116 c 4,32,33
 49 -106 49 -106 74 -81.5 c 132,-1,34
 99 -57 99 -57 107 -49 c 4,35,36
 125 -31 125 -31 115 -25 c 4,37,38
 85 -17 85 -17 63.5 5.5 c 132,-1,39
 42 28 42 28 42 54 c 4,40,41
 42 60 42 60 57 71 c 4,42,43
 82 87 82 87 110 117 c 4,44,45
 120 129 120 129 120 136 c 5,46,47
 45 176 45 176 45 257 c 4,48,49
 45 321 45 321 93 364.5 c 132,-1,50
 141 408 141 408 208 408 c 4,51,52
 258 408 258 408 304 388 c 4,53,54
 341 372 341 372 365 372 c 6,0,-1
271 -32 m 6,55,-1
 237 -32 l 6,56,57
 168 -32 168 -32 151 -43 c 4,58,59
 103 -73 103 -73 103 -127 c 4,60,61
 103 -170 103 -170 137.5 -198 c 132,-1,62
 172 -226 172 -226 237 -226 c 132,-1,63
 302 -226 302 -226 343.5 -194.5 c 132,-1,64
 385 -163 385 -163 385 -119 c 4,65,66
 385 -32 385 -32 271 -32 c 6,55,-1
217 150 m 4,67,68
 256 150 256 150 277.5 178.5 c 132,-1,69
 299 207 299 207 299 254 c 4,70,71
 299 308 299 308 276.5 343.5 c 132,-1,72
 254 379 254 379 210 379 c 4,73,74
 173 379 173 379 149.5 348 c 132,-1,75
 126 317 126 317 126 267 c 4,76,77
 126 215 126 215 153 182.5 c 132,-1,78
 180 150 180 150 217 150 c 4,67,68
EndSplineSet
Validated: 1
EndChar

StartChar: h
Encoding: 104 104 73
Width: 515
Flags: MW
HStem: -3 26.5 362 46<275.5 293> 695 20G<155 157>
VStem: 88 74<112 280 370.5 375 375 564 564 585> 356 74<112 255 255 279>
LayerCount: 2
Fore
SplineSet
88 112 m 6,0,-1
 88 564 l 6,1,2
 88 609 88 609 83.5 621.5 c 132,-1,3
 79 634 79 634 57 647 c 6,4,-1
 47 653 l 6,5,6
 43 655 43 655 43 663 c 132,-1,7
 43 671 43 671 47 673 c 4,8,9
 119 696 119 696 155 715 c 4,10,11
 162 715 162 715 165 709 c 4,12,13
 162 619 162 619 162 585 c 6,14,-1
 162 375 l 6,15,16
 162 359 162 359 166 356 c 5,17,18
 233 408 233 408 301 408 c 4,19,20
 368 408 368 408 399 372 c 132,-1,21
 430 336 430 336 430 279 c 6,22,-1
 430 112 l 6,23,24
 430 56 430 56 436 42 c 132,-1,25
 442 28 442 28 468 25 c 6,26,-1
 495 22 l 6,27,28
 500 18 500 18 499 8.5 c 132,-1,29
 498 -1 498 -1 493 -3 c 4,30,31
 439 0 439 0 393 0 c 4,32,33
 340 0 340 0 300 -3 c 4,34,35
 295 -1 295 -1 294 8.5 c 132,-1,36
 293 18 293 18 298 22 c 6,37,-1
 318 25 l 6,38,39
 345 29 345 29 350.5 42.5 c 132,-1,40
 356 56 356 56 356 112 c 6,41,-1
 356 255 l 6,42,43
 356 305 356 305 332 333.5 c 132,-1,44
 308 362 308 362 261 362 c 4,45,46
 215 362 215 362 183 335 c 4,47,48
 169 323 169 323 165.5 314.5 c 132,-1,49
 162 306 162 306 162 280 c 6,50,-1
 162 112 l 6,51,52
 162 57 162 57 168 43 c 132,-1,53
 174 29 174 29 200 25 c 6,54,-1
 221 22 l 6,55,56
 226 19 226 19 225 9 c 132,-1,57
 224 -1 224 -1 219 -3 c 4,58,59
 174 0 174 0 125 0 c 4,60,61
 75 0 75 0 27 -3 c 4,62,63
 22 -1 22 -1 21 8.5 c 132,-1,64
 20 18 20 18 25 22 c 6,65,-1
 50 25 l 6,66,67
 77 28 77 28 82.5 42 c 132,-1,68
 88 56 88 56 88 112 c 6,0,-1
EndSplineSet
Validated: 1
EndChar

StartChar: i
Encoding: 105 105 74
Width: 257
Flags: MW
HStem: -3 26.5 560 102<116.5 141.5>
VStem: 77 103<595.5 625 593.5 625.5> 98 74<112 287 287 292>
LayerCount: 2
Fore
SplineSet
98 112 m 2,0,-1
 98 287 l 2,1,2
 98 318 98 318 94.5 327 c 128,-1,3
 91 336 91 336 71 349 c 2,4,-1
 62 355 l 2,5,6
 59 358 59 358 59 364.5 c 128,-1,7
 59 371 59 371 63 373 c 0,8,9
 123 394 123 394 166 422 c 1,10,11
 174 422 174 422 176 416 c 0,12,13
 172 346 172 346 172 292 c 2,14,-1
 172 112 l 2,15,16
 172 57 172 57 178 43 c 128,-1,17
 184 29 184 29 210 25 c 2,18,-1
 231 22 l 2,19,20
 236 18 236 18 235 8.5 c 128,-1,21
 234 -1 234 -1 229 -3 c 0,22,23
 184 0 184 0 135 0 c 0,24,25
 83 0 83 0 41 -3 c 0,26,27
 36 -1 36 -1 35 8.5 c 128,-1,28
 34 18 34 18 39 22 c 2,29,-1
 60 25 l 2,30,31
 87 29 87 29 92.5 42.5 c 128,-1,32
 98 56 98 56 98 112 c 2,0,-1
131 662 m 4,33,34
 153 662 153 662 166.5 647.5 c 132,-1,35
 180 633 180 633 180 611 c 4,36,37
 180 586 180 586 165 573 c 132,-1,38
 150 560 150 560 128 560 c 4,39,40
 105 560 105 560 91 574 c 132,-1,41
 77 588 77 588 77 609 c 4,42,43
 77 633 77 633 92.5 647.5 c 132,-1,44
 108 662 108 662 131 662 c 4,33,34
EndSplineSet
Validated: 1
EndChar

StartChar: j
Encoding: 106 106 75
Width: 253
Flags: MW
HStem: -269 21G 552 102<118.5 143.5>
VStem: 79 103<587.5 617 585.5 617.5> 100 74<35 50 50 287 287 292>
LayerCount: 2
Fore
SplineSet
100 35 m 2,0,-1
 100 287 l 2,1,2
 100 318 100 318 96.5 327 c 128,-1,3
 93 336 93 336 73 349 c 2,4,-1
 64 355 l 2,5,6
 61 358 61 358 61 364.5 c 128,-1,7
 61 371 61 371 65 373 c 0,8,9
 125 394 125 394 168 422 c 1,10,11
 176 422 176 422 178 416 c 0,12,13
 174 346 174 346 174 292 c 2,14,-1
 174 50 l 2,15,16
 174 -55 174 -55 153 -106 c 0,17,18
 115 -198 115 -198 1 -269 c 1,19,20
 -8 -268 -8 -268 -12 -261 c 128,-1,21
 -16 -254 -16 -254 -13 -246 c 1,22,23
 22 -229 22 -229 46 -201 c 0,24,25
 100 -138 100 -138 100 35 c 2,0,-1
133 654 m 0,26,27
 155 654 155 654 168.5 639.5 c 128,-1,28
 182 625 182 625 182 603 c 0,29,30
 182 578 182 578 167 565 c 128,-1,31
 152 552 152 552 130 552 c 0,32,33
 107 552 107 552 93 566 c 128,-1,34
 79 580 79 580 79 601 c 0,35,36
 79 625 79 625 94.5 639.5 c 128,-1,37
 110 654 110 654 133 654 c 0,26,27
EndSplineSet
Validated: 1
EndChar

StartChar: k
Encoding: 107 107 76
Width: 482
Flags: MW
HStem: -3 26.5 201 26<172 186.5> 367.5 26.5 374 20<278 301 301 323> 382 20G 695 20G<155 157>
VStem: 88 74<112 167 235.5 242 242 564 564 585> 271 195
LayerCount: 2
Fore
SplineSet
88 112 m 2,0,-1
 88 564 l 2,1,2
 88 609 88 609 83.5 621.5 c 128,-1,3
 79 634 79 634 57 647 c 2,4,-1
 47 653 l 2,5,6
 43 655 43 655 43 663 c 128,-1,7
 43 671 43 671 47 673 c 0,8,9
 119 696 119 696 155 715 c 0,10,11
 162 715 162 715 165 709 c 0,12,13
 162 619 162 619 162 585 c 2,14,-1
 162 242 l 2,15,16
 162 232 162 232 165 229.5 c 128,-1,17
 168 227 168 227 180 227 c 0,18,19
 210 227 210 227 248 266 c 2,20,-1
 289 310 l 2,21,22
 324 348 324 348 324 356 c 0,23,24
 324 363 324 363 302 366 c 2,25,-1
 278 369 l 2,26,27
 271 371 271 371 271 381.5 c 128,-1,28
 271 392 271 392 278 394 c 2,29,-1
 301 394 l 2,30,31
 385 394 385 394 460 402 c 0,32,33
 465 400 465 400 466 390.5 c 128,-1,34
 467 381 467 381 462 377 c 2,35,-1
 430 371 l 2,36,37
 404 366 404 366 367 336 c 0,38,39
 354 326 354 326 276 252 c 0,40,41
 261 238 261 238 269 228 c 0,42,43
 291 199 291 199 336 148 c 0,44,45
 407 68 407 68 430 46 c 0,46,47
 448 30 448 30 482 24 c 2,48,-1
 496 22 l 2,49,50
 501 18 501 18 500.5 8.5 c 128,-1,51
 500 -1 500 -1 494 -3 c 0,52,53
 450 0 450 0 399 0 c 0,54,55
 338 0 338 0 295 -3 c 0,56,57
 289 -0 289 -0 288.5 9.5 c 128,-1,58
 288 19 288 19 293 22 c 2,59,-1
 311 25 l 2,60,61
 336 28 336 28 336 35 c 0,62,63
 336 43 336 43 319 63 c 2,64,-1
 212 187 l 2,65,66
 199 201 199 201 181 201 c 0,67,68
 168 201 168 201 165 196 c 128,-1,69
 162 191 162 191 162 167 c 2,70,-1
 162 112 l 2,71,72
 162 57 162 57 168 43 c 128,-1,73
 174 29 174 29 200 25 c 2,74,-1
 224 22 l 2,75,76
 229 18 229 18 228 8.5 c 128,-1,77
 227 -1 227 -1 222 -3 c 0,78,79
 172 0 172 0 125 0 c 0,80,81
 74 0 74 0 29 -3 c 0,82,83
 24 -1 24 -1 23 8.5 c 128,-1,84
 22 18 22 18 28 22 c 2,85,-1
 50 25 l 2,86,87
 77 29 77 29 82.5 42.5 c 128,-1,88
 88 56 88 56 88 112 c 2,0,-1
EndSplineSet
Validated: 1
EndChar

StartChar: l
Encoding: 108 108 77
Width: 247
Flags: MW
HStem: -3 26.5 695 20G<155 157>
VStem: 88 74<112 564 564 585>
LayerCount: 2
Fore
SplineSet
162 585 m 2,0,-1
 162 112 l 2,1,2
 162 57 162 57 168 43 c 128,-1,3
 174 29 174 29 200 25 c 2,4,-1
 224 22 l 2,5,6
 229 18 229 18 228 8.5 c 128,-1,7
 227 -1 227 -1 222 -3 c 0,8,9
 172 0 172 0 125 0 c 0,10,11
 74 0 74 0 29 -3 c 0,12,13
 24 -1 24 -1 23 8.5 c 128,-1,14
 22 18 22 18 27 22 c 2,15,-1
 50 25 l 2,16,17
 77 29 77 29 82.5 42.5 c 128,-1,18
 88 56 88 56 88 112 c 2,19,-1
 88 564 l 2,20,21
 88 609 88 609 83.5 621.5 c 128,-1,22
 79 634 79 634 57 647 c 2,23,-1
 47 653 l 2,24,25
 43 655 43 655 43 663 c 128,-1,26
 43 671 43 671 47 673 c 0,27,28
 119 696 119 696 155 715 c 0,29,30
 162 715 162 715 165 709 c 0,31,32
 162 619 162 619 162 585 c 2,0,-1
EndSplineSet
Validated: 1
EndChar

StartChar: m
Encoding: 109 109 78
Width: 787
Flags: MW
HStem: -3 26.5 360 48<292 302 559.5 566.5>
VStem: 98 74<112 267> 363 74<112 257 257 265> 628 74<112 257 257 284>
CounterMasks: 1 38
LayerCount: 2
Fore
SplineSet
628 112 m 2,0,-1
 628 257 l 2,1,2
 628 360 628 360 535 360 c 0,3,4
 479 360 479 360 452 325 c 0,5,6
 437 306 437 306 437 265 c 2,7,-1
 437 112 l 2,8,9
 437 57 437 57 443 43 c 128,-1,10
 449 29 449 29 475 25 c 2,11,-1
 496 22 l 2,12,13
 501 18 501 18 500 8.5 c 128,-1,14
 499 -1 499 -1 494 -3 c 0,15,16
 449 0 449 0 400 0 c 128,-1,17
 351 0 351 0 309 -3 c 0,18,19
 304 -1 304 -1 303 8.5 c 128,-1,20
 302 18 302 18 307 22 c 2,21,-1
 325 25 l 2,22,23
 352 29 352 29 357.5 42.5 c 128,-1,24
 363 56 363 56 363 112 c 2,25,-1
 363 257 l 2,26,27
 363 360 363 360 271 360 c 0,28,29
 217 360 217 360 187 324 c 0,30,31
 172 306 172 306 172 267 c 2,32,-1
 172 112 l 2,33,34
 172 57 172 57 177.5 43 c 128,-1,35
 183 29 183 29 210 25 c 2,36,-1
 228 22 l 2,37,38
 233 18 233 18 232 8.5 c 128,-1,39
 231 -1 231 -1 226 -3 c 0,40,41
 186 0 186 0 135 0 c 128,-1,42
 84 0 84 0 38 -3 c 0,43,44
 33 -1 33 -1 32 8.5 c 128,-1,45
 31 18 31 18 36 22 c 2,46,-1
 60 25 l 2,47,48
 87 29 87 29 92.5 42.5 c 128,-1,49
 98 56 98 56 98 112 c 2,50,-1
 98 287 l 2,51,52
 98 318 98 318 94.5 327 c 128,-1,53
 91 336 91 336 71 349 c 2,54,-1
 62 355 l 2,55,56
 59 358 59 358 59 364.5 c 128,-1,57
 59 371 59 371 63 373 c 0,58,59
 83 380 83 380 116 396 c 128,-1,60
 149 412 149 412 163 422 c 1,61,62
 171 422 171 422 174 415 c 0,63,64
 172 392 172 392 172 368 c 0,65,66
 172 357 172 357 183 357 c 1,67,68
 255 408 255 408 316 408 c 0,69,70
 353 408 353 408 376.5 394.5 c 128,-1,71
 400 381 400 381 422 349 c 1,72,73
 432 347 432 347 447 357 c 0,74,75
 520 408 520 408 583 408 c 0,76,77
 641 408 641 408 671.5 373 c 128,-1,78
 702 338 702 338 702 284 c 2,79,-1
 702 112 l 2,80,81
 702 57 702 57 708 43 c 128,-1,82
 714 29 714 29 740 25 c 2,83,-1
 764 22 l 2,84,85
 769 18 769 18 768 8.5 c 128,-1,86
 767 -1 767 -1 762 -3 c 0,87,88
 712 0 712 0 665 0 c 0,89,90
 616 0 616 0 574 -3 c 0,91,92
 569 -1 569 -1 568 8.5 c 128,-1,93
 567 18 567 18 572 22 c 2,94,-1
 590 25 l 2,95,96
 617 29 617 29 622.5 42.5 c 128,-1,97
 628 56 628 56 628 112 c 2,0,-1
EndSplineSet
Validated: 1
EndChar

StartChar: n
Encoding: 110 110 79
Width: 525
Flags: MW
HStem: -3 26.5 360 48<297.5 306>
VStem: 98 74<112 265> 366 74<112 261 261 284>
LayerCount: 2
Fore
SplineSet
98 112 m 2,0,-1
 98 287 l 2,1,2
 98 318 98 318 94.5 327 c 128,-1,3
 91 336 91 336 71 349 c 2,4,-1
 62 355 l 2,5,6
 59 358 59 358 59 364.5 c 128,-1,7
 59 371 59 371 63 373 c 0,8,9
 83 380 83 380 116 396 c 128,-1,10
 149 412 149 412 163 422 c 1,11,12
 171 422 171 422 174 415 c 0,13,14
 172 392 172 392 172 368 c 0,15,16
 172 357 172 357 183 357 c 1,17,18
 265 408 265 408 323 408 c 0,19,20
 382 408 382 408 411 373 c 128,-1,21
 440 338 440 338 440 284 c 2,22,-1
 440 112 l 2,23,24
 440 57 440 57 446 43 c 128,-1,25
 452 29 452 29 478 25 c 2,26,-1
 500 22 l 2,27,28
 505 18 505 18 504 8.5 c 128,-1,29
 503 -1 503 -1 498 -3 c 0,30,31
 453 0 453 0 404 0 c 0,32,33
 352 0 352 0 311 -3 c 0,34,35
 306 -1 306 -1 305 8.5 c 128,-1,36
 304 18 304 18 309 22 c 2,37,-1
 328 25 l 2,38,39
 355 29 355 29 360.5 42.5 c 128,-1,40
 366 56 366 56 366 112 c 2,41,-1
 366 261 l 2,42,43
 366 360 366 360 272 360 c 0,44,45
 213 360 213 360 187 325 c 0,46,47
 172 305 172 305 172 265 c 2,48,-1
 172 112 l 2,49,50
 172 57 172 57 177.5 43 c 128,-1,51
 183 29 183 29 210 25 c 2,52,-1
 228 22 l 2,53,54
 233 18 233 18 232 8.5 c 128,-1,55
 231 -1 231 -1 226 -3 c 0,56,57
 186 0 186 0 135 0 c 0,58,59
 83 0 83 0 41 -3 c 0,60,61
 36 -1 36 -1 35 8.5 c 128,-1,62
 34 18 34 18 39 22 c 2,63,-1
 60 25 l 2,64,65
 87 29 87 29 92.5 42.5 c 128,-1,66
 98 56 98 56 98 112 c 2,0,-1
EndSplineSet
Validated: 1
EndChar

StartChar: o
Encoding: 111 111 80
Width: 486
Flags: MW
HStem: -14 30<206 294 206 302.5> 378 30<203 283.5>
VStem: 35 86<159.5 255> 365 86<146.5 227.5>
LayerCount: 2
Fore
SplineSet
248 408 m 0,0,1
 334 408 334 408 392.5 350 c 128,-1,2
 451 292 451 292 451 201 c 0,3,4
 451 107 451 107 392 46.5 c 128,-1,5
 333 -14 333 -14 240 -14 c 0,6,7
 152 -14 152 -14 93.5 43 c 128,-1,8
 35 100 35 100 35 192 c 0,9,10
 35 285 35 285 96.5 346.5 c 128,-1,11
 158 408 158 408 248 408 c 0,0,1
365 185 m 0,12,13
 365 260 365 260 333 319 c 128,-1,14
 301 378 301 378 236 378 c 0,15,16
 185 378 185 378 153 332 c 128,-1,17
 121 286 121 286 121 205 c 0,18,19
 121 130 121 130 154.5 73 c 128,-1,20
 188 16 188 16 250 16 c 0,21,22
 310 16 310 16 337.5 66.5 c 128,-1,23
 365 117 365 117 365 185 c 0,12,13
EndSplineSet
Validated: 1
EndChar

StartChar: p
Encoding: 112 112 81
Width: 507
Flags: MW
HStem: -258 27.5 -14 33<250.5 299> -10 21G 360 48<274 301>
VStem: 85 74<-143 -38 85 101 101 273> 391 81<155.5 239>
LayerCount: 2
Fore
SplineSet
85 -143 m 2,0,-1
 85 287 l 2,1,2
 85 318 85 318 81.5 327 c 128,-1,3
 78 336 78 336 58 349 c 2,4,-1
 49 355 l 2,5,6
 46 358 46 358 46 364.5 c 128,-1,7
 46 371 46 371 50 373 c 0,8,9
 110 398 110 398 149 427 c 1,10,11
 158 427 158 427 161 420 c 0,12,13
 157 384 157 384 157 374 c 0,14,15
 157 361 157 361 166 361 c 0,16,17
 168 362 168 362 179 368 c 128,-1,18
 190 374 190 374 203 380 c 128,-1,19
 216 386 216 386 232.5 393 c 128,-1,20
 249 400 249 400 268.5 404 c 128,-1,21
 288 408 288 408 306 408 c 0,22,23
 380 408 380 408 426 355.5 c 128,-1,24
 472 303 472 303 472 225 c 0,25,26
 472 121 472 121 403 53.5 c 128,-1,27
 334 -14 334 -14 228 -14 c 0,28,29
 191 -14 191 -14 173 -10 c 1,30,31
 159 -13 159 -13 159 -38 c 2,32,-1
 159 -143 l 2,33,34
 159 -197 159 -197 164.5 -210.5 c 128,-1,35
 170 -224 170 -224 197 -228 c 2,36,-1
 236 -233 l 2,37,38
 241 -237 241 -237 240 -246.5 c 128,-1,39
 239 -256 239 -256 234 -258 c 0,40,41
 162 -255 162 -255 122 -255 c 0,42,43
 70 -255 70 -255 28 -258 c 0,44,45
 23 -256 23 -256 22 -246.5 c 128,-1,46
 21 -237 21 -237 26 -233 c 2,47,-1
 47 -230 l 2,48,49
 74 -226 74 -226 79.5 -212.5 c 128,-1,50
 85 -199 85 -199 85 -143 c 2,0,-1
159 273 m 2,51,-1
 159 101 l 2,52,53
 159 78 159 78 165.5 66 c 128,-1,54
 172 54 172 54 189 41 c 0,55,56
 218 19 218 19 261 19 c 0,57,58
 321 19 321 19 356 69 c 128,-1,59
 391 119 391 119 391 199 c 0,60,61
 391 264 391 264 355.5 312 c 128,-1,62
 320 360 320 360 256 360 c 0,63,64
 197 360 197 360 171 332 c 0,65,66
 159 317 159 317 159 273 c 2,51,-1
EndSplineSet
Validated: 1
EndChar

StartChar: q
Encoding: 113 113 82
Width: 497
Flags: MW
HStem: -258 26.5 -14 40<230 257.5> 377 31<212 271.5>
VStem: 35 84<159 254.5> 349 74<-143 -13 -13 -3.5 82 231 231 257>
LayerCount: 2
Fore
SplineSet
423 278 m 2,0,-1
 423 -143 l 2,1,2
 423 -197 423 -197 429 -210.5 c 128,-1,3
 435 -224 435 -224 461 -228 c 2,4,-1
 490 -233 l 2,5,6
 495 -237 495 -237 494 -246.5 c 128,-1,7
 493 -256 493 -256 488 -258 c 0,8,9
 431 -255 431 -255 386 -255 c 0,10,11
 339 -255 339 -255 282 -258 c 0,12,13
 277 -256 277 -256 276 -246.5 c 128,-1,14
 275 -237 275 -237 280 -233 c 2,15,-1
 311 -230 l 2,16,17
 338 -227 338 -227 343.5 -213 c 128,-1,18
 349 -199 349 -199 349 -143 c 2,19,-1
 349 -13 l 2,20,21
 349 11 349 11 340 11 c 1,22,23
 297 -14 297 -14 238 -14 c 0,24,25
 185 -14 185 -14 144 5.5 c 128,-1,26
 103 25 103 25 80.5 55.5 c 128,-1,27
 58 86 58 86 46.5 118.5 c 128,-1,28
 35 151 35 151 35 182 c 0,29,30
 35 287 35 287 104.5 347.5 c 128,-1,31
 174 408 174 408 275 408 c 0,32,33
 323 408 323 408 358 398 c 0,34,35
 384 391 384 391 393 391 c 0,36,37
 401 391 401 391 420 408 c 1,38,39
 427 408 427 408 431 399 c 1,40,41
 423 367 423 367 423 278 c 2,0,-1
349 82 m 2,42,-1
 349 231 l 2,43,44
 349 307 349 307 336 331 c 0,45,46
 310 377 310 377 250 377 c 0,47,48
 193 377 193 377 156 331 c 128,-1,49
 119 285 119 285 119 214 c 0,50,51
 119 131 119 131 163 78.5 c 128,-1,52
 207 26 207 26 277 26 c 0,53,54
 329 26 329 26 342 42 c 0,55,56
 349 50 349 50 349 82 c 2,42,-1
EndSplineSet
Validated: 1
EndChar

StartChar: r
Encoding: 114 114 83
Width: 332
Flags: MW
HStem: -3 26.5 322 86<282 295> 345 63<213 297.5> 388 20G<266.5 297.5>
VStem: 98 74<112 248>
LayerCount: 2
Fore
SplineSet
98 112 m 6,0,-1
 98 287 l 6,1,2
 98 318 98 318 94.5 327 c 132,-1,3
 91 336 91 336 71 349 c 6,4,-1
 62 355 l 6,5,6
 59 358 59 358 59 364.5 c 132,-1,7
 59 371 59 371 63 373 c 4,8,9
 109 389 109 389 164 422 c 5,10,11
 172 420 172 420 172 415 c 6,12,-1
 172 357 l 6,13,14
 172 349.5 172 349.5 175 348 c 4,15,16
 247 408 247 408 285 408 c 4,17,18
 304 408 304 408 317 397 c 132,-1,19
 330 386 330 386 330 368 c 4,20,21
 330 346 330 346 316 334 c 132,-1,22
 302 322 302 322 287 322 c 4,23,24
 277 322 277 322 265 329 c 4,25,26
 241 345 241 345 221 345 c 4,27,28
 200 345 200 345 185 325 c 4,29,30
 172 307 172 307 172 248 c 6,31,-1
 172 112 l 6,32,33
 172 56 172 56 178 41.5 c 132,-1,34
 184 27 184 27 212 25 c 6,35,-1
 248 22 l 6,36,37
 253 18 253 18 252 8.5 c 132,-1,38
 251 -1 251 -1 246 -3 c 4,39,40
 176 0 176 0 135 0 c 4,41,42
 82 0 82 0 43 -3 c 4,43,44
 38 -1 38 -1 37 8.5 c 132,-1,45
 36 18 36 18 41 22 c 6,46,-1
 60 25 l 6,47,48
 87 29 87 29 92.5 42.5 c 132,-1,49
 98 56 98 56 98 112 c 6,0,-1
EndSplineSet
Validated: 1
EndChar

StartChar: s
Encoding: 115 115 84
Width: 323
Flags: MW
HStem: -14 29<130.5 177 130.5 186> 379 29<158.5 198.5>
VStem: 50 64<297.5 330.5> 226 67<62 102>
LayerCount: 2
Fore
SplineSet
186 408 m 4,0,1
 254 408 254 408 274 390 c 5,2,3
 290 351 290 351 290 309 c 4,4,5
 287 304 287 304 278.5 303 c 132,-1,6
 270 302 270 302 266 306 c 4,7,8
 238 379 238 379 178 379 c 4,9,10
 149 379 149 379 131.5 362 c 132,-1,11
 114 345 114 345 114 318 c 4,12,13
 114 303 114 303 120 291 c 132,-1,14
 126 279 126 279 140.5 267.5 c 132,-1,15
 155 256 155 256 163 251.5 c 132,-1,16
 171 247 171 247 191 235 c 4,17,18
 240 207 240 207 266.5 177.5 c 132,-1,19
 293 148 293 148 293 100 c 4,20,21
 293 46 293 46 251 16 c 132,-1,22
 209 -14 209 -14 149 -14 c 4,23,24
 80 -14 80 -14 42 16 c 5,25,26
 26 54 26 54 30 117 c 4,27,28
 34 122 34 122 41.5 122 c 132,-1,29
 49 122 49 122 53 118 c 4,30,31
 85 15 85 15 159 15 c 4,32,33
 188 15 188 15 207 31.5 c 132,-1,34
 226 48 226 48 226 79 c 4,35,36
 226 100 226 100 213 119 c 132,-1,37
 200 138 200 138 186.5 148 c 132,-1,38
 173 158 173 158 149 171 c 4,39,40
 100 199 100 199 75 227.5 c 132,-1,41
 50 256 50 256 50 294 c 4,42,43
 50 347 50 347 88.5 377.5 c 132,-1,44
 127 408 127 408 186 408 c 4,0,1
EndSplineSet
Validated: 33
EndChar

StartChar: t
Encoding: 116 116 85
Width: 307
Flags: MW
HStem: -14 44<202 217.5> 352 42<171.5 292 181 292 181 293>
VStem: 88 74<112 141 141 323 323 328>
LayerCount: 2
Fore
SplineSet
293 352 m 1,0,-1
 180 352 l 2,1,2
 168 352 168 352 165 348 c 128,-1,3
 162 344 162 344 162 328 c 2,4,-1
 162 141 l 2,5,6
 162 88 162 88 176 59 c 128,-1,7
 190 30 190 30 235 30 c 0,8,9
 249 30 249 30 262 35 c 0,10,11
 267 37 267 37 276.5 43 c 128,-1,12
 286 49 286 49 287 49 c 0,13,14
 293 49 293 49 296 43 c 128,-1,15
 299 37 299 37 297 32 c 0,16,17
 258 -14 258 -14 192 -14 c 0,18,19
 132 -14 132 -14 110 14.5 c 128,-1,20
 88 43 88 43 88 94 c 2,21,-1
 88 323 l 2,22,23
 88 343 88 343 85 347.5 c 128,-1,24
 82 352 82 352 67 352 c 2,25,-1
 39 352 l 2,26,27
 35 355 35 355 34 362 c 128,-1,28
 33 369 33 369 36 373 c 0,29,30
 81 387 81 387 100 404 c 0,31,32
 123 425 123 425 142 463 c 0,33,34
 145 465 145 465 152.5 464 c 128,-1,35
 160 463 160 463 163 458 c 2,36,-1
 163 413 l 2,37,38
 163 400 163 400 165.5 397 c 128,-1,39
 168 394 168 394 181 394 c 2,40,-1
 292 394 l 1,41,42
 301 387 301 387 300.5 372 c 128,-1,43
 300 357 300 357 293 352 c 1,0,-1
EndSplineSet
Validated: 1
EndChar

StartChar: u
Encoding: 117 117 86
Width: 512
Flags: MW
HStem: -14 46<214 235.5> 388 20G
VStem: 85 74<112.5 147 147 278 278 309.5> 353 74<120 146 146 284 284 314>
LayerCount: 2
Fore
SplineSet
159 314 m 2,0,-1
 159 147 l 2,1,2
 159 90 159 90 179 61 c 128,-1,3
 199 32 199 32 252 32 c 0,4,5
 298 32 298 32 333 62 c 0,6,7
 353 80 353 80 353 120 c 2,8,-1
 353 284 l 2,9,10
 353 317 353 317 349.5 331.5 c 128,-1,11
 346 346 346 346 340 351 c 128,-1,12
 334 356 334 356 316 363 c 2,13,-1
 303 368 l 2,14,15
 298 371 298 371 298 379 c 128,-1,16
 298 387 298 387 304 390 c 0,17,18
 386 392 386 392 421 408 c 1,19,20
 429 406 429 406 430 401 c 0,21,22
 427 373 427 373 427 314 c 2,23,-1
 427 146 l 2,24,25
 427 82 427 82 432.5 59.5 c 128,-1,26
 438 37 438 37 458 37 c 0,27,28
 474 37 474 37 497 42 c 1,29,30
 502 38 502 38 502 27 c 128,-1,31
 502 16 502 16 496 13 c 0,32,33
 394 -8 394 -8 365 -24 c 1,34,35
 356 -24 356 -24 353 -17 c 2,36,-1
 353 24 l 2,37,38
 353 38 353 38 344 38 c 1,39,40
 262 -14 262 -14 206 -14 c 0,41,42
 142 -14 142 -14 113.5 17 c 128,-1,43
 85 48 85 48 85 111 c 2,44,-1
 85 278 l 2,45,46
 85 328 85 328 81 341 c 128,-1,47
 77 354 77 354 55 363 c 2,48,-1
 43 368 l 2,49,50
 38 372 38 372 39 380 c 128,-1,51
 40 388 40 388 45 390 c 0,52,53
 106 391 106 391 152 408 c 1,54,55
 161 407 161 407 162 401 c 0,56,57
 159 375 159 375 159 314 c 2,0,-1
EndSplineSet
EndChar

StartChar: v
Encoding: 118 118 87
Width: 432
Flags: MW
HStem: -12 21G 370.5 26.5
VStem: -2 143 314 130
LayerCount: 2
Fore
SplineSet
166 92 m 2,0,-1
 82 295 l 2,1,2
 81 298 81 298 76.5 308.5 c 128,-1,3
 72 319 72 319 71 322 c 128,-1,4
 70 325 70 325 66 333 c 128,-1,5
 62 341 62 341 59.5 344 c 128,-1,6
 57 347 57 347 52.5 353 c 128,-1,7
 48 359 48 359 44 361 c 128,-1,8
 40 363 40 363 34.5 365.5 c 128,-1,9
 29 368 29 368 22 369 c 2,10,-1
 2 372 l 1,11,12
 -3 378 -3 378 -2 386.5 c 128,-1,13
 -1 395 -1 395 5 397 c 0,14,15
 42 394 42 394 99 394 c 0,16,17
 129 394 129 394 180 397 c 0,18,19
 185 394 185 394 185.5 385 c 128,-1,20
 186 376 186 376 181 372 c 2,21,-1
 169 370 l 2,22,23
 146 366 146 366 142.5 359 c 128,-1,24
 139 352 139 352 147 330 c 0,25,26
 176 243 176 243 222 139 c 0,27,28
 235 110 235 110 238 107 c 1,29,30
 244 112 244 112 257 145 c 0,31,32
 264 164 264 164 287 223 c 128,-1,33
 310 282 310 282 314 292 c 0,34,35
 332 337 332 337 332 354 c 0,36,37
 332 366 332 366 314 369 c 2,38,-1
 291 372 l 1,39,40
 286 377 286 377 287 385.5 c 128,-1,41
 288 394 288 394 293 397 c 0,42,43
 339.5 394 339.5 394 368 394 c 0,44,45
 396 394 396 394 438 397 c 0,46,47
 443 394 443 394 444 385 c 128,-1,48
 445 376 445 376 440 372 c 2,49,-1
 425 370 l 2,50,51
 418 369 418 369 412.5 367 c 128,-1,52
 407 365 407 365 403 362.5 c 128,-1,53
 399 360 399 360 394 354.5 c 128,-1,54
 389 349 389 349 386.5 346 c 128,-1,55
 384 343 384 343 378.5 333.5 c 128,-1,56
 373 324 373 324 370.5 319.5 c 128,-1,57
 368 315 368 315 361.5 302 c 128,-1,58
 355 289 355 289 352 283 c 0,59,60
 342 264 342 264 307.5 183.5 c 128,-1,61
 273 103 273 103 260 70 c 0,62,63
 259 67 259 67 247 37.5 c 128,-1,64
 235 8 235 8 227 -12 c 0,65,66
 224 -16 224 -16 217 -16 c 0,67,68
 208 -16 208 -16 204 -12 c 0,69,70
 194 23 194 23 166 92 c 2,0,-1
EndSplineSet
Validated: 1
EndChar

StartChar: w
Encoding: 119 119 88
Width: 660
Flags: MW
HStem: -12 21G 371 26
VStem: -5 190 315 64 520 157
LayerCount: 2
Fore
SplineSet
167 71 m 1,0,-1
 75 297 l 2,1,2
 58 337 58 337 46.5 350.5 c 128,-1,3
 35 364 35 364 15 369 c 2,4,-1
 -1 373 l 2,5,6
 -5 377 -5 377 -4.5 385.5 c 128,-1,7
 -4 394 -4 394 2 397 c 0,8,9
 48 394 48 394 91 394 c 0,10,11
 137.5 394 137.5 394 178 397 c 0,12,13
 184 394 184 394 184.5 385.5 c 128,-1,14
 185 377 185 377 180 373 c 2,15,-1
 157 369 l 2,16,17
 135 366 135 366 135 355 c 0,18,19
 135 342 135 342 151 303 c 2,20,-1
 213 150 l 2,21,22
 217 140 217 140 221.5 129.5 c 128,-1,23
 226 119 226 119 228.5 113.5 c 128,-1,24
 231 108 231 108 231 107 c 1,25,26
 235 110 235 110 254 155 c 2,27,-1
 303 276 l 2,28,29
 319 316 319 316 312 334 c 0,30,31
 301 361 301 361 266 369 c 2,32,-1
 250 373 l 2,33,34
 245 378 245 378 246 386.5 c 128,-1,35
 247 395 247 395 253 397 c 0,36,37
 291 394 291 394 336 394 c 0,38,39
 380 394 380 394 431 397 c 0,40,41
 437 395 437 395 438 386 c 128,-1,42
 439 377 439 377 434 373 c 2,43,-1
 413 369 l 2,44,45
 384 363 384 363 380.5 356 c 128,-1,46
 377 349 377 349 387 323 c 0,47,48
 388 321 388 321 463 136 c 0,49,50
 474 110 474 110 476 108 c 1,51,52
 479 111 479 111 490 136 c 0,53,54
 514 189 514 189 558 313 c 0,55,56
 568 342 568 342 568 356 c 0,57,58
 568 366 568 366 550 369 c 2,59,-1
 525 373 l 2,60,61
 519 377 519 377 520 386 c 128,-1,62
 521 395 521 395 526 397 c 0,63,64
 570 394 570 394 605 394 c 0,65,66
 637 394 637 394 670 397 c 0,67,68
 676 394 676 394 677 385.5 c 128,-1,69
 678 377 678 377 673 373 c 2,70,-1
 653 369 l 2,71,72
 636 365 636 365 626 353 c 128,-1,73
 616 341 616 341 599 306 c 0,74,75
 558 220 558 220 505 79 c 0,76,77
 476 5 476 5 471 -12 c 0,78,79
 466 -16 466 -16 458 -16 c 0,80,81
 451 -16 451 -16 447 -12 c 0,82,83
 426 51 426 51 406 98 c 2,84,-1
 358 213 l 2,85,86
 338 264 338 264 335 264 c 128,-1,87
 332 264 332 264 313 215 c 2,88,-1
 261 90 l 2,89,90
 234 26 234 26 221 -12 c 0,91,92
 217 -16 217 -16 209 -16 c 128,-1,93
 201 -16 201 -16 197 -12 c 0,94,95
 192 5 192 5 167 71 c 1,0,-1
EndSplineSet
Validated: 33
EndChar

StartChar: x
Encoding: 120 120 89
Width: 432
Flags: MW
HStem: -3 26.5 370.5 26.5
VStem: 7 121 7 143 182 63 285 149 292 125
LayerCount: 2
Fore
SplineSet
177 199 m 2,0,-1
 87 326 l 2,1,2
 62 363 62 363 27 369 c 2,3,-1
 11 372 l 2,4,5
 6 376 6 376 7 385.5 c 128,-1,6
 8 395 8 395 13 397 c 0,7,8
 72 394 72 394 100 394 c 0,9,10
 126 394 126 394 185 397 c 0,11,12
 190 394 190 394 190.5 385 c 128,-1,13
 191 376 191 376 186 372 c 2,14,-1
 171 369 l 2,15,16
 151 365 151 365 150 358.5 c 128,-1,17
 149 352 149 352 162 334 c 2,18,-1
 210 264 l 2,19,20
 218 252 218 252 223 247 c 1,21,22
 227 250 227 250 281 332 c 0,23,24
 293 352 293 352 291.5 358 c 128,-1,25
 290 364 290 364 273 369 c 2,26,-1
 261 372 l 2,27,28
 256 376 256 376 257.5 385.5 c 128,-1,29
 259 395 259 395 265 397 c 0,30,31
 300 394 300 394 338 394 c 0,32,33
 382 394 382 394 411 397 c 0,34,35
 417 394 417 394 417.5 385 c 128,-1,36
 418 376 418 376 413 372 c 2,37,-1
 398 369 l 2,38,39
 359 361 359 361 348 352 c 0,40,41
 323 332 323 332 254 238 c 0,42,43
 245 226 245 226 245 220 c 128,-1,44
 245 214 245 214 255 201 c 2,45,-1
 348 70 l 2,46,47
 366 45 366 45 380 34.5 c 128,-1,48
 394 24 394 24 414 23 c 2,49,-1
 430 22 l 2,50,51
 435 18 435 18 434 8.5 c 128,-1,52
 433 -1 433 -1 428 -3 c 0,53,54
 372.5 0 372.5 0 329 0 c 0,55,56
 282 0 282 0 234 -3 c 0,57,58
 228 -1 228 -1 227 8.5 c 128,-1,59
 226 18 226 18 231 22 c 2,60,-1
 260 25 l 2,61,62
 281 27 281 27 284.5 34.5 c 128,-1,63
 288 42 288 42 277 55 c 2,64,-1
 225 130 l 2,65,66
 208 155 208 155 203 159 c 1,67,68
 196 152 196 152 185 135 c 2,69,-1
 143 69 l 2,70,71
 127 45 127 45 127.5 36.5 c 128,-1,72
 128 28 128 28 146 25 c 2,73,-1
 163 22 l 2,74,75
 168 18 168 18 167 8.5 c 128,-1,76
 166 -1 166 -1 161 -3 c 0,77,78
 124 0 124 0 87 0 c 0,79,80
 53 0 53 0 14 -3 c 0,81,82
 8 -0 8 -0 7.5 9.5 c 128,-1,83
 7 19 7 19 12 22 c 2,84,-1
 35 26 l 2,85,86
 61 30 61 30 85 56 c 0,87,88
 97 68 97 68 131 115 c 128,-1,89
 165 162 165 162 174 173 c 0,90,91
 186 187 186 187 177 199 c 2,0,-1
EndSplineSet
Validated: 33
EndChar

StartChar: y
Encoding: 121 121 90
Width: 438
Flags: MW
HStem: -249 83<64 79.5> 369.5 27.5
VStem: 1 196 1 458 281 178
LayerCount: 2
Fore
SplineSet
68 -249 m 4,0,1
 47 -249 47 -249 35.5 -237 c 132,-1,2
 24 -225 24 -225 24 -206 c 132,-1,3
 24 -187 24 -187 35.5 -176.5 c 132,-1,4
 47 -166 47 -166 64 -166 c 6,5,-1
 83 -166 l 6,6,7
 105 -166 105 -166 116 -148 c 4,8,9
 155 -87 155 -87 174 -37 c 4,10,11
 184 -10 184 -10 184 6 c 4,12,13
 184 27 184 27 167 75 c 6,14,-1
 89 289 l 6,15,16
 78 320 78 320 73.5 330.5 c 132,-1,17
 69 341 69 341 58 352.5 c 132,-1,18
 47 364 47 364 30 367 c 6,19,-1
 5 372 l 6,20,21
 0 376 0 376 1 385.5 c 132,-1,22
 2 395 2 395 8 397 c 4,23,24
 56 394 56 394 103 394 c 4,25,26
 142 394 142 394 190 397 c 4,27,28
 196 395 196 395 196.5 385.5 c 132,-1,29
 197 376 197 376 192 372 c 6,30,-1
 167 367 l 6,31,32
 145 362 145 362 145 354 c 4,33,34
 145 342 145 342 174 260 c 6,35,-1
 206 168 l 6,36,37
 232 98 232 98 235 97 c 4,38,39
 241 101 241 101 272 171 c 6,40,-1
 306 250 l 6,41,42
 341 333 341 333 341 350 c 4,43,44
 341 363 341 363 317 367 c 6,45,-1
 286 372 l 6,46,47
 281 376 281 376 281.5 385.5 c 132,-1,48
 282 395 282 395 288 397 c 4,49,50
 336 394 336 394 376 394 c 4,51,52
 410 394 410 394 452 397 c 4,53,54
 458 394 458 394 458.5 385 c 132,-1,55
 459 376 459 376 454 372 c 6,56,-1
 437 369 l 6,57,58
 413 365 413 365 396 342.5 c 132,-1,59
 379 320 379 320 352 263 c 6,60,-1
 296 148 l 6,61,62
 220 -7 220 -7 132 -202 c 4,63,64
 111 -249 111 -249 68 -249 c 4,0,1
EndSplineSet
Validated: 1
EndChar

StartChar: z
Encoding: 122 122 91
Width: 377
Flags: MW
HStem: -3 21G 0 30<169 203 203 222.5 169 226> 364 30<137 149 149 218> 377 20G
VStem: 21 354
LayerCount: 2
Fore
SplineSet
226 0 m 6,0,-1
 136 0 l 6,1,2
 49 0 49 0 31 -3 c 4,3,4
 25 0 25 0 25 7 c 5,5,6
 61 51 61 51 121 154 c 6,7,-1
 227 334 l 6,8,9
 238 355 238 355 235.5 359.5 c 132,-1,10
 233 364 233 364 218 364 c 6,11,-1
 149 364 l 6,12,13
 99 364 99 364 80 349 c 4,14,15
 62 335 62 335 44 291 c 4,16,17
 40 286 40 286 31.5 287.5 c 132,-1,18
 23 289 23 289 21 295 c 4,19,20
 23 316 23 316 33.5 355.5 c 132,-1,21
 44 395 44 395 54 412 c 4,22,23
 60 416 60 416 66 412 c 5,24,25
 68 400 68 400 80.5 397 c 132,-1,26
 93 394 93 394 137 394 c 6,27,-1
 279 394 l 6,28,29
 325 394 325 394 340 397 c 5,30,31
 346 394 346 394 345 387 c 4,32,33
 314 344 314 344 271 273 c 6,34,-1
 150 70 l 6,35,36
 134 43 134 43 137 36.5 c 132,-1,37
 140 30 140 30 169 30 c 6,38,-1
 203 30 l 6,39,40
 293 30 293 30 321 60 c 4,41,42
 333 74 333 74 353 118 c 4,43,44
 358 121 358 121 365.5 119.5 c 132,-1,45
 373 118 373 118 375 112 c 4,46,47
 360 29 360 29 338 -3 c 5,48,49
 306 -1 306 -1 287 -1 c 4,50,51
 269 0 269 0 226 0 c 6,0,-1
EndSplineSet
Validated: 33
EndChar

StartChar: braceleft
Encoding: 123 123 92
Width: 320
Flags: MW
HStem: 257 22<67 67>
VStem: 63 78 139 58<-61.5 -25.5 -61.5 -14.5 562 597.5> 154 62<159 189.5 144 191 346.5 377.5>
LayerCount: 2
Fore
SplineSet
216 375 m 0,0,1
 216 289 216 289 141 270 c 1,2,-1
 141 266 l 1,3,4
 216 247 216 247 216 161 c 0,5,6
 216 134 216 134 207 58 c 0,7,8
 197 -27 197 -27 197 -42 c 0,9,10
 197 -79 197 -79 214 -104.5 c 128,-1,11
 231 -130 231 -130 281 -138 c 0,12,13
 285 -141 285 -141 285 -147.5 c 128,-1,14
 285 -154 285 -154 281 -158 c 1,15,16
 139 -158 139 -158 139 -32 c 0,17,18
 139 3 139 3 147 75 c 0,19,20
 154 136 154 136 154 174 c 0,21,22
 154 190 154 190 152 201 c 128,-1,23
 150 212 150 212 142 225.5 c 128,-1,24
 134 239 134 239 115 247 c 128,-1,25
 96 255 96 255 67 257 c 1,26,27
 58 268 58 268 67 279 c 1,28,29
 96 281 96 281 115 289 c 128,-1,30
 134 297 134 297 142 310.5 c 128,-1,31
 150 324 150 324 152 335 c 128,-1,32
 154 346 154 346 154 362 c 128,-1,33
 154 378 154 378 147 462 c 0,34,35
 139 555 139 555 139 568 c 0,36,37
 139 694 139 694 281 694 c 1,38,39
 291 684 291 684 281 674 c 1,40,41
 231 666 231 666 214 640.5 c 128,-1,42
 197 615 197 615 197 578 c 0,43,44
 197 546 197 546 207 478 c 0,45,46
 216 417 216 417 216 375 c 0,0,1
EndSplineSet
Validated: 1
EndChar

StartChar: bar
Encoding: 124 124 93
Width: 239
Flags: MW
HStem: -250 1000<90 149 90 149>
VStem: 90 59<-250 750 -250 750>
LayerCount: 2
Fore
SplineSet
149 750 m 1,0,-1
 149 -250 l 1,1,-1
 90 -250 l 1,2,-1
 90 750 l 1,3,-1
 149 750 l 1,0,-1
EndSplineSet
Validated: 1
EndChar

StartChar: braceright
Encoding: 125 125 94
Width: 320
Flags: MW
HStem: 257 22<253 253>
VStem: 104 62<159 189.5 346.5 377.5> 123 58<-61.5 -25.5 562 597.5> 179 78
LayerCount: 2
Fore
SplineSet
104 375 m 0,0,1
 104 417 104 417 113 478 c 0,2,3
 123 546 123 546 123 578 c 0,4,5
 123 615 123 615 106 640.5 c 128,-1,6
 89 666 89 666 39 674 c 1,7,8
 29 684 29 684 39 694 c 1,9,10
 181 694 181 694 181 568 c 0,11,12
 181 555 181 555 173 462 c 0,13,14
 166 378 166 378 166 362 c 128,-1,15
 166 346 166 346 168 335 c 128,-1,16
 170 324 170 324 178 310.5 c 128,-1,17
 186 297 186 297 205 289 c 128,-1,18
 224 281 224 281 253 279 c 1,19,20
 262 268 262 268 253 257 c 1,21,22
 224 255 224 255 205 247 c 128,-1,23
 186 239 186 239 178 225.5 c 128,-1,24
 170 212 170 212 168 201 c 128,-1,25
 166 190 166 190 166 174 c 0,26,27
 166 136 166 136 173 75 c 0,28,29
 181 3 181 3 181 -32 c 0,30,31
 181 -158 181 -158 39 -158 c 1,32,33
 35 -154 35 -154 35 -147.5 c 128,-1,34
 35 -141 35 -141 39 -138 c 0,35,36
 89 -130 89 -130 106 -104.5 c 128,-1,37
 123 -79 123 -79 123 -42 c 0,38,39
 123 -27 123 -27 113 58 c 0,40,41
 104 135 104 135 104 161 c 0,42,43
 104 247 104 247 179 266 c 1,44,-1
 179 270 l 1,45,46
 104 289 104 289 104 375 c 0,0,1
EndSplineSet
Validated: 1
EndChar

StartChar: asciitilde
Encoding: 126 126 95
Width: 500
Flags: MW
HStem: 180 50<178 198 198 302 302 322>
VStem: 76 348
LayerCount: 2
Fore
SplineSet
322 180 m 2,0,-1
 198 180 l 2,1,2
 161 180 161 180 145 167.5 c 128,-1,3
 129 155 129 155 109 115 c 1,4,5
 99 111 99 111 89 114.5 c 128,-1,6
 79 118 79 118 76 129 c 1,7,8
 99 185 99 185 121 209 c 0,9,10
 142 230 142 230 178 230 c 2,11,-1
 302 230 l 2,12,13
 339 230 339 230 355 242.5 c 128,-1,14
 371 255 371 255 391 295 c 1,15,16
 401 299 401 299 411 295.5 c 128,-1,17
 421 292 421 292 424 281 c 1,18,19
 399 218 399 218 378 199 c 0,20,21
 356 180 356 180 322 180 c 2,0,-1
EndSplineSet
Validated: 1
EndChar

StartChar: exclamdown
Encoding: 161 161 96
Width: 220
Flags: MW
HStem: -266 21G<94 126> 280 114<95.5 127>
VStem: 54 112<319 351 319 352> 61 98<-249.5 -229.5>
LayerCount: 2
Fore
SplineSet
110 -266 m 128,-1,1
 84 -266 84 -266 72.5 -260.5 c 128,-1,2
 61 -255 61 -255 61 -237 c 0,3,4
 61 -222 61 -222 68 -148 c 2,5,-1
 97 175 l 1,6,7
 102 180 102 180 110.5 180 c 128,-1,8
 119 180 119 180 123 175 c 2,9,-1
 152 -148 l 2,10,11
 159 -222 159 -222 159 -237 c 0,12,13
 159 -255 159 -255 147.5 -260.5 c 128,-1,0
 136 -266 136 -266 110 -266 c 128,-1,1
110 280 m 0,14,15
 87 280 87 280 70.5 295 c 128,-1,16
 54 310 54 310 54 335 c 128,-1,17
 54 360 54 360 70 377 c 128,-1,18
 86 394 86 394 110 394 c 0,19,20
 135 394 135 394 150.5 377 c 128,-1,21
 166 360 166 360 166 335 c 0,22,23
 166 311 166 311 150.5 295.5 c 128,-1,24
 135 280 135 280 110 280 c 0,14,15
EndSplineSet
Validated: 1
EndChar

StartChar: cent
Encoding: 162 162 97
Width: 500
Flags: MW
HStem: 0 21G 106 47<268 343.5> 493 35
VStem: 65 69<305 371.5> 291 33
LayerCount: 2
Fore
SplineSet
314 490 m 1,0,-1
 274 157 l 1,1,2
 290 153 290 153 314 153 c 0,3,4
 377 153 377 153 429 209 c 1,5,6
 436 210 436 210 441 206 c 128,-1,7
 446 202 446 202 445 197 c 0,8,9
 389 106 389 106 268 106 c 1,10,-1
 256 4 l 1,11,12
 239 -6 239 -6 223 4 c 1,13,-1
 236 109 l 1,14,15
 161 118 161 118 113 170 c 128,-1,16
 65 222 65 222 65 305 c 0,17,18
 65 401 65 401 127.5 459.5 c 128,-1,19
 190 518 190 518 286 526 c 1,20,-1
 296 612 l 1,21,22
 313 621 313 621 329 612 c 1,23,-1
 319 528 l 1,24,25
 350 528 350 528 399 517 c 1,26,27
 421 498 421 498 421 466 c 0,28,29
 421 452 421 452 417 441.5 c 128,-1,30
 413 431 413 431 409 431 c 0,31,32
 403 431 403 431 395 440 c 0,33,34
 363 478 363 478 314 490 c 1,0,-1
243 166 m 1,35,-1
 282 493 l 1,36,37
 218 494 218 494 176 451.5 c 128,-1,38
 134 409 134 409 134 337 c 0,39,40
 134 284 134 284 161.5 236 c 128,-1,41
 189 188 189 188 243 166 c 1,35,-1
EndSplineSet
Validated: 33
EndChar

StartChar: sterling
Encoding: 163 163 98
Width: 500
Flags: MW
HStem: -22 42<381.5 384> -14 21G<42 53.5> 43 34 281 32<94 185 185 186 94 185 299 300 300 421> 604 36<325.5 360.5>
VStem: 25 76<6 16> 195 79.5 202 77<233 272.5>
LayerCount: 2
Fore
SplineSet
299 313 m 2,0,-1
 421 313 l 1,1,2
 428 308 428 308 428 296.5 c 128,-1,3
 428 285 428 285 421 281 c 1,4,-1
 300 281 l 2,5,6
 287 281 287 281 283 278.5 c 128,-1,7
 279 276 279 276 279 267 c 0,8,9
 279 153 279 153 169 80 c 1,10,-1
 169 76 l 1,11,12
 201 79 201 79 215 77 c 0,13,14
 237 74 237 74 303 46 c 0,15,16
 364 20 364 20 393 20 c 0,17,18
 446 20 446 20 434 92 c 0,19,20
 431 109 431 109 438 118 c 128,-1,21
 445 127 445 127 458 127 c 0,22,23
 473 127 473 127 483.5 113.5 c 128,-1,24
 494 100 494 100 494 82 c 0,25,26
 494 43 494 43 448.5 10.5 c 128,-1,27
 403 -22 403 -22 344 -22 c 0,28,29
 294 -22 294 -22 224 11 c 0,30,31
 156 43 156 43 136 43 c 0,32,33
 122 43 122 43 111.5 33.5 c 128,-1,34
 101 24 101 24 101 13 c 0,35,36
 101 4 101 4 80 -5 c 128,-1,37
 59 -14 59 -14 48 -14 c 0,38,39
 25 -14 25 -14 25 5 c 0,40,41
 25 45 25 45 119 74 c 1,42,43
 202 112 202 112 202 267 c 0,44,45
 202 276 202 276 199.5 278.5 c 128,-1,46
 197 281 197 281 186 281 c 2,47,-1
 94 281 l 1,48,49
 88 286 88 286 88 297 c 128,-1,50
 88 308 88 308 94 313 c 1,51,-1
 185 313 l 2,52,53
 196 313 196 313 198 315.5 c 128,-1,54
 200 318 200 318 199 328 c 0,55,56
 195 372 195 372 195 426 c 0,57,58
 195 519 195 519 247 579.5 c 128,-1,59
 299 640 299 640 380 640 c 0,60,61
 437 640 437 640 459 622 c 0,62,63
 471 613 471 613 471 587 c 0,64,65
 471 577 471 577 461 564.5 c 128,-1,66
 451 552 451 552 442 552 c 0,67,68
 436 552 436 552 428 561 c 0,69,70
 391 604 391 604 341 604 c 0,71,72
 315 604 315 604 294 578.5 c 128,-1,73
 273 553 273 553 270 506 c 128,-1,74
 267 459 267 459 279 328 c 0,75,76
 280 318 280 318 283 315.5 c 128,-1,77
 286 313 286 313 299 313 c 2,0,-1
EndSplineSet
Validated: 33
EndChar

StartChar: fraction
Encoding: 8725 8260 99
AltUni2: 002215.ffffffff.0
Width: 100
Flags: MW
HStem: -14 21G
VStem: -183 467
LayerCount: 2
Fore
SplineSet
-183 -14 m 1,0,1
 98 412 98 412 253 654 c 1,2,3
 274 654 274 654 284 631 c 1,4,5
 74 315 74 315 -156 -40 c 1,6,7
 -181 -40 -181 -40 -183 -14 c 1,0,1
EndSplineSet
Validated: 1
EndChar

StartChar: yen
Encoding: 165 165 100
Width: 500
Flags: MW
HStem: -3 25 209 32<74 224 74 226 74 224 300 449> 322 32<74 193 74 208 74 193 325 449> 606.5 24.5
VStem: 226 72<123 209> 332 182
LayerCount: 2
Fore
SplineSet
449 209 m 1,0,-1
 298 209 l 1,1,-1
 298 123 l 2,2,3
 298 62 298 62 305 44.5 c 128,-1,4
 312 27 312 27 341 24 c 2,5,-1
 378 20 l 2,6,7
 383 16 383 16 382 7.5 c 128,-1,8
 381 -1 381 -1 376 -3 c 0,9,10
 322 0 322 0 260 0 c 0,11,12
 202 0 202 0 148 -3 c 0,13,14
 143 -1 143 -1 142 7.5 c 128,-1,15
 141 16 141 16 146 20 c 2,16,-1
 183 24 l 2,17,18
 213 28 213 28 219.5 45 c 128,-1,19
 226 62 226 62 226 123 c 2,20,-1
 226 209 l 1,21,-1
 74 209 l 1,22,23
 69 214 69 214 69 225 c 128,-1,24
 69 236 69 236 74 241 c 1,25,-1
 224 241 l 1,26,27
 224 284 224 284 217 302 c 2,28,-1
 208 322 l 1,29,-1
 74 322 l 1,30,31
 69 326 69 326 69 338 c 128,-1,32
 69 350 69 350 74 354 c 1,33,-1
 193 354 l 1,34,-1
 105 525 l 2,35,36
 82 570 82 570 69 584.5 c 128,-1,37
 56 599 56 599 28 605 c 2,38,-1
 7 610 l 2,39,40
 3 614 3 614 3.5 621 c 128,-1,41
 4 628 4 628 10 631 c 0,42,43
 47 628 47 628 118 628 c 0,44,45
 175 628 175 628 213 631 c 0,46,47
 218 629 218 629 218.5 621.5 c 128,-1,48
 219 614 219 614 215 610 c 2,49,-1
 177 603 l 2,50,51
 157 599 157 599 157 588 c 0,52,53
 157 582 157 582 188 515 c 2,54,-1
 243 397 l 2,55,56
 273 336 273 336 276 336 c 128,-1,57
 279 336 279 336 302 382 c 2,58,-1
 347 472 l 2,59,60
 397 572 397 572 397 585 c 0,61,62
 397 599 397 599 374 603 c 2,63,-1
 336 610 l 2,64,65
 331 614 331 614 332 621.5 c 128,-1,66
 333 629 333 629 339 631 c 0,67,68
 384 628 384 628 433 628 c 0,69,70
 470 628 470 628 508 631 c 0,71,72
 513 628 513 628 513.5 621 c 128,-1,73
 514 614 514 614 510 610 c 2,74,-1
 486 605 l 2,75,76
 452 598 452 598 404 506 c 2,77,-1
 325 354 l 1,78,-1
 449 354 l 1,79,80
 454 350 454 350 454 338 c 128,-1,81
 454 326 454 326 449 322 c 1,82,-1
 310 322 l 1,83,-1
 303 296 l 2,84,85
 300 285 300 285 300 241 c 1,86,-1
 449 241 l 1,87,88
 454 237 454 237 454 225.5 c 128,-1,89
 454 214 454 214 449 209 c 1,0,-1
EndSplineSet
Validated: 1
EndChar

StartChar: florin
Encoding: 402 402 101
Width: 500
Flags: MW
HStem: -122 37<37.5 101.5> 369 32<117 202 117 211 290 400> 628 30<364.5 407.5>
VStem: -6 513
LayerCount: 2
Fore
SplineSet
117 401 m 1,0,-1
 211 401 l 1,1,2
 231 496 231 496 259 554 c 0,3,4
 311 658 311 658 411 658 c 0,5,6
 455 658 455 658 481 640.5 c 128,-1,7
 507 623 507 623 507 604 c 0,8,9
 507 583 507 583 494 569.5 c 128,-1,10
 481 556 481 556 471 556 c 0,11,12
 457 556 457 556 449 575 c 0,13,14
 424 628 424 628 396 628 c 0,15,16
 381 628 381 628 368.5 619.5 c 128,-1,17
 356 611 356 611 345.5 591 c 128,-1,18
 335 571 335 571 328 555 c 128,-1,19
 321 539 321 539 313 506.5 c 128,-1,20
 305 474 305 474 302 459.5 c 128,-1,21
 299 445 299 445 291.890370067 410.691592003 c 0,22,23
 291 404 291 404 290 401 c 2,24,-1
 400 401 l 1,25,26
 406 396 406 396 406.5 385 c 128,-1,27
 407 374 407 374 400 369 c 1,28,-1
 280 369 l 1,29,30
 275 344 275 344 265.5 294.5 c 128,-1,31
 256 245 256 245 251 220 c 0,32,33
 205 -22 205 -22 158 -74 c 0,34,35
 113 -122 113 -122 59 -122 c 0,36,37
 30 -122 30 -122 12 -104.5 c 128,-1,38
 -6 -87 -6 -87 -6 -71 c 0,39,40
 -6 -57 -6 -57 -1.5 -47.5 c 128,-1,41
 3 -38 3 -38 7.5 -34.5 c 128,-1,42
 12 -31 12 -31 16 -31 c 0,43,44
 24 -31 24 -31 36 -45 c 0,45,46
 72 -85 72 -85 93 -85 c 0,47,48
 125 -85 125 -85 136 -20 c 0,49,50
 190 289 190 289 202 369 c 1,51,-1
 117 369 l 1,52,53
 112 373 112 373 112 384.5 c 128,-1,54
 112 396 112 396 117 401 c 1,0,-1
EndSplineSet
Validated: 1
EndChar

StartChar: section
Encoding: 167 167 102
Width: 506
Flags: MW
HStem: -124 42<238 264> 635 41<244.5 260.5>
VStem: 50 49<436 473.5> 151 40<550 565> 319 40<-5 9.5> 407 49<93.5 156.5>
LayerCount: 2
Fore
SplineSet
185 -124 m 0,0,1
 150 -124 150 -124 127.5 -110 c 128,-1,2
 105 -96 105 -96 105 -74 c 0,3,4
 105 -60 105 -60 114.5 -49 c 128,-1,5
 124 -38 124 -38 140 -38 c 0,6,7
 154 -38 154 -38 165 -47 c 0,8,9
 207 -82 207 -82 250 -82 c 0,10,11
 275 -82 275 -82 297 -65 c 128,-1,12
 319 -48 319 -48 319 -20 c 0,13,14
 319 -8 319 -8 315 5.5 c 128,-1,15
 311 19 311 19 300.5 35 c 128,-1,16
 290 51 290 51 282 62.5 c 128,-1,17
 274 74 274 74 257 92.5 c 128,-1,18
 240 111 240 111 232 119 c 128,-1,19
 224 127 224 127 204 147.5 c 128,-1,20
 184 168 184 168 180 172 c 0,21,22
 116 235 116 235 83 289 c 128,-1,23
 50 343 50 343 50 414 c 0,24,25
 50 507 50 507 131 591.5 c 128,-1,26
 212 676 212 676 316 676 c 0,27,28
 354 676 354 676 373.5 661.5 c 128,-1,29
 393 647 393 647 393 630 c 0,30,31
 393 619 393 619 383.5 608.5 c 128,-1,32
 374 598 374 598 360 598 c 0,33,34
 343 598 343 598 332 606 c 0,35,36
 289 635 289 635 250 635 c 0,37,38
 225 635 225 635 208 618.5 c 128,-1,39
 191 602 191 602 191 575 c 0,40,41
 191 539 191 539 220 502 c 128,-1,42
 249 465 249 465 333 388 c 0,43,44
 397 329 397 329 426.5 274.5 c 128,-1,45
 456 220 456 220 456 155 c 0,46,47
 456 56 456 56 376.5 -34 c 128,-1,48
 297 -124 297 -124 185 -124 c 0,0,1
225 224 m 0,49,50
 303 145 303 145 331 99 c 128,-1,51
 359 53 359 53 359 -5 c 1,52,53
 407 38 407 38 407 111 c 0,54,55
 407 176 407 176 377.5 227 c 128,-1,56
 348 278 348 278 285 338 c 0,57,58
 204 415 204 415 177.5 459.5 c 128,-1,59
 151 504 151 504 151 565 c 1,60,61
 99 521 99 521 99 458 c 0,62,63
 99 437 99 437 102 418.5 c 128,-1,64
 105 400 105 400 116.5 370.5 c 128,-1,65
 128 341 128 341 155.5 303.5 c 128,-1,66
 183 266 183 266 225 224 c 0,49,50
EndSplineSet
Validated: 1
EndChar

StartChar: currency
Encoding: 164 164 103
Width: 500
Flags: MW
HStem: 111 46<227.5 274.5> 493 46<227.5 274.5 227.5 292.5>
VStem: 35 57<300 350> 410 57<300 350 300 371.5>
LayerCount: 2
Fore
SplineSet
251 493 m 0,0,1
 187 493 187 493 139.5 443.5 c 128,-1,2
 92 394 92 394 92 325 c 0,3,4
 92 254 92 254 139.5 205.5 c 128,-1,5
 187 157 187 157 251 157 c 0,6,7
 314 157 314 157 362 206 c 128,-1,8
 410 255 410 255 410 325 c 0,9,10
 410 394 410 394 362 443.5 c 128,-1,11
 314 493 314 493 251 493 c 0,0,1
251 539 m 128,-1,13
 321 539 321 539 376 499 c 1,14,-1
 417 550 l 1,15,16
 435 545 435 545 449.5 531 c 128,-1,17
 464 517 464 517 466 502 c 1,18,-1
 421 457 l 1,19,20
 467 401 467 401 467 325 c 128,-1,21
 467 249 467 249 421 193 c 1,22,-1
 466 148 l 1,23,24
 464 133 464 133 449.5 119 c 128,-1,25
 435 105 435 105 417 100 c 1,26,-1
 376 151 l 1,27,28
 321 111 321 111 251 111 c 128,-1,29
 181 111 181 111 126 151 c 1,30,-1
 85 100 l 1,31,32
 67 105 67 105 52.5 119 c 128,-1,33
 38 133 38 133 36 148 c 1,34,-1
 81 193 l 1,35,36
 35 249 35 249 35 325 c 128,-1,37
 35 401 35 401 81 457 c 1,38,-1
 36 502 l 1,39,40
 38 517 38 517 52.5 531 c 128,-1,41
 67 545 67 545 85 550 c 1,42,-1
 126 499 l 1,43,12
 181 539 181 539 251 539 c 128,-1,13
EndSplineSet
Validated: 1
EndChar

StartChar: quotesingle
Encoding: 39 39 104
Width: 235
Flags: MW
HStem: 470 230
VStem: 75 86<672.5 687>
LayerCount: 2
Fore
SplineSet
118 700 m 128,-1,1
 142 700 142 700 151.5 695.5 c 128,-1,2
 161 691 161 691 161 676 c 0,3,4
 161 672 161 672 156 637 c 2,5,-1
 130 476 l 1,6,7
 118 464 118 464 106 476 c 1,8,-1
 80 637 l 2,9,10
 75 672 75 672 75 676 c 0,11,12
 75 691 75 691 84.5 695.5 c 128,-1,0
 94 700 94 700 118 700 c 128,-1,1
EndSplineSet
Validated: 1
EndChar

StartChar: quotedblleft
Encoding: 8220 8220 105
Width: 404
Flags: MW
HStem: 473 232
VStem: 55 48<579 603.5> 224 48<579 603.5>
LayerCount: 2
Fore
SplineSet
301 473 m 0,0,1
 270 473 270 473 247 501.5 c 128,-1,2
 224 530 224 530 224 569 c 0,3,4
 224 618 224 618 257 654 c 128,-1,5
 290 690 290 690 341 705 c 1,6,7
 357 697 357 697 348 684 c 1,8,9
 272 649 272 649 272 598 c 0,10,11
 272 572 272 572 288.5 557.5 c 128,-1,12
 305 543 305 543 322 542 c 0,13,14
 349 540 349 540 349 514 c 0,15,16
 349 499 349 499 338 486 c 128,-1,17
 327 473 327 473 301 473 c 0,0,1
132 473 m 0,18,19
 101 473 101 473 78 501.5 c 128,-1,20
 55 530 55 530 55 569 c 0,21,22
 55 618 55 618 88 654 c 128,-1,23
 121 690 121 690 172 705 c 1,24,25
 188 697 188 697 179 684 c 1,26,27
 103 649 103 649 103 598 c 0,28,29
 103 572 103 572 119.5 557.5 c 128,-1,30
 136 543 136 543 153 542 c 0,31,32
 180 540 180 540 180 514 c 0,33,34
 180 499 180 499 169 486 c 128,-1,35
 158 473 158 473 132 473 c 0,18,19
EndSplineSet
Validated: 1
EndChar

StartChar: guillemotleft
Encoding: 171 171 106
Width: 378
Flags: MW
HStem: 39 332<171 171 316 316>
VStem: 45 70 190 70
LayerCount: 2
Fore
SplineSet
188 358 m 1,0,-1
 118 218 l 2,1,2
 113 206 113 206 118 194 c 2,3,-1
 188 52 l 1,4,5
 184 42 184 42 171 39 c 1,6,7
 69 170 69 170 52 190 c 0,8,9
 39 206 39 206 52 221 c 0,10,11
 80 254 80 254 171 371 c 1,12,13
 184 369 184 369 188 358 c 1,0,-1
333 358 m 1,14,-1
 263 218 l 2,15,16
 258 206 258 206 263 194 c 2,17,-1
 333 52 l 1,18,19
 329 42 329 42 316 39 c 1,20,21
 214 170 214 170 197 190 c 0,22,23
 184 206 184 206 197 221 c 0,24,25
 225 254 225 254 316 371 c 1,26,27
 329 369 329 369 333 358 c 1,14,-1
EndSplineSet
Validated: 1
EndChar

StartChar: guilsinglleft
Encoding: 8249 8249 107
Width: 233
Flags: MW
HStem: 39 332<171 171>
VStem: 45 70
LayerCount: 2
Fore
SplineSet
188 358 m 1,0,-1
 118 218 l 2,1,2
 113 206 113 206 118 194 c 2,3,-1
 188 52 l 1,4,5
 184 42 184 42 171 39 c 1,6,7
 69 170 69 170 52 190 c 0,8,9
 39 206 39 206 52 221 c 0,10,11
 80 254 80 254 171 371 c 1,12,13
 184 369 184 369 188 358 c 1,0,-1
EndSplineSet
Validated: 1
EndChar

StartChar: guilsinglright
Encoding: 8250 8250 108
Width: 233
Flags: MW
HStem: 39 332<62 62>
VStem: 118 70
LayerCount: 2
Fore
SplineSet
115 218 m 2,0,-1
 45 358 l 1,1,2
 49 369 49 369 62 371 c 1,3,4
 153 254 153 254 181 221 c 0,5,6
 194 206 194 206 181 190 c 0,7,8
 164 170 164 170 62 39 c 1,9,10
 49 42 49 42 45 52 c 1,11,-1
 115 194 l 2,12,13
 120 206 120 206 115 218 c 2,0,-1
EndSplineSet
Validated: 1
EndChar

StartChar: fi
Encoding: 64257 64257 109
Width: 522
Flags: MW
HStem: -3 26.5 352 42<179.5 300 188 300 300 313> 384 20G 677 38<264 296>
VStem: 95 74<112 321 412.5 425 425 436> 363 74<112 279>
LayerCount: 2
Fore
SplineSet
95 112 m 2,0,-1
 95 323 l 2,1,2
 95 344 95 344 92.5 348 c 128,-1,3
 90 352 90 352 75 352 c 2,4,-1
 40 352 l 1,5,6
 29 359 29 359 37 371 c 1,7,-1
 80 392 l 2,8,9
 95 400 95 400 95 412 c 0,10,11
 95 509 95 509 126 580 c 0,12,13
 147 630 147 630 196 672.5 c 128,-1,14
 245 715 245 715 320 715 c 0,15,16
 371 715 371 715 407.5 692 c 128,-1,17
 444 669 444 669 444 637 c 0,18,19
 444 617 444 617 430.5 606.5 c 128,-1,20
 417 596 417 596 403 596 c 0,21,22
 386 596 386 596 377 611 c 0,23,24
 357 645 357 645 331 661 c 128,-1,25
 305 677 305 677 283 677 c 0,26,27
 169 677 169 677 169 436 c 2,28,-1
 169 425 l 2,29,30
 169 406 169 406 172.5 400 c 128,-1,31
 176 394 176 394 188 394 c 2,32,-1
 300 394 l 2,33,34
 391 394 391 394 431 409 c 0,35,36
 438 409 438 409 441 404 c 0,37,38
 437 332 437 332 437 279 c 2,39,-1
 437 112 l 2,40,41
 437 57 437 57 443 43 c 128,-1,42
 449 29 449 29 475 25 c 2,43,-1
 496 22 l 2,44,45
 501 18 501 18 500 8.5 c 128,-1,46
 499 -1 499 -1 494 -3 c 0,47,48
 449 0 449 0 400 0 c 0,49,50
 348 0 348 0 306 -3 c 0,51,52
 301 -1 301 -1 300 8.5 c 128,-1,53
 299 18 299 18 304 22 c 2,54,-1
 325 25 l 2,55,56
 352 29 352 29 357.5 42.5 c 128,-1,57
 363 56 363 56 363 112 c 2,58,-1
 363 286 l 2,59,60
 363 331 363 331 354.5 341.5 c 128,-1,61
 346 352 346 352 313 352 c 2,62,-1
 188 352 l 2,63,64
 176 352 176 352 172.5 346 c 128,-1,65
 169 340 169 340 169 321 c 2,66,-1
 169 112 l 2,67,68
 169 56 169 56 175 41.5 c 128,-1,69
 181 27 181 27 207 25 c 2,70,-1
 239 22 l 2,71,72
 244 18 244 18 243 8.5 c 128,-1,73
 242 -1 242 -1 237 -3 c 0,74,75
 176 0 176 0 132 0 c 0,76,77
 81 0 81 0 36 -3 c 0,78,79
 31 -1 31 -1 30 8.5 c 128,-1,80
 29 18 29 18 34 22 c 2,81,-1
 57 25 l 2,82,83
 84 29 84 29 89.5 42.5 c 128,-1,84
 95 56 95 56 95 112 c 2,0,-1
EndSplineSet
Validated: 1
EndChar

StartChar: fl
Encoding: 64258 64258 110
Width: 522
Flags: MW
HStem: -3 26.5 352 42<179 344 188 344> 683 32<255.5 298.5>
VStem: 95 74<112 321 407 415 415 443.5> 363 74<112 332 332 340.5 414 562>
LayerCount: 2
Fore
SplineSet
344 352 m 2,0,-1
 188 352 l 2,1,2
 174 352 174 352 171.5 348 c 128,-1,3
 169 344 169 344 169 321 c 2,4,-1
 169 112 l 2,5,6
 169 56 169 56 175 41.5 c 128,-1,7
 181 27 181 27 207 25 c 2,8,-1
 238 22 l 2,9,10
 243 18 243 18 242 8.5 c 128,-1,11
 241 -1 241 -1 236 -3 c 0,12,13
 176 0 176 0 132 0 c 0,14,15
 81 0 81 0 36 -3 c 0,16,17
 31 -1 31 -1 30 8.5 c 128,-1,18
 29 18 29 18 34 22 c 2,19,-1
 57 25 l 2,20,21
 84 29 84 29 89.5 42.5 c 128,-1,22
 95 56 95 56 95 112 c 2,23,-1
 95 323 l 2,24,25
 95 344 95 344 92.5 348 c 128,-1,26
 90 352 90 352 75 352 c 2,27,-1
 40 352 l 1,28,29
 29 359 29 359 37 371 c 1,30,-1
 80 392 l 2,31,32
 95 400 95 400 95 412 c 0,33,34
 95 520 95 520 122 586 c 0,35,36
 143 637 143 637 190 676 c 128,-1,37
 237 715 237 715 309 715 c 0,38,39
 360 715 360 715 402 689 c 1,40,-1
 428 715 l 1,41,42
 436 715 436 715 440 711 c 1,43,44
 437 645 437 645 437 562 c 2,45,-1
 437 112 l 2,46,47
 437 57 437 57 443 43 c 128,-1,48
 449 29 449 29 475 25 c 2,49,-1
 499 22 l 2,50,51
 504 18 504 18 503 8.5 c 128,-1,52
 502 -1 502 -1 497 -3 c 0,53,54
 448 0 448 0 400 0 c 0,55,56
 349 0 349 0 304 -3 c 0,57,58
 299 -1 299 -1 298 8.5 c 128,-1,59
 297 18 297 18 302 22 c 2,60,-1
 325 25 l 2,61,62
 352 29 352 29 357.5 42.5 c 128,-1,63
 363 56 363 56 363 112 c 2,64,-1
 363 332 l 2,65,66
 363 345 363 345 360 348.5 c 128,-1,67
 357 352 357 352 344 352 c 2,0,-1
363 414 m 2,68,-1
 363 575 l 2,69,70
 363 628 363 628 346 651 c 0,71,72
 321 683 321 683 285 683 c 0,73,74
 246 683 246 683 220.5 659.5 c 128,-1,75
 195 636 195 636 185 594 c 128,-1,76
 175 552 175 552 172 520.5 c 128,-1,77
 169 489 169 489 169 446 c 2,78,-1
 169 415 l 2,79,80
 169 400 169 400 172 397 c 128,-1,81
 175 394 175 394 188 394 c 2,82,-1
 344 394 l 2,83,84
 356 394 356 394 359.5 397.5 c 128,-1,85
 363 401 363 401 363 414 c 2,68,-1
EndSplineSet
Validated: 1
EndChar

StartChar: endash
Encoding: 8211 8211 111
Width: 500
Flags: MW
HStem: 181 49<0 500 0 500>
VStem: 0 500<181 230 181 230>
LayerCount: 2
Fore
SplineSet
0 230 m 1,0,-1
 500 230 l 1,1,-1
 500 181 l 1,2,-1
 0 181 l 1,3,-1
 0 230 l 1,0,-1
EndSplineSet
Validated: 1
EndChar

StartChar: dagger
Encoding: 8224 8224 112
Width: 480
Flags: MW
HStem: 437 26<194 225 255 286> 656 20G<223 257>
VStem: 224 32<-127 10>
LayerCount: 2
Fore
SplineSet
256 -127 m 1,0,-1
 224 -127 l 1,1,-1
 224 10 l 2,2,3
 224 145 224 145 189 262 c 1,4,5
 211 289 211 289 218 326.5 c 128,-1,6
 225 364 225 364 225 437 c 1,7,8
 190 437 190 437 149 421.5 c 128,-1,9
 108 406 108 406 97 406 c 0,10,11
 74 406 74 406 62 418 c 128,-1,12
 50 430 50 430 50 450 c 0,13,14
 50 469 50 469 62 481 c 128,-1,15
 74 493 74 493 97 493 c 0,16,17
 108 493 108 493 149 478 c 128,-1,18
 190 463 190 463 225 463 c 1,19,20
 225 529 225 529 209.5 576 c 128,-1,21
 194 623 194 623 194 628 c 0,22,23
 194 646 194 646 205.5 661 c 128,-1,24
 217 676 217 676 240 676 c 128,-1,25
 263 676 263 676 274.5 661 c 128,-1,26
 286 646 286 646 286 628 c 0,27,28
 286 623 286 623 270.5 576 c 128,-1,29
 255 529 255 529 255 463 c 1,30,31
 290 463 290 463 331 478 c 128,-1,32
 372 493 372 493 384 493 c 0,33,34
 406 493 406 493 418 481 c 128,-1,35
 430 469 430 469 430 450 c 0,36,37
 430 430 430 430 418 418 c 128,-1,38
 406 406 406 406 384 406 c 0,39,40
 372 406 372 406 331 421.5 c 128,-1,41
 290 437 290 437 255 437 c 1,42,43
 255 364 255 364 262 326.5 c 128,-1,44
 269 289 269 289 291 262 c 1,45,46
 256 145 256 145 256 10 c 2,47,-1
 256 -127 l 1,0,-1
EndSplineSet
Validated: 1
EndChar

StartChar: daggerdbl
Encoding: 8225 8225 113
Width: 480
Flags: MW
HStem: 96 26<210.5 225 210.5 225 255 269.5> 441 26<210.5 225 210.5 225 255 269.5> 656 20G<223.5 256.5>
VStem: 225 30<41.5 96 122 168 402 441 467 522>
LayerCount: 2
Fore
SplineSet
240 676 m 128,-1,1
 262 676 262 676 273.5 661.5 c 128,-1,2
 285 647 285 647 285 630 c 0,3,4
 285 625 285 625 270 578.5 c 128,-1,5
 255 532 255 532 255 467 c 1,6,7
 287 467 287 467 331 481 c 0,8,9
 377 497 377 497 385 497 c 0,10,11
 429 497 429 497 429 454 c 0,12,13
 429 412 429 412 385 412 c 0,14,15
 372 412 372 412 331 426.5 c 128,-1,16
 290 441 290 441 255 441 c 1,17,18
 255 377 255 377 262 343 c 128,-1,19
 269 309 269 309 291 287 c 1,20,21
 269 267 269 267 262 231.5 c 128,-1,22
 255 196 255 196 255 122 c 1,23,24
 287 122 287 122 331 136 c 0,25,26
 377 152 377 152 385 152 c 0,27,28
 429 152 429 152 429 109 c 0,29,30
 429 67 429 67 385 67 c 0,31,32
 372 67 372 67 331 81.5 c 128,-1,33
 290 96 290 96 255 96 c 1,34,35
 255 32 255 32 270 -20 c 128,-1,36
 285 -72 285 -72 285 -77 c 0,37,38
 285 -94 285 -94 273.5 -109 c 128,-1,39
 262 -124 262 -124 240 -124 c 128,-1,40
 218 -124 218 -124 206.5 -109 c 128,-1,41
 195 -94 195 -94 195 -77 c 0,42,43
 195 -72 195 -72 210 -20 c 128,-1,44
 225 32 225 32 225 96 c 1,45,46
 191 96 191 96 149.5 81.5 c 128,-1,47
 108 67 108 67 95 67 c 0,48,49
 51 67 51 67 51 109 c 0,50,51
 51 152 51 152 95 152 c 0,52,53
 103 152 103 152 149 136 c 0,54,55
 193 122 193 122 225 122 c 1,56,57
 225 196 225 196 218 231.5 c 128,-1,58
 211 267 211 267 189 287 c 1,59,60
 211 309 211 309 218 343 c 128,-1,61
 225 377 225 377 225 441 c 1,62,63
 191 441 191 441 149.5 426.5 c 128,-1,64
 108 412 108 412 95 412 c 0,65,66
 51 412 51 412 51 454 c 0,67,68
 51 497 51 497 95 497 c 0,69,70
 103 497 103 497 149 481 c 0,71,72
 193 467 193 467 225 467 c 1,73,74
 225 532 225 532 210 578.5 c 128,-1,75
 195 625 195 625 195 630 c 0,76,77
 195 647 195 647 206.5 661.5 c 128,-1,0
 218 676 218 676 240 676 c 128,-1,1
EndSplineSet
Validated: 1
EndChar

StartChar: periodcentered
Encoding: 8729 183 114
AltUni2: 002219.ffffffff.0
Width: 250
Flags: MW
HStem: 148 114<110.5 142>
VStem: 69 112<187 219 187 220>
LayerCount: 2
Fore
SplineSet
125 148 m 0,0,1
 102 148 102 148 85.5 163 c 128,-1,2
 69 178 69 178 69 203 c 128,-1,3
 69 228 69 228 85 245 c 128,-1,4
 101 262 101 262 125 262 c 0,5,6
 150 262 150 262 165.5 245 c 128,-1,7
 181 228 181 228 181 203 c 0,8,9
 181 179 181 179 165.5 163.5 c 128,-1,10
 150 148 150 148 125 148 c 0,0,1
EndSplineSet
Validated: 1
EndChar

StartChar: paragraph
Encoding: 182 182 115
Width: 500
Flags: MW
HStem: -95 30<250 270 250 301.5> 0 21G 245 21G<232 302.5> 630.5 29.5
VStem: 160 66<-43.5 -24.5 -43.5 -7> 314 52<62 97 97 213 213 226>
LayerCount: 2
Fore
SplineSet
366 561 m 2,0,-1
 366 97 l 2,1,2
 366 58 366 58 362.5 29 c 128,-1,3
 359 0 359 0 347.5 -31 c 128,-1,4
 336 -62 336 -62 311 -78.5 c 128,-1,5
 286 -95 286 -95 248 -95 c 0,6,7
 214 -95 214 -95 187 -77 c 128,-1,8
 160 -59 160 -59 160 -22 c 0,9,10
 160 16 160 16 189 30 c 1,11,12
 205 30 205 30 221 20.5 c 128,-1,13
 237 11 237 11 240 0 c 1,14,15
 226 -17 226 -17 226 -34 c 0,16,17
 226 -48 226 -48 235.5 -56.5 c 128,-1,18
 245 -65 245 -65 259 -65 c 0,19,20
 272 -65 272 -65 283.5 -56 c 128,-1,21
 295 -47 295 -47 304.5 -17 c 128,-1,22
 314 13 314 13 314 62 c 2,23,-1
 314 213 l 2,24,25
 314 245 314 245 297 245 c 0,26,27
 197 245 197 245 128 301 c 128,-1,28
 59 357 59 357 59 446 c 0,29,30
 59 551 59 551 132.5 605.5 c 128,-1,31
 206 660 206 660 337 660 c 0,32,33
 430 660 430 660 458 655 c 0,34,35
 462 652 462 652 462 644.5 c 128,-1,36
 462 637 462 637 458 634 c 2,37,-1
 419 627 l 2,38,39
 381 620 381 620 373.5 610 c 128,-1,40
 366 600 366 600 366 561 c 2,0,-1
EndSplineSet
Validated: 1
EndChar

StartChar: bullet
Encoding: 8226 8226 116
Width: 388
Flags: MW
HStem: 198 277<155.5 232.5>
VStem: 55 278<297 375>
LayerCount: 2
Fore
SplineSet
194 475 m 128,-1,1
 252 475 252 475 292.5 434.5 c 128,-1,2
 333 394 333 394 333 336 c 128,-1,3
 333 278 333 278 292.5 238 c 128,-1,4
 252 198 252 198 194 198 c 128,-1,5
 136 198 136 198 95.5 238 c 128,-1,6
 55 278 55 278 55 336 c 128,-1,7
 55 394 55 394 95.5 434.5 c 128,-1,0
 136 475 136 475 194 475 c 128,-1,1
EndSplineSet
Validated: 1
EndChar

StartChar: quotesinglbase
Encoding: 8218 8218 117
Width: 215
Flags: MW
HStem: -132 232
VStem: 122 48<-30.5 -6>
LayerCount: 2
Fore
SplineSet
93 100 m 0,0,1
 124 100 124 100 147.5 71.5 c 128,-1,2
 171 43 171 43 170 4 c 0,3,4
 170 -45 170 -45 137 -81 c 128,-1,5
 104 -117 104 -117 53 -132 c 1,6,7
 37 -124 37 -124 46 -111 c 1,8,9
 122 -76 122 -76 122 -25 c 0,10,11
 122 1 122 1 105.5 15.5 c 128,-1,12
 89 30 89 30 72 31 c 0,13,14
 45 33 45 33 45 59 c 0,15,16
 45 74 45 74 56 87 c 128,-1,17
 67 100 67 100 93 100 c 0,0,1
EndSplineSet
Validated: 33
EndChar

StartChar: quotedblbase
Encoding: 8222 8222 118
Width: 384
Flags: MW
HStem: -132 232
VStem: 122 48<-30.5 -6> 291 48<-30.5 -6>
LayerCount: 2
Fore
SplineSet
262 100 m 0,0,1
 293 100 293 100 316.5 71.5 c 128,-1,2
 340 43 340 43 339 4 c 0,3,4
 339 -45 339 -45 306 -81 c 128,-1,5
 273 -117 273 -117 222 -132 c 1,6,7
 206 -124 206 -124 215 -111 c 1,8,9
 291 -76 291 -76 291 -25 c 0,10,11
 291 1 291 1 274.5 15.5 c 128,-1,12
 258 30 258 30 241 31 c 0,13,14
 214 33 214 33 214 59 c 0,15,16
 214 74 214 74 225 87 c 128,-1,17
 236 100 236 100 262 100 c 0,0,1
93 100 m 0,18,19
 124 100 124 100 147.5 71.5 c 128,-1,20
 171 43 171 43 170 4 c 0,21,22
 170 -45 170 -45 137 -81 c 128,-1,23
 104 -117 104 -117 53 -132 c 1,24,25
 37 -124 37 -124 46 -111 c 1,26,27
 122 -76 122 -76 122 -25 c 0,28,29
 122 1 122 1 105.5 15.5 c 128,-1,30
 89 30 89 30 72 31 c 0,31,32
 45 33 45 33 45 59 c 0,33,34
 45 74 45 74 56 87 c 128,-1,35
 67 100 67 100 93 100 c 0,18,19
EndSplineSet
Validated: 33
EndChar

StartChar: quotedblright
Encoding: 8221 8221 119
Width: 404
Flags: MW
HStem: 468 232
VStem: 132 48<569.5 594> 301 48<569.5 594>
LayerCount: 2
Fore
SplineSet
272 700 m 0,0,1
 303 700 303 700 326 671.5 c 128,-1,2
 349 643 349 643 349 604 c 0,3,4
 349 555 349 555 316 519 c 128,-1,5
 283 483 283 483 232 468 c 1,6,7
 216 476 216 476 225 489 c 1,8,9
 301 524 301 524 301 575 c 0,10,11
 301 601 301 601 284.5 615.5 c 128,-1,12
 268 630 268 630 251 631 c 0,13,14
 224 633 224 633 224 659 c 0,15,16
 224 674 224 674 235 687 c 128,-1,17
 246 700 246 700 272 700 c 0,0,1
103 700 m 0,18,19
 134 700 134 700 157 671.5 c 128,-1,20
 180 643 180 643 180 604 c 0,21,22
 180 555 180 555 147 519 c 128,-1,23
 114 483 114 483 63 468 c 1,24,25
 47 476 47 476 56 489 c 1,26,27
 132 524 132 524 132 575 c 0,28,29
 132 601 132 601 115.5 615.5 c 128,-1,30
 99 630 99 630 82 631 c 0,31,32
 55 633 55 633 55 659 c 0,33,34
 55 674 55 674 66 687 c 128,-1,35
 77 700 77 700 103 700 c 0,18,19
EndSplineSet
Validated: 1
EndChar

StartChar: guillemotright
Encoding: 187 187 120
Width: 378
Flags: MW
HStem: 39 332<62 62 207 207>
VStem: 118 70 263 70
LayerCount: 2
Fore
SplineSet
115 218 m 2,0,-1
 45 358 l 1,1,2
 49 369 49 369 62 371 c 1,3,4
 153 254 153 254 181 221 c 0,5,6
 194 206 194 206 181 190 c 0,7,8
 164 170 164 170 62 39 c 1,9,10
 49 42 49 42 45 52 c 1,11,-1
 115 194 l 2,12,13
 120 206 120 206 115 218 c 2,0,-1
260 218 m 2,14,-1
 190 358 l 1,15,16
 194 369 194 369 207 371 c 1,17,18
 298 254 298 254 326 221 c 0,19,20
 339 206 339 206 326 190 c 0,21,22
 309 170 309 170 207 39 c 1,23,24
 194 42 194 42 190 52 c 1,25,-1
 260 194 l 2,26,27
 265 206 265 206 260 218 c 2,14,-1
EndSplineSet
Validated: 1
EndChar

StartChar: ellipsis
Encoding: 8230 8230 121
Width: 1000
Flags: MW
HStem: -14 114<152.5 184 485.5 517 818.5 850>
VStem: 111 112<25 57 25 58> 444 112<25 57 25 58> 777 112<25 57 25 58>
CounterMasks: 1 70
LayerCount: 2
Fore
SplineSet
500 -14 m 0,0,1
 477 -14 477 -14 460.5 1 c 128,-1,2
 444 16 444 16 444 41 c 128,-1,3
 444 66 444 66 460 83 c 128,-1,4
 476 100 476 100 500 100 c 0,5,6
 525 100 525 100 540.5 83 c 128,-1,7
 556 66 556 66 556 41 c 0,8,9
 556 17 556 17 540.5 1.5 c 128,-1,10
 525 -14 525 -14 500 -14 c 0,0,1
833 -14 m 0,11,12
 810 -14 810 -14 793.5 1 c 128,-1,13
 777 16 777 16 777 41 c 128,-1,14
 777 66 777 66 793 83 c 128,-1,15
 809 100 809 100 833 100 c 0,16,17
 858 100 858 100 873.5 83 c 128,-1,18
 889 66 889 66 889 41 c 0,19,20
 889 17 889 17 873.5 1.5 c 128,-1,21
 858 -14 858 -14 833 -14 c 0,11,12
167 -14 m 0,22,23
 144 -14 144 -14 127.5 1 c 128,-1,24
 111 16 111 16 111 41 c 128,-1,25
 111 66 111 66 127 83 c 128,-1,26
 143 100 143 100 167 100 c 0,27,28
 192 100 192 100 207.5 83 c 128,-1,29
 223 66 223 66 223 41 c 0,30,31
 223 17 223 17 207.5 1.5 c 128,-1,32
 192 -14 192 -14 167 -14 c 0,22,23
EndSplineSet
Validated: 1
EndChar

StartChar: perthousand
Encoding: 8240 8240 122
Width: 1144
Flags: MW
HStem: -14 28<580 648 580 664 920 988> 271 28<158 226 158 242> 327 28<580 648 920 988> 612 28<158 226> 615 20G<616 616>
VStem: 45 69<429.5 481 429.5 493.5> 268 69<430.5 480> 467 69<144.5 196 144.5 208.5> 690 69<145.5 195> 807 69<144.5 196 144.5 208.5> 1030 69<145.5 195>
LayerCount: 2
Fore
SplineSet
759 170 m 0,0,1
 759 129 759 129 744.5 88.5 c 128,-1,2
 730 48 730 48 695.5 17 c 128,-1,3
 661 -14 661 -14 613 -14 c 128,-1,4
 565 -14 565 -14 530.5 17 c 128,-1,5
 496 48 496 48 481.5 88.5 c 128,-1,6
 467 129 467 129 467 170 c 0,7,8
 467 238 467 238 505 296.5 c 128,-1,9
 543 355 543 355 613 355 c 128,-1,10
 683 355 683 355 721 296.5 c 128,-1,11
 759 238 759 238 759 170 c 0,0,1
690 170 m 0,12,13
 690 194 690 194 687.5 216.5 c 128,-1,14
 685 239 685 239 678 266.5 c 128,-1,15
 671 294 671 294 654.5 310.5 c 128,-1,16
 638 327 638 327 614 327 c 128,-1,17
 590 327 590 327 573.5 310.5 c 128,-1,18
 557 294 557 294 549.5 267 c 128,-1,19
 542 240 542 240 539 217 c 128,-1,20
 536 194 536 194 536 170 c 128,-1,21
 536 146 536 146 539 123 c 128,-1,22
 542 100 542 100 549.5 73.5 c 128,-1,23
 557 47 557 47 573.5 30.5 c 128,-1,24
 590 14 590 14 614 14 c 128,-1,25
 638 14 638 14 654.5 30.5 c 128,-1,26
 671 47 671 47 678 74.5 c 128,-1,27
 685 102 685 102 687.5 124.5 c 128,-1,28
 690 147 690 147 690 170 c 0,12,13
337 455 m 0,29,30
 337 414 337 414 322.5 373.5 c 128,-1,31
 308 333 308 333 273.5 302 c 128,-1,32
 239 271 239 271 191 271 c 128,-1,33
 143 271 143 271 108.5 302 c 128,-1,34
 74 333 74 333 59.5 373.5 c 128,-1,35
 45 414 45 414 45 455 c 0,36,37
 45 523 45 523 83 581.5 c 128,-1,38
 121 640 121 640 191 640 c 128,-1,39
 261 640 261 640 299 581.5 c 128,-1,40
 337 523 337 523 337 455 c 0,29,30
268 455 m 0,41,42
 268 479 268 479 265.5 501.5 c 128,-1,43
 263 524 263 524 256 551.5 c 128,-1,44
 249 579 249 579 232.5 595.5 c 128,-1,45
 216 612 216 612 192 612 c 128,-1,46
 168 612 168 612 151.5 595.5 c 128,-1,47
 135 579 135 579 127.5 552 c 128,-1,48
 120 525 120 525 117 502 c 128,-1,49
 114 479 114 479 114 455 c 128,-1,50
 114 431 114 431 117 408 c 128,-1,51
 120 385 120 385 127.5 358.5 c 128,-1,52
 135 332 135 332 151.5 315.5 c 128,-1,53
 168 299 168 299 192 299 c 128,-1,54
 216 299 216 299 232.5 315.5 c 128,-1,55
 249 332 249 332 256 359.5 c 128,-1,56
 263 387 263 387 265.5 409.5 c 128,-1,57
 268 432 268 432 268 455 c 0,41,42
1099 170 m 0,58,59
 1099 129 1099 129 1084.5 88.5 c 128,-1,60
 1070 48 1070 48 1035.5 17 c 128,-1,61
 1001 -14 1001 -14 953 -14 c 128,-1,62
 905 -14 905 -14 870.5 17 c 128,-1,63
 836 48 836 48 821.5 88.5 c 128,-1,64
 807 129 807 129 807 170 c 0,65,66
 807 238 807 238 845 296.5 c 128,-1,67
 883 355 883 355 953 355 c 128,-1,68
 1023 355 1023 355 1061 296.5 c 128,-1,69
 1099 238 1099 238 1099 170 c 0,58,59
1030 170 m 0,70,71
 1030 194 1030 194 1027.5 216.5 c 128,-1,72
 1025 239 1025 239 1018 266.5 c 128,-1,73
 1011 294 1011 294 994.5 310.5 c 128,-1,74
 978 327 978 327 954 327 c 128,-1,75
 930 327 930 327 913.5 310.5 c 128,-1,76
 897 294 897 294 889.5 267 c 128,-1,77
 882 240 882 240 879 217 c 128,-1,78
 876 194 876 194 876 170 c 128,-1,79
 876 146 876 146 879 123 c 128,-1,80
 882 100 882 100 889.5 73.5 c 128,-1,81
 897 47 897 47 913.5 30.5 c 128,-1,82
 930 14 930 14 954 14 c 128,-1,83
 978 14 978 14 994.5 30.5 c 128,-1,84
 1011 47 1011 47 1018 74.5 c 128,-1,85
 1025 102 1025 102 1027.5 124.5 c 128,-1,86
 1030 147 1030 147 1030 170 c 0,70,71
616 635 m 1,87,-1
 209 -40 l 1,88,89
 197 -40 197 -40 188 -34 c 128,-1,90
 179 -28 179 -28 179 -18 c 1,91,-1
 583 652 l 1,92,93
 602 654 602 654 616 635 c 1,87,-1
EndSplineSet
Validated: 33
EndChar

StartChar: questiondown
Encoding: 191 191 123
Width: 321
Flags: MW
HStem: -266 80<198 228.5 198 230> 280 114<181.5 213>
VStem: 45 41<-103.5 -80 -103.5 -34.5> 140 112<319 351 319 352> 197 47<57.5 122>
LayerCount: 2
Fore
SplineSet
217 -266 m 0,0,1
 155 -266 155 -266 100 -203 c 128,-1,2
 45 -140 45 -140 45 -62 c 0,3,4
 45 -25 45 -25 57 -2.5 c 128,-1,5
 69 20 69 20 83 28 c 2,6,-1
 162 70 l 2,7,8
 197 88 197 88 197 114 c 0,9,10
 197 132 197 132 187 172 c 1,11,12
 190 178 190 178 197 179.5 c 128,-1,13
 204 181 204 181 208 177 c 0,14,15
 244 118 244 118 244 78 c 0,16,17
 244 50 244 50 231 35.5 c 128,-1,18
 218 21 218 21 190 6 c 2,19,-1
 141 -20 l 2,20,21
 86 -49 86 -49 86 -93 c 0,22,23
 86 -131 86 -131 108 -154 c 0,24,25
 141 -186 141 -186 224 -186 c 0,26,27
 233 -186 233 -186 245 -198.5 c 128,-1,28
 257 -211 257 -211 257 -228 c 0,29,30
 257 -244 257 -244 246.5 -255 c 128,-1,31
 236 -266 236 -266 217 -266 c 0,0,1
196 280 m 0,32,33
 173 280 173 280 156.5 295 c 128,-1,34
 140 310 140 310 140 335 c 128,-1,35
 140 360 140 360 156 377 c 128,-1,36
 172 394 172 394 196 394 c 0,37,38
 221 394 221 394 236.5 377 c 128,-1,39
 252 360 252 360 252 335 c 0,40,41
 252 311 252 311 236.5 295.5 c 128,-1,42
 221 280 221 280 196 280 c 0,32,33
EndSplineSet
Validated: 1
EndChar

StartChar: grave
Encoding: 96 96 124
Width: 360
Flags: MW
HStem: 442 205
VStem: 75 162<454 611>
LayerCount: 2
Fore
SplineSet
146 623 m 2,0,-1
 237 454 l 1,1,2
 235 440 235 440 221 442 c 1,3,-1
 92 577 l 2,4,5
 75 594 75 594 75 607 c 0,6,7
 75 619 75 619 93 634 c 0,8,9
 110 649 110 649 124 647 c 0,10,11
 134 646 134 646 146 623 c 2,0,-1
EndSplineSet
Validated: 33
EndChar

StartChar: acute
Encoding: 180 180 125
Width: 360
Flags: MW
HStem: 442 205
VStem: 123 162<454 611>
LayerCount: 2
Fore
SplineSet
268 577 m 2,0,-1
 139 442 l 1,1,2
 125 440 125 440 123 454 c 1,3,-1
 214 623 l 2,4,5
 226 646 226 646 236 647 c 0,6,7
 250 649 250 649 267 634 c 0,8,9
 285 619 285 619 285 607 c 0,10,11
 285 594 285 594 268 577 c 2,0,-1
EndSplineSet
Validated: 33
EndChar

StartChar: circumflex
Encoding: 710 710 126
Width: 360
Flags: MW
HStem: 566 87
VStem: 60 241<458 458>
LayerCount: 2
Fore
SplineSet
285 447 m 1,0,-1
 195 553 l 2,1,2
 184 566 184 566 180 566 c 128,-1,3
 176 566 176 566 166 553 c 2,4,-1
 76 447 l 1,5,6
 63 447 63 447 60 458 c 1,7,-1
 162 639 l 2,8,9
 170 653 170 653 180.5 653 c 128,-1,10
 191 653 191 653 199 639 c 2,11,-1
 301 458 l 1,12,13
 298 447 298 447 285 447 c 1,0,-1
EndSplineSet
Validated: 1
EndChar

StartChar: tilde
Encoding: 732 732 127
Width: 360
Flags: MW
HStem: 512 51<125 133 133 232 232 240>
VStem: 30 300
LayerCount: 2
Fore
SplineSet
125 563 m 2,0,-1
 232 563 l 2,1,2
 264 563 264 563 278 571.5 c 128,-1,3
 292 580 292 580 312 608 c 1,4,5
 323 616 323 616 330 604 c 1,6,7
 316 555 316 555 291 530 c 0,8,9
 273 512 273 512 240 512 c 2,10,-1
 133 512 l 2,11,12
 99 512 99 512 81.5 499 c 128,-1,13
 64 486 64 486 47 455 c 1,14,15
 35 449 35 449 30 460 c 1,16,17
 34 477 34 477 45.5 504.5 c 128,-1,18
 57 532 57 532 68 543 c 0,19,20
 86 563 86 563 125 563 c 2,0,-1
EndSplineSet
Validated: 1
EndChar

StartChar: macron
Encoding: 713 175 128
AltUni2: 0002c9.ffffffff.0
Width: 360
Flags: MW
HStem: 512 51<60 300 60 300>
VStem: 53 255
LayerCount: 2
Fore
SplineSet
300 512 m 1,0,-1
 60 512 l 1,1,2
 52 522 52 522 52 537.5 c 128,-1,3
 52 553 52 553 60 563 c 1,4,-1
 300 563 l 1,5,6
 308 553 308 553 308 537.5 c 128,-1,7
 308 522 308 522 300 512 c 1,0,-1
EndSplineSet
Validated: 1
EndChar

StartChar: breve
Encoding: 728 728 129
Width: 360
Flags: MW
HStem: 505 54<151 209 151 223>
VStem: 48 264<639 639>
LayerCount: 2
Fore
SplineSet
180 505 m 128,-1,1
 45 505 45 505 48 639 c 1,2,3
 58 648 58 648 67 639 c 1,4,5
 85 559 85 559 180 559 c 128,-1,6
 275 559 275 559 293 639 c 1,7,8
 302 648 302 648 312 639 c 1,9,0
 315 505 315 505 180 505 c 128,-1,1
EndSplineSet
Validated: 33
EndChar

StartChar: dotaccent
Encoding: 729 729 130
Width: 360
Flags: MW
HStem: 483 94<167.5 194.5>
VStem: 134 93<517.5 529>
LayerCount: 2
Fore
SplineSet
181 483 m 0,0,1
 160 483 160 483 147 495 c 128,-1,2
 134 507 134 507 134 529 c 0,3,4
 133 549 133 549 146.5 563 c 128,-1,5
 160 577 160 577 181 577 c 0,6,7
 201 577 201 577 214 563.5 c 128,-1,8
 227 550 227 550 227 532 c 0,9,10
 227 510 227 510 214 496.5 c 128,-1,11
 201 483 201 483 181 483 c 0,0,1
EndSplineSet
Validated: 33
EndChar

StartChar: dieresis
Encoding: 168 168 131
Width: 360
Flags: MW
HStem: 483 94<73.5 100.5 261.5 288.5>
VStem: 40 93<517.5 529> 227 93<517.5 529>
LayerCount: 2
Fore
SplineSet
87 483 m 0,0,1
 66 483 66 483 53 495 c 128,-1,2
 40 507 40 507 40 529 c 0,3,4
 39 549 39 549 52.5 563 c 128,-1,5
 66 577 66 577 87 577 c 0,6,7
 107 577 107 577 120 563.5 c 128,-1,8
 133 550 133 550 133 532 c 0,9,10
 133 510 133 510 120 496.5 c 128,-1,11
 107 483 107 483 87 483 c 0,0,1
275 483 m 0,12,13
 254 483 254 483 240.5 495 c 128,-1,14
 227 507 227 507 227 529 c 0,15,16
 226 549 226 549 240 563 c 128,-1,17
 254 577 254 577 275 577 c 0,18,19
 295 577 295 577 307.5 563.5 c 128,-1,20
 320 550 320 550 320 532 c 0,21,22
 320 510 320 510 307.5 496.5 c 128,-1,23
 295 483 295 483 275 483 c 0,12,13
EndSplineSet
Validated: 33
EndChar

StartChar: ring
Encoding: 730 730 132
Width: 360
Flags: MW
HStem: 461 33<165 195.5 165 209.5> 618 33<165 195.5>
VStem: 80 47<538 573.5 538 581> 233 47<538 573.5>
LayerCount: 2
Fore
SplineSet
180 651 m 128,-1,1
 223 651 223 651 251.5 623 c 128,-1,2
 280 595 280 595 280 556 c 128,-1,3
 280 517 280 517 251.5 489 c 128,-1,4
 223 461 223 461 180 461 c 128,-1,5
 137 461 137 461 108.5 489 c 128,-1,6
 80 517 80 517 80 556 c 128,-1,7
 80 595 80 595 108.5 623 c 128,-1,0
 137 651 137 651 180 651 c 128,-1,1
127 556 m 0,8,9
 127 529 127 529 142 511.5 c 128,-1,10
 157 494 157 494 180 494 c 128,-1,11
 203 494 203 494 218 511.5 c 128,-1,12
 233 529 233 529 233 556 c 0,13,14
 233 582 233 582 218 600 c 128,-1,15
 203 618 203 618 180 618 c 0,16,17
 158 618 158 618 142.5 600 c 128,-1,18
 127 582 127 582 127 556 c 0,8,9
EndSplineSet
Validated: 1
EndChar

StartChar: cedilla
Encoding: 184 184 133
Width: 360
Flags: MW
HStem: -221 32<170 183 170 183>
VStem: 141 62 204 57<-158.5 -145>
LayerCount: 2
Fore
SplineSet
198 0 m 1,0,-1
 234 0 l 1,1,-1
 206 -38 l 2,2,3
 198 -52 198 -52 215 -61 c 0,4,5
 261 -93 261 -93 261 -133 c 0,6,7
 261 -170 261 -170 229 -195.5 c 128,-1,8
 197 -221 197 -221 157 -221 c 0,9,10
 130 -221 130 -221 114.5 -211 c 128,-1,11
 99 -201 99 -201 99 -186 c 0,12,13
 99 -177 99 -177 106 -168.5 c 128,-1,14
 113 -160 113 -160 124 -160 c 128,-1,15
 135 -160 135 -160 153 -174.5 c 128,-1,16
 171 -189 171 -189 177 -189 c 0,17,18
 188 -189 188 -189 196 -181.5 c 128,-1,19
 204 -174 204 -174 204 -158 c 0,20,21
 204 -139 204 -139 186 -120.5 c 128,-1,22
 168 -102 168 -102 141 -91 c 1,23,-1
 141 -85 l 1,24,-1
 198 0 l 1,0,-1
EndSplineSet
Validated: 1
EndChar

StartChar: hungarumlaut
Encoding: 733 733 134
Width: 360
Flags: MW
HStem: 442 205
VStem: 22 317<454 611>
LayerCount: 2
Fore
SplineSet
322 577 m 2,0,-1
 193 442 l 1,1,2
 179 440 179 440 177 454 c 1,3,-1
 268 623 l 2,4,5
 280 646 280 646 290 647 c 0,6,7
 304 649 304 649 321 634 c 0,8,9
 339 619 339 619 339 607 c 0,10,11
 339 594 339 594 322 577 c 2,0,-1
167 577 m 2,12,-1
 38 442 l 1,13,14
 24 440 24 440 22 454 c 1,15,-1
 113 623 l 2,16,17
 125 646 125 646 135 647 c 0,18,19
 149 649 149 649 166 634 c 0,20,21
 184 619 184 619 184 607 c 0,22,23
 184 594 184 594 167 577 c 2,12,-1
EndSplineSet
Validated: 33
EndChar

StartChar: ogonek
Encoding: 731 731 135
Width: 360
Flags: MW
HStem: -221 49<146.5 221.5>
VStem: 93 64<-132.5 -118> 258 9
LayerCount: 2
Fore
SplineSet
202 20 m 1,0,-1
 240 20 l 1,1,2
 157 -58 157 -58 157 -116 c 0,3,4
 157 -141 157 -141 171.5 -156.5 c 128,-1,5
 186 -172 186 -172 212 -172 c 128,-1,6
 238 -172 238 -172 258 -157 c 1,7,8
 267 -160 267 -160 267 -173 c 1,9,10
 232 -221 232 -221 176 -221 c 0,11,12
 135 -221 135 -221 114 -198 c 128,-1,13
 93 -175 93 -175 93 -143 c 0,14,15
 93 -68 93 -68 202 20 c 1,0,-1
EndSplineSet
Validated: 1
EndChar

StartChar: caron
Encoding: 711 711 136
Width: 360
Flags: MW
HStem: 458 87 644 20G<72.5 76 285 288.5>
VStem: 60 241<653 653>
LayerCount: 2
Fore
SplineSet
76 664 m 1,0,-1
 166 558 l 2,1,2
 177 545 177 545 180.5 545 c 128,-1,3
 184 545 184 545 195 558 c 2,4,-1
 285 664 l 1,5,6
 298 664 298 664 301 653 c 1,7,-1
 199 472 l 2,8,9
 191 458 191 458 180.5 458 c 128,-1,10
 170 458 170 458 162 472 c 2,11,-1
 60 653 l 1,12,13
 63 664 63 664 76 664 c 1,0,-1
EndSplineSet
Validated: 1
EndChar

StartChar: emdash
Encoding: 8212 8212 137
Width: 1000
Flags: MW
HStem: 181 49<0 1000 0 1000>
VStem: 0 1000<181 230 181 230>
LayerCount: 2
Fore
SplineSet
0 230 m 1,0,-1
 1000 230 l 1,1,-1
 1000 181 l 1,2,-1
 0 181 l 1,3,-1
 0 230 l 1,0,-1
EndSplineSet
Validated: 1
EndChar

StartChar: AE
Encoding: 198 198 138
Width: 850
Flags: MW
HStem: -3 29 0 23.5 0 31 240 21G 326 35<247.5 351 284 351 284 351 510 568> 624 36<384 389 384 384> 629 31<491.5 506 506 578> 633.5 26.5 643 20G
VStem: -49 145 395 82<150 158 158 297 297 299 393 588 588 589>
LayerCount: 2
Fore
SplineSet
363 660 m 2,0,-1
 625 660 l 2,1,2
 748 660 748 660 760 663 c 1,3,4
 765 649 765 649 776 531 c 0,5,6
 773 526 773 526 764 525 c 128,-1,7
 755 524 755 524 751 528 c 0,8,9
 744 550 744 550 742 555.5 c 128,-1,10
 740 561 740 561 733 577 c 128,-1,11
 726 593 726 593 719.5 599 c 128,-1,12
 713 605 713 605 701.5 612.5 c 128,-1,13
 690 620 690 620 675 624 c 0,14,15
 649 629 649 629 578 629 c 2,16,-1
 506 629 l 2,17,18
 485 629 485 629 481 623.5 c 128,-1,19
 477 618 477 618 477 589 c 2,20,-1
 477 389 l 2,21,22
 477 369 477 369 482 365 c 128,-1,23
 487 361 487 361 510 361 c 2,24,-1
 568 361 l 2,25,26
 635 361 635 361 653 367 c 128,-1,27
 671 373 671 373 677 402 c 2,28,-1
 685 443 l 2,29,30
 689 448 689 448 698.5 447.5 c 128,-1,31
 708 447 708 447 711 442 c 0,32,33
 711 432 711 432 709 397 c 128,-1,34
 707 362 707 362 707 341 c 0,35,36
 707 321 707 321 709 287.5 c 128,-1,37
 711 254 711 254 711 245 c 0,38,39
 708 240 708 240 698.5 239.5 c 128,-1,40
 689 239 689 239 685 244 c 2,41,-1
 676 283 l 2,42,43
 669 315 669 315 645 321 c 0,44,45
 628 326 628 326 568 326 c 2,46,-1
 510 326 l 2,47,48
 487 326 487 326 482 322 c 128,-1,49
 477 318 477 318 477 299 c 2,50,-1
 477 158 l 2,51,52
 477 74 477 74 495 54 c 0,53,54
 518 31 518 31 617 31 c 128,-1,55
 716 31 716 31 744 46 c 0,56,57
 775 63 775 63 815 143 c 0,58,59
 819 147 819 147 828 145 c 128,-1,60
 837 143 837 143 840 136 c 1,61,62
 825 60 825 60 795 -3 c 1,63,64
 705 -1 705 -1 661 -1 c 0,65,66
 617 0 617 0 527 0 c 2,67,-1
 435 0 l 2,68,69
 390 0 390 0 302 -3 c 0,70,71
 297 -1 297 -1 296.5 8 c 128,-1,72
 296 17 296 17 300 22 c 1,73,-1
 334 25 l 2,74,75
 375 29 375 29 385 49.5 c 128,-1,76
 395 70 395 70 395 150 c 2,77,-1
 395 297 l 2,78,79
 395 319 395 319 389.5 322.5 c 128,-1,80
 384 326 384 326 351 326 c 2,81,-1
 269 326 l 2,82,83
 238 326 238 326 230 320.5 c 128,-1,84
 222 315 222 315 204 282 c 0,85,86
 138 159 138 159 103 70 c 0,87,88
 94 49 94 49 97 40.5 c 128,-1,89
 100 32 100 32 118 30 c 2,90,-1
 172 22 l 1,91,92
 176 17 176 17 176 8.5 c 128,-1,93
 176 0 176 0 171 -3 c 0,94,95
 111 0 111 0 61 0 c 0,96,97
 39 0 39 0 3.5 -1.5 c 128,-1,98
 -32 -3 -32 -3 -42 -3 c 0,99,100
 -48 0 -48 0 -49 9 c 128,-1,101
 -50 18 -50 18 -43 22 c 2,102,-1
 -12 27 l 2,103,104
 7 30 7 30 21.5 44.5 c 128,-1,105
 36 59 36 59 58 99 c 0,106,107
 158 282 158 282 301 560 c 0,108,109
 325 605 325 605 325 617 c 0,110,111
 325 626 325 626 303 629 c 2,112,-1
 243 638 l 1,113,114
 238 643 238 643 239 652 c 128,-1,115
 240 661 240 661 246 663 c 0,116,117
 317 660 317 660 363 660 c 2,0,-1
284 361 m 2,118,-1
 351 361 l 2,119,120
 384 362 384 362 389.5 365.5 c 128,-1,121
 395 369 395 369 395 393 c 2,122,-1
 395 588 l 2,123,124
 395 619 395 619 389 624 c 1,125,-1
 384 624 l 1,126,127
 376 620 376 620 361 593 c 0,128,129
 283 446 283 446 255 383 c 0,130,131
 247 367 247 367 251 364 c 128,-1,132
 255 361 255 361 284 361 c 2,118,-1
EndSplineSet
Validated: 1
EndChar

StartChar: ordfeminine
Encoding: 170 170 139
Width: 332
Flags: MW
HStem: 240 35<82.5 155.5> 510 30<159 171.5>
VStem: 33 66<310 323> 196 63.5
LayerCount: 2
Fore
SplineSet
201 428 m 2,0,-1
 201 440 l 2,1,2
 201 473 201 473 190.5 491.5 c 128,-1,3
 180 510 180 510 148 510 c 0,4,5
 109 510 109 510 103 479 c 0,6,7
 99 458 99 458 94 453 c 0,8,9
 87 448 87 448 71 442 c 128,-1,10
 55 436 55 436 49 436 c 0,11,12
 35 436 35 436 35 449 c 0,13,14
 35 472 35 472 65 495 c 0,15,16
 121 540 121 540 180 540 c 0,17,18
 227 540 227 540 245.5 517.5 c 128,-1,19
 264 495 264 495 262 454 c 2,20,-1
 257 332 l 2,21,22
 255 276 255 276 291 276 c 0,23,24
 305 276 305 276 320 286 c 0,25,26
 326 286 326 286 328.5 281 c 128,-1,27
 331 276 331 276 328 272 c 0,28,29
 297 240 297 240 256 240 c 0,30,31
 231 240 231 240 210 260 c 0,32,33
 201 269 201 269 195 269 c 0,34,35
 190 269 190 269 179 263 c 0,36,37
 137 240 137 240 109 240 c 0,38,39
 71 240 71 240 52 260 c 128,-1,40
 33 280 33 280 33 310 c 0,41,42
 33 348 33 348 72 365 c 0,43,44
 99 375 99 375 136 388 c 128,-1,45
 173 401 173 401 179 403 c 0,46,47
 201 411 201 411 201 428 c 2,0,-1
196 316 m 2,48,-1
 198 368 l 2,49,50
 199 375 199 375 197.5 378 c 128,-1,51
 196 381 196 381 191 381 c 128,-1,52
 186 381 186 381 180 379.5 c 128,-1,53
 174 378 174 378 163 374 c 0,54,55
 161 373 161 373 154 371 c 128,-1,56
 147 369 147 369 144 368 c 128,-1,57
 141 367 141 367 135 364 c 128,-1,58
 129 361 129 361 125.5 359 c 128,-1,59
 122 357 122 357 117 354 c 128,-1,60
 112 351 112 351 109.5 347.5 c 128,-1,61
 107 344 107 344 104 339.5 c 128,-1,62
 101 335 101 335 100 329.5 c 128,-1,63
 99 324 99 324 99 318 c 0,64,65
 99 303 99 303 110 289 c 128,-1,66
 121 275 121 275 144 275 c 0,67,68
 172 275 172 275 188 291 c 0,69,70
 196 301 196 301 196 316 c 2,48,-1
EndSplineSet
Validated: 33
EndChar

StartChar: Lslash
Encoding: 321 321 140
Width: 559
Flags: MW
HStem: -3 21G 0 23.5 0 31 637 26
VStem: 134 82<150 162 162 284 284 284 327 341 384 510>
LayerCount: 2
Fore
SplineSet
134 150 m 2,0,-1
 134 284 l 1,1,-1
 28 212 l 1,2,3
 8 217 8 217 12 244 c 1,4,-1
 134 327 l 1,5,-1
 134 510 l 2,6,7
 134 592 134 592 124.5 612 c 128,-1,8
 115 632 115 632 69 636 c 2,9,-1
 44 638 l 2,10,11
 40 641 40 641 40.5 651 c 128,-1,12
 41 661 41 661 46 663 c 0,13,14
 130 660 130 660 176 660 c 0,15,16
 224 660 224 660 299 663 c 0,17,18
 304 661 304 661 304.5 651 c 128,-1,19
 305 641 305 641 301 638 c 2,20,-1
 277 636 l 2,21,22
 234 632 234 632 225 612 c 128,-1,23
 216 592 216 592 216 510 c 2,24,-1
 216 384 l 1,25,-1
 353 475 l 1,26,27
 362 471 362 471 366.5 462 c 128,-1,28
 371 453 371 453 368 443 c 1,29,-1
 216 341 l 1,30,-1
 216 162 l 2,31,32
 216 112 216 112 220 90 c 128,-1,33
 224 68 224 68 237 54 c 0,34,35
 260 31 260 31 346 31 c 0,36,37
 445 31 445 31 468 44 c 0,38,39
 504 65 504 65 534 143 c 0,40,41
 538 147 538 147 548.5 144.5 c 128,-1,42
 559 142 559 142 559 137 c 0,43,44
 559 127 559 127 543 71.5 c 128,-1,45
 527 16 527 16 517 -3 c 1,46,47
 467 -1 467 -1 412 -1 c 0,48,49
 369 0 369 0 268 0 c 2,50,-1
 176 0 l 2,51,52
 130 0 130 0 46 -3 c 0,53,54
 41 -1 41 -1 40.5 8 c 128,-1,55
 40 17 40 17 44 22 c 1,56,-1
 74 25 l 2,57,58
 116 29 116 29 125 49 c 128,-1,59
 134 69 134 69 134 150 c 2,0,-1
EndSplineSet
Validated: 33
EndChar

StartChar: Oslash
Encoding: 216 216 141
Width: 795
Flags: MW
HStem: -16 31<376 475 376 498.5> 645 31<333 423>
VStem: 46 100<317 423> 649 100<230.5 343.5>
LayerCount: 2
Fore
SplineSet
690 668 m 1,0,-1
 635 598 l 1,1,2
 749 500 749 500 749 330 c 0,3,4
 749 182 749 182 648.5 83 c 128,-1,5
 548 -16 548 -16 402 -16 c 0,6,7
 284 -16 284 -16 195 43 c 1,8,-1
 128 -40 l 1,9,10
 117 -40 117 -40 108.5 -32.5 c 128,-1,11
 100 -25 100 -25 99 -15 c 1,12,-1
 164 66 l 1,13,14
 107 112 107 112 76.5 179.5 c 128,-1,15
 46 247 46 247 46 323 c 0,16,17
 46 474 46 474 147 575 c 128,-1,18
 248 676 248 676 402 676 c 0,19,20
 518 676 518 676 603 621 c 1,21,-1
 660 693 l 1,22,23
 671 692 671 692 680.5 684.5 c 128,-1,24
 690 677 690 677 690 668 c 1,0,-1
586 537 m 1,25,-1
 235 94 l 1,26,27
 304 15 304 15 415 15 c 0,28,29
 513 15 513 15 581 89 c 128,-1,30
 649 163 649 163 649 302 c 0,31,32
 649 444 649 444 586 537 c 1,25,-1
211 125 m 1,33,-1
 562 569 l 1,34,35
 494 645 494 645 385 645 c 0,36,37
 343 645 343 645 303.5 630 c 128,-1,38
 264 615 264 615 227 583 c 128,-1,39
 190 551 190 551 168 492 c 128,-1,40
 146 433 146 433 146 355 c 0,41,42
 146 220 146 220 211 125 c 1,33,-1
EndSplineSet
Validated: 1
EndChar

StartChar: OE
Encoding: 338 338 142
Width: 1012
Flags: MW
HStem: -6 31<316.5 447.5> -3 21G 0 31 239 21G 326 35<656.5 729 671 729> 629 31<653.5 668 668 740> 632 31<327.5 456.5>
VStem: 46 100<277.5 410 277.5 423> 557 82<131 158 158 299 374.5 388 388 548 548 572.5>
LayerCount: 2
Fore
SplineSet
619 660 m 2,0,-1
 788 660 l 2,1,2
 910 660 910 660 923 663 c 1,3,4
 927 649 927 649 938 531 c 0,5,6
 935 526 935 526 926.5 525 c 128,-1,7
 918 524 918 524 913 528 c 0,8,9
 906 550 906 550 904 555.5 c 128,-1,10
 902 561 902 561 895 577 c 128,-1,11
 888 593 888 593 881.5 599 c 128,-1,12
 875 605 875 605 863.5 612.5 c 128,-1,13
 852 620 852 620 837 624 c 0,14,15
 811 629 811 629 740 629 c 2,16,-1
 668 629 l 2,17,18
 647 629 647 629 643 623.5 c 128,-1,19
 639 618 639 618 639 589 c 2,20,-1
 639 388 l 2,21,22
 639 368 639 368 643.5 364.5 c 128,-1,23
 648 361 648 361 671 361 c 2,24,-1
 729 361 l 2,25,26
 794 361 794 361 814 366 c 0,27,28
 832 372 832 372 838 402 c 2,29,-1
 847 442 l 2,30,31
 851 447 851 447 860 446.5 c 128,-1,32
 869 446 869 446 872 441 c 0,33,34
 872 431 872 431 870 396 c 128,-1,35
 868 361 868 361 868 341 c 128,-1,36
 868 321 868 321 870 287.5 c 128,-1,37
 872 254 872 254 872 244 c 0,38,39
 869 239 869 239 860 238.5 c 128,-1,40
 851 238 851 238 847 243 c 2,41,-1
 837 283 l 2,42,43
 830 314 830 314 806 321 c 0,44,45
 790 326 790 326 729 326 c 2,46,-1
 671 326 l 2,47,48
 649 326 649 326 644 322 c 128,-1,49
 639 318 639 318 639 299 c 2,50,-1
 639 158 l 2,51,52
 639 74 639 74 658 54 c 0,53,54
 679 31 679 31 779 31 c 0,55,56
 878 31 878 31 906 46 c 0,57,58
 937 62 937 62 977 143 c 0,59,60
 982 147 982 147 990.5 145 c 128,-1,61
 999 143 999 143 1002 136 c 1,62,63
 987 60 987 60 957 -3 c 1,64,65
 867 -1 867 -1 823 -1 c 0,66,67
 779 0 779 0 689 0 c 2,68,-1
 628 0 l 2,69,70
 576 0 576 0 527 -3 c 2,71,-1
 431 -6 l 1,72,73
 257 -6 257 -6 151.5 85 c 128,-1,74
 46 176 46 176 46 325 c 0,75,76
 46 473 46 473 154.5 568 c 128,-1,77
 263 663 263 663 440 663 c 0,78,79
 470 663 470 663 530 661.5 c 128,-1,80
 590 660 590 660 619 660 c 2,0,-1
557 123 m 2,81,-1
 557 548 l 2,82,83
 557 610 557 610 531 620 c 0,84,85
 495 632 495 632 435 632 c 0,86,87
 357 632 357 632 299.5 608 c 128,-1,88
 242 584 242 584 209.5 541 c 128,-1,89
 177 498 177 498 161.5 445.5 c 128,-1,90
 146 393 146 393 146 329 c 0,91,92
 146 294 146 294 152.5 257.5 c 128,-1,93
 159 221 159 221 178.5 178 c 128,-1,94
 198 135 198 135 229 102 c 128,-1,95
 260 69 260 69 315 47 c 128,-1,96
 370 25 370 25 440 25 c 0,97,98
 494 25 494 25 527 40 c 0,99,100
 545 50 545 50 551 68 c 128,-1,101
 557 86 557 86 557 123 c 2,81,-1
EndSplineSet
Validated: 1
EndChar

StartChar: ordmasculine
Encoding: 186 186 143
Width: 387
Flags: MW
HStem: 240 26<166 229.5 166 240.5> 514 26<166 222.5>
VStem: 32 74<365 430.5> 281 74<356.5 409>
LayerCount: 2
Fore
SplineSet
197 540 m 0,0,1
 265 540 265 540 310 498.5 c 128,-1,2
 355 457 355 457 355 393 c 0,3,4
 355 326 355 326 309.5 283 c 128,-1,5
 264 240 264 240 191 240 c 0,6,7
 121 240 121 240 76.5 281 c 128,-1,8
 32 322 32 322 32 386 c 0,9,10
 32 453 32 453 79 496.5 c 128,-1,11
 126 540 126 540 197 540 c 0,0,1
189 514 m 0,12,13
 154 514 154 514 130 481 c 128,-1,14
 106 448 106 448 106 396 c 128,-1,15
 106 344 106 344 129.5 305 c 128,-1,16
 153 266 153 266 198 266 c 0,17,18
 241 266 241 266 261 301 c 128,-1,19
 281 336 281 336 281 382 c 0,20,21
 281 431 281 431 258 472.5 c 128,-1,22
 235 514 235 514 189 514 c 0,12,13
EndSplineSet
Validated: 1
EndChar

StartChar: ae
Encoding: 230 230 144
Width: 585
Flags: MW
HStem: -14 45<97.5 179> -14 53<398.5 435> 374 34<185 208> 378 30<407 432.5>
VStem: 35 76<69.5 97.5> 243 68<121.5 162 162 163 163 171 246.5 272 272 284.5> 486 82<304.5 333>
LayerCount: 2
Fore
SplineSet
243 110 m 2,0,-1
 243 163 l 2,1,2
 243 175 243 175 238 177 c 128,-1,3
 233 179 233 179 221 175 c 2,4,-1
 177 160 l 2,5,6
 111 137 111 137 111 86 c 0,7,8
 111 62 111 62 126.5 46.5 c 128,-1,9
 142 31 142 31 165 31 c 0,10,11
 198 31 198 31 226 59 c 0,12,13
 243 77 243 77 243 110 c 2,0,-1
243 231 m 2,14,-1
 243 272 l 2,15,16
 243 304 243 304 240.5 322 c 128,-1,17
 238 340 238 340 222 357 c 128,-1,18
 206 374 206 374 175 374 c 0,19,20
 147 374 147 374 132.5 359 c 128,-1,21
 118 344 118 344 116 326 c 0,22,23
 114 302 114 302 105 295 c 0,24,25
 79 276 79 276 49 276 c 0,26,27
 37 276 37 276 37 290 c 0,28,29
 37 306 37 306 52 326.5 c 128,-1,30
 67 347 67 347 90 363 c 0,31,32
 152 408 152 408 214 408 c 0,33,34
 280 408 280 408 301 352 c 1,35,36
 359 408 359 408 438 408 c 0,37,38
 489 408 489 408 528.5 379 c 128,-1,39
 568 350 568 350 568 306 c 0,40,41
 568 286 568 286 550 280 c 2,42,-1
 329 209 l 2,43,44
 318 205 318 205 314.5 201 c 128,-1,45
 311 197 311 197 311 186 c 2,46,-1
 311 162 l 2,47,48
 311 103 311 103 345 71 c 128,-1,49
 379 39 379 39 435 39 c 0,50,51
 469 39 469 39 494.5 52 c 128,-1,52
 520 65 520 65 551 102 c 0,53,54
 557 105 557 105 563 100.5 c 128,-1,55
 569 96 569 96 568 90 c 0,56,57
 511 -14 511 -14 398 -14 c 0,58,59
 310 -14 310 -14 264 51 c 1,60,-1
 223 23 l 2,61,62
 169 -14 169 -14 121 -14 c 0,63,64
 85 -14 85 -14 60 11 c 128,-1,65
 35 36 35 36 35 74 c 0,66,67
 35 137 35 137 114 166 c 2,68,-1
 220 206 l 2,69,70
 235 211 235 211 239 215 c 128,-1,71
 243 219 243 219 243 231 c 2,14,-1
329 241 m 2,72,-1
 442 278 l 2,73,74
 468 286 468 286 477 293 c 128,-1,75
 486 300 486 300 486 315 c 0,76,77
 486 342 486 342 464.5 360 c 128,-1,78
 443 378 443 378 413 378 c 0,79,80
 368 378 368 378 339.5 340 c 128,-1,81
 311 302 311 302 311 254 c 0,82,83
 311 242 311 242 314 240 c 128,-1,84
 317 238 317 238 329 241 c 2,72,-1
EndSplineSet
Validated: 1
EndChar

StartChar: dotlessi
Encoding: 305 305 145
Width: 257
Flags: MW
HStem: -3 26.5
VStem: 98 74<112 287 287 292>
LayerCount: 2
Fore
SplineSet
98 112 m 2,0,-1
 98 287 l 2,1,2
 98 318 98 318 94.5 327 c 128,-1,3
 91 336 91 336 71 349 c 2,4,-1
 62 355 l 2,5,6
 59 358 59 358 59 364.5 c 128,-1,7
 59 371 59 371 63 373 c 0,8,9
 123 394 123 394 166 422 c 1,10,11
 174 422 174 422 176 416 c 0,12,13
 172 346 172 346 172 292 c 2,14,-1
 172 112 l 2,15,16
 172 57 172 57 178 43 c 128,-1,17
 184 29 184 29 210 25 c 2,18,-1
 231 22 l 2,19,20
 236 18 236 18 235 8.5 c 128,-1,21
 234 -1 234 -1 229 -3 c 0,22,23
 184 0 184 0 135 0 c 0,24,25
 83 0 83 0 41 -3 c 0,26,27
 36 -1 36 -1 35 8.5 c 128,-1,28
 34 18 34 18 39 22 c 2,29,-1
 60 25 l 2,30,31
 87 29 87 29 92.5 42.5 c 128,-1,32
 98 56 98 56 98 112 c 2,0,-1
EndSplineSet
Validated: 1
EndChar

StartChar: lslash
Encoding: 322 322 146
Width: 261
Flags: MW
HStem: -3 26.5 247 21G<96 96> 695 20G<163 165>
VStem: 96 74<112 247 247 247 291 312 356 564 564 585>
LayerCount: 2
Fore
SplineSet
285 413 m 1,0,-1
 170 312 l 1,1,-1
 170 112 l 2,2,3
 170 57 170 57 176 43 c 128,-1,4
 182 29 182 29 208 25 c 2,5,-1
 232 22 l 2,6,7
 237 18 237 18 236 8.5 c 128,-1,8
 235 -1 235 -1 230 -3 c 0,9,10
 180 0 180 0 133 0 c 0,11,12
 82 0 82 0 37 -3 c 0,13,14
 32 -1 32 -1 31 8.5 c 128,-1,15
 30 18 30 18 35 22 c 2,16,-1
 58 25 l 2,17,18
 85 29 85 29 90.5 42.5 c 128,-1,19
 96 56 96 56 96 112 c 2,20,-1
 96 247 l 1,21,-1
 13 176 l 1,22,23
 4 178 4 178 -0.5 186.5 c 128,-1,24
 -5 195 -5 195 -3 205 c 1,25,-1
 96 291 l 1,26,-1
 96 564 l 2,27,28
 96 609 96 609 91.5 621.5 c 128,-1,29
 87 634 87 634 65 647 c 2,30,-1
 55 653 l 2,31,32
 51 655 51 655 51 663 c 128,-1,33
 51 671 51 671 55 673 c 0,34,35
 127 696 127 696 163 715 c 0,36,37
 170 715 170 715 173 709 c 0,38,39
 170 619 170 619 170 585 c 2,40,-1
 170 356 l 1,41,-1
 267 441 l 1,42,43
 290 435 290 435 285 413 c 1,0,-1
EndSplineSet
Validated: 33
EndChar

StartChar: oslash
Encoding: 248 248 147
Width: 486
Flags: MW
HStem: -14 30<231.5 295.5 231.5 302.5> 378 30<201.5 253.5>
VStem: 35 83<184.5 255> 368 83<146.5 206>
LayerCount: 2
Fore
SplineSet
144 88 m 1,0,-1
 319 341 l 1,1,2
 285 378 285 378 236 378 c 0,3,4
 183 378 183 378 150.5 332 c 128,-1,5
 118 286 118 286 118 205 c 0,6,7
 118 136 118 136 144 88 c 1,0,-1
340 312 m 1,8,-1
 163 58 l 1,9,10
 199 16 199 16 250 16 c 0,11,12
 312 16 312 16 340 66 c 128,-1,13
 368 116 368 116 368 185 c 0,14,15
 368 259 368 259 340 312 c 1,8,-1
410 413 m 1,16,-1
 376 364 l 1,17,18
 451 305 451 305 451 201 c 0,19,20
 451 107 451 107 392 46.5 c 128,-1,21
 333 -14 333 -14 240 -14 c 0,22,23
 179 -14 179 -14 133 14 c 1,24,-1
 96 -41 l 1,25,26
 86 -42 86 -42 79 -35.5 c 128,-1,27
 72 -29 72 -29 70 -19 c 1,28,-1
 106 33 l 1,29,30
 35 89 35 89 35 192 c 0,31,32
 35 285 35 285 96.5 346.5 c 128,-1,33
 158 408 158 408 248 408 c 0,34,35
 303 408 303 408 348 383 c 1,36,-1
 382 432 l 1,37,38
 391 433 391 433 400 427 c 128,-1,39
 409 421 409 421 410 413 c 1,16,-1
EndSplineSet
Validated: 1
EndChar

StartChar: oe
Encoding: 339 339 148
Width: 729
Flags: MW
HStem: -14 30<206 270.5> -14 54<545.5 587.5> 256 30<450 540 477 540 540 570.5> 378 30<202 279.5 188 283 533 587>
VStem: 35 86<161 255> 365 70<173 227> 635 76<308.5 319 285 327.5>
LayerCount: 2
Fore
SplineSet
121 204 m 0,0,1
 121 132 121 132 155 74 c 128,-1,2
 189 16 189 16 248 16 c 0,3,4
 309 16 309 16 337 66.5 c 128,-1,5
 365 117 365 117 365 185 c 0,6,7
 365 231 365 231 353.5 272.5 c 128,-1,8
 342 314 342 314 311 346 c 128,-1,9
 280 378 280 378 235 378 c 0,10,11
 185 378 185 378 153 329.5 c 128,-1,12
 121 281 121 281 121 204 c 0,0,1
627 256 m 2,13,-1
 462 256 l 2,14,15
 445 256 445 256 440 248.5 c 128,-1,16
 435 241 435 241 435 218 c 0,17,18
 435 146 435 146 479 93 c 128,-1,19
 523 40 523 40 599 40 c 0,20,21
 634 40 634 40 653.5 50.5 c 128,-1,22
 673 61 673 61 694 89 c 0,23,24
 700 91 700 91 706 87.5 c 128,-1,25
 712 84 712 84 712 79 c 0,26,27
 672 -14 672 -14 556 -14 c 0,28,29
 508 -14 508 -14 466 8 c 128,-1,30
 424 30 424 30 401 68 c 1,31,32
 375 28 375 28 331.5 7 c 128,-1,33
 288 -14 288 -14 239 -14 c 0,34,35
 150 -14 150 -14 92.5 42.5 c 128,-1,36
 35 99 35 99 35 192 c 0,37,38
 35 286 35 286 96 347 c 128,-1,39
 157 408 157 408 248 408 c 0,40,41
 297 408 297 408 338.5 386 c 128,-1,42
 380 364 380 364 405 322 c 1,43,44
 431 362 431 362 474 385 c 128,-1,45
 517 408 517 408 563 408 c 0,46,47
 630 408 630 408 670.5 372.5 c 128,-1,48
 711 337 711 337 711 289 c 0,49,50
 711 272 711 272 708 266 c 0,51,52
 703 256 703 256 627 256 c 2,13,-1
477 286 m 2,53,-1
 540 286 l 2,54,55
 620 286 620 286 629 295 c 0,56,57
 635 301 635 301 635 315 c 0,58,59
 635 338 635 338 616 358 c 128,-1,60
 597 378 597 378 558 378 c 0,61,62
 517 378 517 378 483 351 c 128,-1,63
 449 324 449 324 449 294 c 0,64,65
 449 286 449 286 477 286 c 2,53,-1
EndSplineSet
Validated: 1
EndChar

StartChar: germandbls
Encoding: 223 223 149
Width: 523
Flags: MW
HStem: -14 30<354.5 384 354.5 389.5> -3 26.5 680 35<277 324.5>
VStem: 95 74<112 323 323 336.5 407 411> 265 65<340 352.5> 397 70<553 598> 428 68<77 114>
LayerCount: 2
Fore
SplineSet
169 411 m 2,0,-1
 169 112 l 2,1,2
 169 57 169 57 175 43 c 128,-1,3
 181 29 181 29 207 25 c 2,4,-1
 231 22 l 2,5,6
 236 18 236 18 235 8.5 c 128,-1,7
 234 -1 234 -1 229 -3 c 0,8,9
 180 0 180 0 132 0 c 0,10,11
 81 0 81 0 36 -3 c 0,12,13
 31 -1 31 -1 30 8.5 c 128,-1,14
 29 18 29 18 34 22 c 2,15,-1
 57 25 l 2,16,17
 84 29 84 29 89.5 42.5 c 128,-1,18
 95 56 95 56 95 112 c 2,19,-1
 95 323 l 2,20,21
 95 344 95 344 92.5 348 c 128,-1,22
 90 352 90 352 75 352 c 2,23,-1
 40 352 l 1,24,25
 29 359 29 359 37 371 c 1,26,-1
 80 392 l 2,27,28
 95 400 95 400 95 412 c 0,29,30
 95 510 95 510 130 583 c 0,31,32
 156 638 156 638 207 676.5 c 128,-1,33
 258 715 258 715 327 715 c 128,-1,34
 396 715 396 715 431.5 675 c 128,-1,35
 467 635 467 635 467 582 c 0,36,37
 467 573 467 573 466 564 c 128,-1,38
 465 555 465 555 462 547 c 128,-1,39
 459 539 459 539 457 532.5 c 128,-1,40
 455 526 455 526 449.5 518 c 128,-1,41
 444 510 444 510 441 506 c 128,-1,42
 438 502 438 502 431 494 c 128,-1,43
 424 486 424 486 421 483 c 128,-1,44
 418 480 418 480 409.5 471 c 128,-1,45
 401 462 401 462 399 460 c 2,46,-1
 378 442 l 2,47,48
 330 400 330 400 330 360 c 0,49,50
 330 341 330 341 342 322 c 128,-1,51
 354 303 354 303 367.5 291 c 128,-1,52
 381 279 381 279 410 256 c 0,53,54
 450 225 450 225 473 193.5 c 128,-1,55
 496 162 496 162 496 117 c 0,56,57
 496 59 496 59 453 22.5 c 128,-1,58
 410 -14 410 -14 353 -14 c 0,59,60
 300 -14 300 -14 279 5 c 0,61,62
 269 15 269 15 266.5 31.5 c 128,-1,63
 264 48 264 48 273 62 c 0,64,65
 276 67 276 67 282.5 67.5 c 128,-1,66
 289 68 289 68 294 64 c 0,67,68
 346 16 346 16 367 16 c 0,69,70
 394 16 394 16 411 35 c 128,-1,71
 428 54 428 54 428 89 c 0,72,73
 428 149 428 149 350 205 c 0,74,75
 265 265 265 265 265 328 c 0,76,77
 265 335 265 335 266.5 342.5 c 128,-1,78
 268 350 268 350 269 355.5 c 128,-1,79
 270 361 270 361 274 368 c 128,-1,80
 278 375 278 375 279.5 379 c 128,-1,81
 281 383 281 383 287 390.5 c 128,-1,82
 293 398 293 398 295 400.5 c 128,-1,83
 297 403 297 403 305 411.5 c 128,-1,84
 313 420 313 420 314.5 421.5 c 128,-1,85
 316 423 316 423 325.5 432 c 128,-1,86
 335 441 335 441 336 442 c 0,87,88
 397 500 397 500 397 568 c 0,89,90
 397 614 397 614 368 647 c 128,-1,91
 339 680 339 680 293 680 c 0,92,93
 235 680 235 680 202 605.5 c 128,-1,94
 169 531 169 531 169 411 c 2,0,-1
EndSplineSet
Validated: 1
EndChar

StartChar: onesuperior
Encoding: 185 185 150
Width: 360
Flags: MW
HStem: 245 22 584.5 20.5 620 20G<212 213.5>
VStem: 153 64<333 526 526 544.5>
LayerCount: 2
Fore
SplineSet
153 333 m 2,0,-1
 153 526 l 2,1,2
 153 557 153 557 147.5 569 c 128,-1,3
 142 581 142 581 122 583 c 2,4,-1
 91 586 l 2,5,6
 87 589 87 589 86.5 595.5 c 128,-1,7
 86 602 86 602 90 605 c 0,8,9
 139 613 139 613 212 640 c 0,10,11
 219 640 219 640 219 635 c 0,12,13
 217 614 217 614 217 562 c 2,14,-1
 217 333 l 2,15,16
 217 293 217 293 223.5 282.5 c 128,-1,17
 230 272 230 272 259 268 c 2,18,-1
 276 266 l 2,19,20
 280 263 280 263 279.5 255 c 128,-1,21
 279 247 279 247 275 245 c 0,22,23
 215 247 215 247 183 247 c 128,-1,24
 151 247 151 247 95 245 c 0,25,26
 91 247 91 247 90.5 255 c 128,-1,27
 90 263 90 263 94 266 c 2,28,-1
 111 268 l 2,29,30
 140 272 140 272 146.5 282.5 c 128,-1,31
 153 293 153 293 153 333 c 2,0,-1
EndSplineSet
Validated: 1
EndChar

StartChar: logicalnot
Encoding: 172 172 151
Width: 500
Flags: MW
HStem: 256 49<33 408 33 467>
VStem: 408 59<50 256 256 256>
LayerCount: 2
Fore
SplineSet
408 50 m 1,0,-1
 408 256 l 1,1,-1
 33 256 l 1,2,-1
 33 305 l 1,3,-1
 467 305 l 1,4,-1
 467 50 l 1,5,-1
 408 50 l 1,0,-1
EndSplineSet
Validated: 1
EndChar

StartChar: mu
Encoding: 956 181 152
AltUni2: 0003bc.ffffffff.0
Width: 512
Flags: MW
HStem: -269 21G<98 115.5> -14 46<214 231.5> 0 21G 388 20G
VStem: 85 74<112.5 147 147 278 278 309.5> 353 74<115 146 146 284 284 314>
LayerCount: 2
Fore
SplineSet
159 314 m 2,0,-1
 159 147 l 2,1,2
 159 90 159 90 179 61 c 128,-1,3
 199 32 199 32 252 32 c 0,4,5
 298 32 298 32 333 62 c 0,6,7
 353 80 353 80 353 115 c 2,8,-1
 353 284 l 2,9,10
 353 317 353 317 349.5 331.5 c 128,-1,11
 346 346 346 346 340 351 c 128,-1,12
 334 356 334 356 316 363 c 2,13,-1
 303 368 l 2,14,15
 298 371 298 371 298 379 c 128,-1,16
 298 387 298 387 304 390 c 0,17,18
 386 392 386 392 421 408 c 1,19,20
 429 406 429 406 430 401 c 0,21,22
 427 373 427 373 427 314 c 2,23,-1
 427 146 l 2,24,25
 427 82 427 82 432.5 59.5 c 128,-1,26
 438 37 438 37 458 37 c 0,27,28
 474 37 474 37 497 42 c 1,29,30
 502 38 502 38 502 27 c 128,-1,31
 502 16 502 16 496 13 c 0,32,33
 394 -8 394 -8 365 -24 c 1,34,35
 356 -24 356 -24 353 -17 c 2,36,-1
 353 24 l 2,37,38
 353 38 353 38 344 38 c 1,39,40
 262 -14 262 -14 198 -14 c 0,41,42
 174 -14 174 -14 142 0 c 0,43,44
 137 1 137 1 134.5 -2.5 c 128,-1,45
 132 -6 132 -6 132 -16 c 2,46,-1
 132 -73 l 2,47,48
 132 -106 132 -106 149 -155 c 128,-1,49
 166 -204 166 -204 166 -206 c 0,50,51
 166 -222 166 -222 143.5 -245.5 c 128,-1,52
 121 -269 121 -269 105 -269 c 0,53,54
 85 -269 85 -269 85 -238 c 2,55,-1
 85 278 l 2,56,57
 85 328 85 328 81 341 c 128,-1,58
 77 354 77 354 55 363 c 2,59,-1
 43 368 l 2,60,61
 38 372 38 372 39 380 c 128,-1,62
 40 388 40 388 45 390 c 0,63,64
 106 391 106 391 152 408 c 1,65,66
 161 407 161 407 162 401 c 0,67,68
 159 375 159 375 159 314 c 2,0,-1
EndSplineSet
Validated: 1
EndChar

StartChar: trademark
Encoding: 8482 8482 153
Width: 1100
Flags: MW
HStem: 256 23 633 27<136 156 156 193 295 306 306 351> 639 23 654 20G<449 449>
VStem: 66 13<680 680> 215 69<358 609> 431 21 541 28 545 27 911 62<544 601.5>
LayerCount: 2
Fore
SplineSet
215 358 m 2,0,-1
 215 609 l 2,1,2
 215 626 215 626 212 629.5 c 128,-1,3
 209 633 209 633 193 633 c 2,4,-1
 156 633 l 2,5,6
 114 633 114 633 93 621 c 128,-1,7
 72 609 72 609 62 576 c 0,8,9
 58 573 58 573 49.5 575 c 128,-1,10
 41 577 41 577 40 581 c 0,11,12
 56 628 56 628 66 680 c 1,13,-1
 79 680 l 1,14,15
 84 667 84 667 93.5 663.5 c 128,-1,16
 103 660 103 660 136 660 c 2,17,-1
 395 660 l 2,18,19
 421 660 421 660 431 662.5 c 128,-1,20
 441 665 441 665 449 674 c 1,21,-1
 462 672 l 1,22,23
 448 628 448 628 452 575 c 0,24,25
 450 571 450 571 442 570.5 c 128,-1,26
 434 570 434 570 431 573 c 0,27,28
 425 611 425 611 411.5 622 c 128,-1,29
 398 633 398 633 351 633 c 2,30,-1
 306 633 l 2,31,32
 290 633 290 633 287 629.5 c 128,-1,33
 284 626 284 626 284 609 c 2,34,-1
 284 358 l 2,35,36
 284 326 284 326 286 313 c 128,-1,37
 288 300 288 300 296.5 290.5 c 128,-1,38
 305 281 305 281 324 280 c 2,39,-1
 350 278 l 2,40,41
 354 274 354 274 354 266 c 128,-1,42
 354 258 354 258 349 256 c 0,43,44
 273 258 273 258 250 258 c 0,45,46
 220 258 220 258 148 256 c 0,47,48
 143 258 143 258 142.5 266 c 128,-1,49
 142 274 142 274 147 278 c 2,50,-1
 177 280 l 2,51,52
 200 281 200 281 207.5 297.5 c 128,-1,53
 215 314 215 314 215 358 c 2,0,-1
915 328 m 2,54,-1
 911 544 l 2,55,56
 911 563 911 563 909 565 c 0,57,58
 906 565 906 565 871 500 c 2,59,-1
 814 393 l 2,60,61
 804 376 804 376 778.5 324.5 c 128,-1,62
 753 273 753 273 746 254 c 1,63,64
 739 249 739 249 733 253 c 1,65,66
 714 306 714 306 677 376 c 2,67,-1
 618 494 l 2,68,69
 587 558 587 558 578 565 c 1,70,71
 575 558 575 558 572 473 c 0,72,73
 569 418 569 418 569 342 c 0,74,75
 570 306 570 306 576 294 c 128,-1,76
 582 282 582 282 605 280 c 2,77,-1
 624 278 l 2,78,79
 626 274 626 274 626 266.5 c 128,-1,80
 626 259 626 259 623 256 c 0,81,82
 585 258 585 258 552 258 c 0,83,84
 533 258 533 258 475 256 c 0,85,86
 471 259 471 259 470.5 267 c 128,-1,87
 470 275 470 275 474 278 c 2,88,-1
 488 280 l 2,89,90
 509 282 509 282 518 291 c 128,-1,91
 527 300 527 300 529 326 c 0,92,93
 529 328 529 328 531.5 352 c 128,-1,94
 534 376 534 376 537 407 c 128,-1,95
 540 438 540 438 541 466 c 0,96,97
 545 550 545 550 545 589 c 0,98,99
 545 615 545 615 536 624.5 c 128,-1,100
 527 634 527 634 500 638 c 2,101,-1
 485 640 l 2,102,103
 482 644 482 644 482.5 652 c 128,-1,104
 483 660 483 660 487 662 c 0,105,106
 529 660 529 660 553 660 c 0,107,108
 591 660 591 660 618 662 c 1,109,110
 621 619 621 619 667 532 c 2,111,-1
 726 420 l 2,112,113
 754 365 754 365 761 361 c 0,114,115
 765 363 765 363 800 429 c 2,116,-1
 847 517 l 2,117,118
 899 618 899 618 911 662 c 1,119,120
 933 660 933 660 965 660 c 0,121,122
 983 660 983 660 1033 662 c 0,123,124
 1038 660 1038 660 1038 651.5 c 128,-1,125
 1038 643 1038 643 1034 640 c 2,126,-1
 1016 638 l 2,127,128
 991 635 991 635 982 623 c 128,-1,129
 973 611 973 611 973 584 c 0,130,131
 973 439 973 439 978 326 c 0,132,133
 980 300 980 300 985.5 290.5 c 128,-1,134
 991 281 991 281 1008 280 c 2,135,-1
 1029 278 l 2,136,137
 1033 275 1033 275 1032.5 267 c 128,-1,138
 1032 259 1032 259 1028 256 c 0,139,140
 974 258 974 258 952 258 c 0,141,142
 918 258 918 258 864 256 c 0,143,144
 859 258 859 258 858.5 266.5 c 128,-1,145
 858 275 858 275 863 278 c 2,146,-1
 883 280 l 2,147,148
 906 282 906 282 911 290.5 c 128,-1,149
 916 299 916 299 915 328 c 2,54,-1
EndSplineSet
Validated: 33
EndChar

StartChar: Eth
Encoding: 208 208 154
Width: 786
Flags: MW
HStem: -8 31<321.5 373.5> -3 21G 0 23.5 326 35<38 128 38 128 210 354> 632 31<289.5 357 272.5 450>
VStem: 128 82<150 173 173 326 361 505 505 542> 634 100<275.5 390>
LayerCount: 2
Fore
SplineSet
128 150 m 2,0,-1
 128 326 l 1,1,-1
 38 326 l 1,2,3
 31 331 31 331 31 343.5 c 128,-1,4
 31 356 31 356 38 361 c 1,5,-1
 128 361 l 1,6,-1
 128 505 l 2,7,8
 128 578 128 578 119.5 602.5 c 128,-1,9
 111 627 111 627 76 631 c 2,10,-1
 59 633 l 2,11,12
 53 636 53 636 53 645 c 128,-1,13
 53 654 53 654 60 657 c 0,14,15
 230 663 230 663 315 663 c 0,16,17
 452 663 452 663 531 634 c 0,18,19
 630 598 630 598 682 519.5 c 128,-1,20
 734 441 734 441 734 340 c 0,21,22
 734 242 734 242 689 164 c 128,-1,23
 644 86 644 86 559 40 c 0,24,25
 470 -8 470 -8 335 -8 c 0,26,27
 299 -8 299 -8 243 -4 c 0,28,29
 185 0 185 0 172 0 c 0,30,31
 118 0 118 0 47 -3 c 0,32,33
 42 -1 42 -1 41.5 8 c 128,-1,34
 41 17 41 17 45 22 c 1,35,-1
 68 25 l 2,36,37
 111 31 111 31 119.5 50 c 128,-1,38
 128 69 128 69 128 150 c 2,0,-1
210 542 m 2,39,-1
 210 361 l 1,40,-1
 354 361 l 1,41,42
 361 356 361 356 361 343.5 c 128,-1,43
 361 331 361 331 354 326 c 1,44,-1
 210 326 l 1,45,-1
 210 173 l 2,46,47
 210 92 210 92 230 64 c 0,48,49
 259 23 259 23 353 23 c 0,50,51
 494 23 494 23 564 107 c 128,-1,52
 634 191 634 191 634 336 c 0,53,54
 634 372 634 372 627 408.5 c 128,-1,55
 620 445 620 445 598.5 486.5 c 128,-1,56
 577 528 577 528 543.5 559 c 128,-1,57
 510 590 510 590 452 611 c 128,-1,58
 394 632 394 632 319 632 c 0,59,60
 239 632 239 632 220 618 c 0,61,62
 210 610 210 610 210 542 c 2,39,-1
EndSplineSet
Validated: 1
EndChar

StartChar: onehalf
Encoding: 189 189 155
Width: 780
Flags: MW
HStem: -14 21G 0 48<505 634 563 596> 245 22 352 41<566 589.5> 584.5 20.5 620 20G<176 177.5>
VStem: 117 64<333 526 526 544.5> 642 73<269 294>
LayerCount: 2
Fore
SplineSet
130 -14 m 1,0,1
 411 412 411 412 566 654 c 1,2,3
 587 654 587 654 597 631 c 1,4,5
 387 315 387 315 157 -40 c 1,6,7
 132 -40 132 -40 130 -14 c 1,0,1
117 333 m 2,8,-1
 117 526 l 2,9,10
 117 557 117 557 111.5 569 c 128,-1,11
 106 581 106 581 86 583 c 2,12,-1
 55 586 l 2,13,14
 51 589 51 589 50.5 595.5 c 128,-1,15
 50 602 50 602 54 605 c 0,16,17
 103 613 103 613 176 640 c 0,18,19
 183 640 183 640 183 635 c 0,20,21
 181 614 181 614 181 562 c 2,22,-1
 181 333 l 2,23,24
 181 293 181 293 187.5 282.5 c 128,-1,25
 194 272 194 272 223 268 c 2,26,-1
 240 266 l 2,27,28
 244 263 244 263 243.5 255 c 128,-1,29
 243 247 243 247 239 245 c 0,30,31
 179 247 179 247 147 247 c 128,-1,32
 115 247 115 247 59 245 c 0,33,34
 55 247 55 247 54.5 255 c 128,-1,35
 54 263 54 263 58 266 c 2,36,-1
 75 268 l 2,37,38
 104 272 104 272 110.5 282.5 c 128,-1,39
 117 293 117 293 117 333 c 2,8,-1
563 48 m 2,40,-1
 634 48 l 2,41,42
 673 48 673 48 693.5 54.5 c 128,-1,43
 714 61 714 61 729 84 c 1,44,45
 742 89 742 89 748 77 c 1,46,47
 743 67 743 67 737 52 c 128,-1,48
 731 37 731 37 727 28.5 c 128,-1,49
 723 20 723 20 718.5 11 c 128,-1,50
 714 2 714 2 709 -2 c 1,51,52
 659 0 659 0 596 0 c 2,53,-1
 524 0 l 2,54,55
 479 0 479 0 449 -2 c 1,56,57
 444 3 444 3 444 5 c 0,58,59
 444 11 444 11 446 14 c 0,60,61
 489 41 489 41 550 102 c 0,62,63
 642 194 642 194 642 268 c 0,64,65
 642 307 642 307 621.5 329.5 c 128,-1,66
 601 352 601 352 567 352 c 0,67,68
 514 352 514 352 477 289 c 0,69,70
 471 285 471 285 464.5 288.5 c 128,-1,71
 458 292 458 292 458 298 c 0,72,73
 499 393 499 393 597 393 c 0,74,75
 651 393 651 393 683 364.5 c 128,-1,76
 715 336 715 336 715 290 c 0,77,78
 715 228 715 228 639 152 c 2,79,-1
 583 96 l 2,80,81
 549 62 549 62 549 56 c 0,82,83
 549 48 549 48 563 48 c 2,40,-1
EndSplineSet
Validated: 1
EndChar

StartChar: plusminus
Encoding: 177 177 156
Width: 500
Flags: MW
HStem: 0 49<58 443 58 443> 239 49<58 221 58 221 280 443>
VStem: 221 59<84 239 288 436>
LayerCount: 2
Fore
SplineSet
443 49 m 1,0,-1
 443 0 l 1,1,-1
 58 0 l 1,2,-1
 58 49 l 1,3,-1
 443 49 l 1,0,-1
280 84 m 1,4,-1
 221 84 l 1,5,-1
 221 239 l 1,6,-1
 58 239 l 1,7,-1
 58 288 l 1,8,-1
 221 288 l 1,9,-1
 221 436 l 1,10,-1
 280 436 l 1,11,-1
 280 288 l 1,12,-1
 443 288 l 1,13,-1
 443 239 l 1,14,-1
 280 239 l 1,15,-1
 280 84 l 1,4,-1
EndSplineSet
Validated: 1
EndChar

StartChar: Thorn
Encoding: 222 222 157
Width: 561
Flags: MW
HStem: -3 26.5 500 31<240.5 291 291 320> 637 26
VStem: 128 82<150 465 531 564.5> 427 91<312 394.5>
LayerCount: 2
Fore
SplineSet
128 150 m 2,0,-1
 128 510 l 2,1,2
 128 591 128 591 117.5 611.5 c 128,-1,3
 107 632 107 632 65 636 c 2,4,-1
 43 638 l 2,5,6
 39 641 39 641 39.5 651 c 128,-1,7
 40 661 40 661 45 663 c 0,8,9
 120 660 120 660 171 660 c 0,10,11
 223 660 223 660 292 663 c 1,12,13
 296 659 296 659 296.5 650.5 c 128,-1,14
 297 642 297 642 294 638 c 2,15,-1
 278 636 l 2,16,17
 232 630 232 630 221 611.5 c 128,-1,18
 210 593 210 593 210 531 c 1,19,-1
 291 531 l 2,20,21
 393 531 393 531 455.5 487.5 c 128,-1,22
 518 444 518 444 518 352 c 0,23,24
 518 298 518 298 491 260.5 c 128,-1,25
 464 223 464 223 428 205 c 0,26,27
 361 172 361 172 282 176 c 0,28,29
 278 178 278 178 277.5 186 c 128,-1,30
 277 194 277 194 281 196 c 0,31,32
 427 217 427 217 427 348 c 0,33,34
 427 419 427 419 386 459.5 c 128,-1,35
 345 500 345 500 267 500 c 0,36,37
 228 500 228 500 219 494.5 c 128,-1,38
 210 489 210 489 210 465 c 2,39,-1
 210 150 l 2,40,41
 210 69 210 69 219 49 c 128,-1,42
 228 29 228 29 270 25 c 2,43,-1
 307 22 l 2,44,45
 311 19 311 19 310.5 9 c 128,-1,46
 310 -1 310 -1 305 -3 c 0,47,48
 215 0 215 0 171 0 c 0,49,50
 117 0 117 0 48 -3 c 0,51,52
 43 -1 43 -1 42.5 8 c 128,-1,53
 42 17 42 17 46 22 c 1,54,-1
 68 25 l 2,55,56
 111 31 111 31 119.5 50 c 128,-1,57
 128 69 128 69 128 150 c 2,0,-1
EndSplineSet
Validated: 33
EndChar

StartChar: onequarter
Encoding: 188 188 158
Width: 780
Flags: MW
HStem: -14 21G -2 22 116 29<475 564 661 665 665 698> 245 22 584.5 20.5 620 20G<169 170.5>
VStem: 110 64<333 526 526 544.5> 409 44 583 63<86 98 98 100 58 105.5 161 270 270 272>
LayerCount: 2
Fore
SplineSet
138 -14 m 1,0,1
 419 412 419 412 574 654 c 1,2,3
 595 654 595 654 605 631 c 1,4,5
 395 315 395 315 165 -40 c 1,6,7
 140 -40 140 -40 138 -14 c 1,0,1
110 333 m 2,8,-1
 110 526 l 2,9,10
 110 557 110 557 104.5 569 c 128,-1,11
 99 581 99 581 79 583 c 2,12,-1
 48 586 l 2,13,14
 44 589 44 589 43.5 595.5 c 128,-1,15
 43 602 43 602 47 605 c 0,16,17
 96 613 96 613 169 640 c 0,18,19
 176 640 176 640 176 635 c 0,20,21
 174 614 174 614 174 562 c 2,22,-1
 174 333 l 2,23,24
 174 293 174 293 180.5 282.5 c 128,-1,25
 187 272 187 272 216 268 c 2,26,-1
 233 266 l 2,27,28
 237 263 237 263 236.5 255 c 128,-1,29
 236 247 236 247 232 245 c 0,30,31
 172 247 172 247 140 247 c 128,-1,32
 108 247 108 247 52 245 c 0,33,34
 48 247 48 247 47.5 255 c 128,-1,35
 47 263 47 263 51 266 c 2,36,-1
 68 268 l 2,37,38
 97 272 97 272 103.5 282.5 c 128,-1,39
 110 293 110 293 110 333 c 2,8,-1
475 145 m 2,40,-1
 565 145 l 2,41,42
 577 145 577 145 580 147.5 c 128,-1,43
 583 150 583 150 583 161 c 2,44,-1
 583 270 l 2,45,46
 583 278 583 278 589 282 c 0,47,48
 609 293 609 293 635 293 c 0,49,50
 646 293 646 293 646 274 c 2,51,-1
 646 159 l 2,52,53
 646 150 646 150 648.5 147.5 c 128,-1,54
 651 145 651 145 661 145 c 2,55,-1
 698 145 l 1,56,57
 704 141 704 141 704 130.5 c 128,-1,58
 704 120 704 120 698 116 c 1,59,-1
 665 116 l 2,60,61
 652 116 652 116 649 113.5 c 128,-1,62
 646 111 646 111 646 100 c 2,63,-1
 646 86 l 2,64,65
 646 42 646 42 651 33 c 128,-1,66
 656 24 656 24 685 21 c 2,67,-1
 703 19 l 2,68,69
 706 15 706 15 705.5 7.5 c 128,-1,70
 705 0 705 0 701 -2 c 0,71,72
 659 0 659 0 615 0 c 0,73,74
 552 0 552 0 526 -2 c 0,75,76
 522 0 522 0 521 7.5 c 128,-1,77
 520 15 520 15 524 19 c 2,78,-1
 542 21 l 2,79,80
 572 25 572 25 577.5 34.5 c 128,-1,81
 583 44 583 44 583 86 c 2,82,-1
 583 98 l 2,83,84
 583 110 583 110 580 113 c 128,-1,85
 577 116 577 116 564 116 c 2,86,-1
 409 116 l 2,87,88
 400 116 400 116 400 126 c 0,89,90
 400 134 400 134 409 146 c 2,91,-1
 622 420 l 2,92,93
 631 432 631 432 643 432 c 0,94,95
 665 432 665 432 665 427 c 0,96,97
 665 425 665 425 663 421 c 2,98,-1
 457 157 l 2,99,100
 452 148 452 148 455 146.5 c 128,-1,101
 458 145 458 145 475 145 c 2,40,-1
EndSplineSet
Validated: 1
EndChar

StartChar: divide
Encoding: 247 247 159
Width: 500
Flags: MW
HStem: 39 89<235.5 259.5> 181 49<58 443 58 443> 283 89<235.5 259.5>
VStem: 203 89<71.5 96 315.5 340>
CounterMasks: 1 e0
LayerCount: 2
Fore
SplineSet
248 128 m 0,0,1
 265 128 265 128 278.5 115 c 128,-1,2
 292 102 292 102 292 84 c 128,-1,3
 292 66 292 66 279 52.5 c 128,-1,4
 266 39 266 39 248 39 c 0,5,6
 229 39 229 39 216 52 c 128,-1,7
 203 65 203 65 203 84 c 0,8,9
 203 102 203 102 216 115 c 128,-1,10
 229 128 229 128 248 128 c 0,0,1
248 283 m 0,11,12
 229 283 229 283 216 296 c 128,-1,13
 203 309 203 309 203 328 c 0,14,15
 203 346 203 346 216 359 c 128,-1,16
 229 372 229 372 248 372 c 0,17,18
 265 372 265 372 278.5 359 c 128,-1,19
 292 346 292 346 292 328 c 128,-1,20
 292 310 292 310 279 296.5 c 128,-1,21
 266 283 266 283 248 283 c 0,11,12
443 230 m 1,22,-1
 443 181 l 1,23,-1
 58 181 l 1,24,-1
 58 230 l 1,25,-1
 443 230 l 1,22,-1
EndSplineSet
Validated: 1
EndChar

StartChar: brokenbar
Encoding: 166 166 160
Width: 239
Flags: MW
HStem: 655 20G<90 149 149 149>
VStem: 90 59<-175 175 -175 175 325 675>
LayerCount: 2
Fore
SplineSet
149 675 m 1,0,-1
 149 325 l 1,1,-1
 90 325 l 1,2,-1
 90 675 l 1,3,-1
 149 675 l 1,0,-1
149 175 m 1,4,-1
 149 -175 l 1,5,-1
 90 -175 l 1,6,-1
 90 175 l 1,7,-1
 149 175 l 1,4,-1
EndSplineSet
Validated: 1
EndChar

StartChar: degree
Encoding: 176 176 161
Width: 348
Flags: MW
HStem: 382 35<152 196 152 210.5> 605 35<152 196>
VStem: 40 56<482.5 539.5 482.5 550> 252 56<482.5 539.5>
LayerCount: 2
Fore
SplineSet
174 640 m 128,-1,1
 230 640 230 640 269 604 c 128,-1,2
 308 568 308 568 308 511 c 0,3,4
 308 452 308 452 269.5 417 c 128,-1,5
 231 382 231 382 174 382 c 128,-1,6
 117 382 117 382 78.5 417 c 128,-1,7
 40 452 40 452 40 511 c 0,8,9
 40 568 40 568 79 604 c 128,-1,0
 118 640 118 640 174 640 c 128,-1,1
174 605 m 128,-1,11
 140 605 140 605 118 579 c 128,-1,12
 96 553 96 553 96 511 c 128,-1,13
 96 469 96 469 118 443 c 128,-1,14
 140 417 140 417 174 417 c 128,-1,15
 208 417 208 417 230 443 c 128,-1,16
 252 469 252 469 252 511 c 128,-1,17
 252 553 252 553 230 579 c 128,-1,10
 208 605 208 605 174 605 c 128,-1,11
EndSplineSet
Validated: 1
EndChar

